<?xml version="1.0" standalone="no"?>
<!DOCTYPE svg PUBLIC "-//W3C//DTD SVG 1.1//EN" "http://www.w3.org/Graphics/SVG/1.1/DTD/svg11.dtd" >
<svg xmlns="http://www.w3.org/2000/svg" xmlns:xlink="http://www.w3.org/1999/xlink" version="1.1">
<metadata>
Created by FontForge 20170731 at Fri Sep  7 16:48:39 2018
 By Aleksey,,,
Copyright 2018 The Fahkwang Project Authors (https://github.com/cadsondemak/Fah-Kwang)
</metadata>
<defs>
<font id="Fahkwang-Regular" horiz-adv-x="0" >
  <font-face 
    font-family="Fahkwang"
    font-weight="400"
    font-stretch="normal"
    units-per-em="1000"
    panose-1="0 0 5 0 0 0 0 0 0 0"
    ascent="800"
    descent="-200"
    x-height="490"
    cap-height="700"
    bbox="-744 -452 1404 1203"
    underline-thickness="50"
    underline-position="-150"
    unicode-range="U+000D-FB02"
  />
<missing-glyph horiz-adv-x="535" 
d="M60 700h415v-700h-415v700zM435 38v624h-335v-624h335z" />
    <glyph glyph-name="fi" unicode="fi" horiz-adv-x="617" 
d="M525 0h-92v449h-226v-449h-92v449h-101l12 41h89v53q0 66 38 101t111 35q54 0 88 -18l-13 -42q-21 19 -53 19q-37 0 -58 -22.5t-21 -62.5v-63h318v-490zM528 658q19 -17 19 -45t-19 -45t-49 -17t-49 17t-19 45t19 45t49 17t49 -17z" />
    <glyph glyph-name="fl" unicode="fl" horiz-adv-x="624" 
d="M115 449h-101l12 41h89v56q0 62 62.5 98t172.5 36q105 0 178 -29v-651h-91v621q-48 16 -97 16q-61 0 -97 -22.5t-36 -60.5v-64h136l-11 -41h-125v-449h-92v449z" />
    <glyph glyph-name="uni0E240E45" unicode="&#xe24;&#xe45;" horiz-adv-x="1029" 
d="M840.5 545.5q55.5 -24.5 86 -68.5t30.5 -101v-576h-96v589q0 65 -43.5 105.5t-112.5 40.5q-45 0 -81 -18.5t-55 -51.5q25 -41 25 -90v-575h-96v585q0 70 -46 110t-126 40q-83 0 -134.5 -41t-57.5 -111h131v-32q-50 -10 -73 -36t-23 -74v-54q9 9 26.5 15.5t37.5 6.5
q50 0 81 -30t31 -79t-35.5 -79.5t-92.5 -30.5q-68 0 -106 37t-38 104v91q0 47 21.5 79t62.5 46h-115q3 67 39.5 117.5t100 78t145.5 27.5q63 0 114.5 -15.5t87.5 -43.5q32 29 79 44t105 15q72 0 127.5 -24.5zM172 156q-22 -22 -22 -57q0 -34 22.5 -56.5t56.5 -22.5
q35 0 57 22t22 57t-22 57t-57 22t-57 -22z" />
    <glyph glyph-name="uni0E260E45" unicode="&#xe26;&#xe45;" horiz-adv-x="1095" 
d="M906.5 545.5q55.5 -24.5 86 -68.5t30.5 -101v-576h-96v589q0 64 -43.5 105t-111.5 41q-45 0 -80.5 -18t-55.5 -50q26 -41 26 -92v-575h-96v585q0 69 -46.5 109.5t-125.5 40.5q-83 0 -135 -41t-57 -111h140v-32q-34 -11 -48.5 -36.5t-14.5 -73.5v-109q0 -68 -38.5 -105
t-109.5 -37q-56 0 -90 30.5t-34 79.5t32 79t83 30q18 0 34.5 -6t26.5 -16v58q0 75 51 102h-125q4 67 40.5 117.5t99.5 78t146 27.5q63 0 114 -15t86 -44q32 28 80 43.5t104 15.5q72 0 127.5 -24.5zM178.5 43.5q21.5 21.5 21.5 55.5t-21.5 56t-55.5 22t-56 -21.5t-22 -56.5
q0 -34 22 -55.5t56 -21.5t55.5 21.5z" />
    <glyph glyph-name=".notdef" horiz-adv-x="535" 
d="M60 700h415v-700h-415v700zM435 38v624h-335v-624h335z" />
    <glyph glyph-name=".null" 
 />
    <glyph glyph-name="nonmarkingreturn" unicode="&#xd;" horiz-adv-x="266" 
 />
    <glyph glyph-name="NULL" 
 />
    <glyph glyph-name="NULL" 
 />
    <glyph glyph-name="space" unicode=" " horiz-adv-x="266" 
 />
    <glyph glyph-name="exclam" unicode="!" horiz-adv-x="248" 
d="M93 354q-21 212 -19 304q1 31 14 47.5t36 16.5q24 0 37 -16.5t13 -47.5q0 -71 -8.5 -173t-10.5 -121q-11 -117 -17 -214h-28q-3 64 -17 204zM83.5 5.5q-15.5 15.5 -15.5 40.5q0 24 15.5 39.5t40.5 15.5t40.5 -15.5t15.5 -39.5q0 -25 -15.5 -40.5t-40.5 -15.5t-40.5 15.5z
" />
    <glyph glyph-name="quotedbl" unicode="&#x22;" horiz-adv-x="353" 
d="M61 563q-9 86 -9 102q0 21 10.5 33t28.5 12t28.5 -12.5t10.5 -33.5q0 -15 -9 -100q-9 -88 -17 -182h-26q-8 94 -17 181zM232 563q-9 86 -9 102q0 21 10.5 33t28.5 12t28.5 -12.5t10.5 -33.5q0 -15 -9 -100q-9 -88 -17 -182h-26q-8 94 -17 181z" />
    <glyph glyph-name="numbersign" unicode="#" horiz-adv-x="641" 
d="M474 416l-23 -161h110v-42h-115l-30 -213h-60l30 213h-155l-30 -213h-60l30 213h-119v42h124l23 161h-119v42h124l30 213h60l-30 -213h155l30 213h60l-30 -213h110v-42h-115zM414 416h-155l-23 -161h155z" />
    <glyph glyph-name="dollar" unicode="$" horiz-adv-x="764" 
d="M625 45q-81 -53 -220 -55v-106h-53v107q-133 8 -209.5 66t-84.5 160h90q7 -92 66.5 -135.5t175.5 -43.5q103 0 157.5 36t54.5 103q0 40 -21 67t-71.5 48t-141.5 39q-145 28 -218.5 72.5t-73.5 125.5q0 86 75.5 131t200.5 49v110h53v-109q128 -4 199 -53.5t83 -133.5h-89
q-15 73 -70.5 106t-153.5 33q-95 0 -144.5 -31t-49.5 -86q0 -33 19 -56t66.5 -42t135.5 -37q108 -22 173.5 -48t98.5 -67.5t33 -105.5q0 -91 -81 -144z" />
    <glyph glyph-name="percent" unicode="%" horiz-adv-x="1006" 
d="M95.5 340.5q-51.5 55.5 -51.5 157.5q0 101 51.5 156.5t145.5 55.5t145 -55.5t51 -156.5q0 -102 -51 -157.5t-145 -55.5t-145.5 55.5zM260 0l412 700h79l-412 -700h-79zM319.5 371q27.5 44 27.5 127t-27.5 127t-78.5 44t-79 -44t-28 -127t28 -127t79 -44t78.5 44z
M620 45.5q-51 55.5 -51 156.5q0 102 51 157.5t145 55.5t145.5 -55.5t51.5 -157.5q0 -101 -51.5 -156.5t-145.5 -55.5t-145 55.5zM844 75q28 44 28 127t-28 127t-79 44t-78.5 -44t-27.5 -127t27.5 -127t78.5 -44t79 44z" />
    <glyph glyph-name="ampersand" unicode="&#x26;" horiz-adv-x="758" 
d="M623 0q-34 24 -78 62q-47 -34 -107 -53t-126 -19q-124 0 -194 50t-70 138q0 72 43.5 125t134.5 92q-38 46 -56 81.5t-18 76.5q0 72 47 114.5t129 42.5q78 0 124 -33.5t46 -91.5q0 -63 -44 -103.5t-131 -81.5q114 -138 237 -251q34 54 34 123q0 42 -11 78h85q3 -24 3 -40
q0 -56 -18.5 -106t-52.5 -90q78 -69 148 -114h-125zM255.5 644q-23.5 -28 -23.5 -77q0 -32 14.5 -62.5t47.5 -72.5q50 29 78.5 67.5t28.5 78.5q0 44 -21.5 69t-59.5 25q-41 0 -64.5 -28zM510 92q-132 118 -257 269q-100 -62 -100 -175q0 -73 44.5 -113.5t122.5 -40.5
q114 0 190 60z" />
    <glyph glyph-name="quotesingle" unicode="'" horiz-adv-x="182" 
d="M61 563q-9 86 -9 102q0 21 10.5 33t28.5 12t28.5 -12.5t10.5 -33.5q0 -15 -9 -100q-9 -88 -17 -182h-26q-8 94 -17 181z" />
    <glyph glyph-name="parenleft" unicode="(" horiz-adv-x="301" 
d="M86.5 83q-41.5 106 -41.5 226q0 119 41 222.5t134 218.5h48q-65 -112 -93 -214t-28 -227q0 -129 29 -236t92 -212h-48q-92 116 -133.5 222z" />
    <glyph glyph-name="parenright" unicode=")" horiz-adv-x="301" 
d="M33 -139q63 105 92 212t29 236q0 125 -28 227t-93 214h48q93 -115 134 -218.5t41 -222.5q0 -120 -41.5 -226t-133.5 -222h-48z" />
    <glyph glyph-name="asterisk" unicode="*" horiz-adv-x="465" 
d="M92 391l116 114l-157 27l27 77l139 -74l-27 165h82l-26 -166l143 75l25 -77l-159 -27l119 -114l-67 -53l-75 151l-74 -151z" />
    <glyph glyph-name="plus" unicode="+" horiz-adv-x="660" 
d="M289 256h-245v58h245v256h82v-256h245v-58h-245v-256h-82v256z" />
    <glyph glyph-name="comma" unicode="," horiz-adv-x="208" 
d="M61 -128q26 21 42.5 56.5t15.5 72.5q-10 -6 -22 -6q-22 0 -36 14t-14 36q0 23 14.5 37.5t39.5 14.5q28 0 44 -20.5t16 -57.5q0 -47 -24 -92t-61 -67z" />
    <glyph glyph-name="hyphen" unicode="-" horiz-adv-x="461" 
d="M52 277h357v-42h-357v42z" />
    <glyph glyph-name="period" unicode="." horiz-adv-x="207" 
d="M62.5 5.5q-15.5 15.5 -15.5 39.5q0 23 16 38.5t40 15.5q25 0 41 -15.5t16 -38.5q0 -24 -16 -39.5t-41 -15.5t-40.5 15.5z" />
    <glyph glyph-name="slash" unicode="/" horiz-adv-x="329" 
d="M281 721h52l-285 -743h-52z" />
    <glyph glyph-name="zero" unicode="0" horiz-adv-x="695" 
d="M107.5 83.5q-84.5 93.5 -84.5 266.5t84.5 266.5t240.5 93.5q155 0 239.5 -93.5t84.5 -266.5t-84 -266.5t-240 -93.5t-240.5 93.5zM509.5 115q57.5 83 57.5 235t-57.5 235t-161.5 83t-161.5 -83t-57.5 -235t57.5 -235t161.5 -83t161.5 83z" />
    <glyph glyph-name="one" unicode="1" horiz-adv-x="696" 
d="M337 546h-182v39q74 2 127 31.5t77 83.5h80v-700h-102v546z" />
    <glyph glyph-name="two" unicode="2" horiz-adv-x="695" 
d="M121 137q62 63 193 131q79 42 124 77t65 71.5t20 82.5q0 80 -48 122.5t-138 42.5q-93 0 -146.5 -46.5t-55.5 -127.5h-90q12 102 92 161t205 59q85 0 149.5 -26t100.5 -74t36 -110q0 -51 -25 -93.5t-82.5 -85.5t-159.5 -97q-69 -37 -107.5 -64t-57 -53.5t-24.5 -60.5h470
v-46h-591q8 74 70 137z" />
    <glyph glyph-name="three" unicode="3" horiz-adv-x="695" 
d="M132.5 42q-81.5 52 -85.5 144h89q4 -73 60 -113t154 -40t150 42.5t52 122.5q0 78 -51.5 115t-159.5 37q-70 0 -128 -11v57q35 -6 95 -6q95 0 153 39.5t58 104.5q0 62 -48 97.5t-132 35.5q-91 0 -147.5 -41.5t-60.5 -111.5h-90q2 58 40.5 102.5t105 69t152.5 24.5
q83 0 148 -22.5t101 -63t36 -91.5q0 -55 -42.5 -97.5t-116.5 -60.5q192 -28 192 -176q0 -98 -81 -153.5t-224 -55.5q-138 0 -219.5 52z" />
    <glyph glyph-name="four" unicode="4" horiz-adv-x="695" 
d="M449 119h-411v35l468 556h47v-546h110v-45h-110v-119h-104v119zM449 164v390l-325 -390h325z" />
    <glyph glyph-name="five" unicode="5" horiz-adv-x="695" 
d="M130.5 41q-75.5 51 -79.5 145h105q4 -72 53 -112.5t131 -40.5q96 0 150 48.5t54 135.5q0 88 -55.5 138t-153.5 50t-176 -58h-91l37 353h510v-45h-410l-27 -247q73 42 176 42q89 0 156 -28t103 -80t36 -120q0 -109 -82 -170.5t-227 -61.5q-134 0 -209.5 51z" />
    <glyph glyph-name="six" unicode="6" horiz-adv-x="696" 
d="M527.5 446q64.5 -29 100 -82.5t35.5 -124.5q0 -73 -38 -129.5t-107 -88t-159 -31.5q-155 0 -241 90.5t-86 255.5q0 115 41 199.5t117 129.5t180 45q70 0 128 -22t96.5 -61.5t50.5 -91.5h-89q-22 65 -70.5 98.5t-117.5 33.5q-70 0 -122.5 -37t-81.5 -104t-29 -156v-17
q32 58 96 90t146 32q86 0 150.5 -29zM504 86.5q54 53.5 54 144.5t-54 145.5t-145 54.5q-90 0 -143.5 -54t-53.5 -146t53 -145t144 -53t145 53.5z" />
    <glyph glyph-name="seven" unicode="7" horiz-adv-x="695" 
d="M211.5 151.5q22.5 72.5 73 152.5t136.5 182q57 67 79.5 104t23.5 65h-475v45h591q0 -40 -26.5 -85t-101.5 -133q-119 -141 -168.5 -249t-49.5 -233h-105q0 79 22.5 151.5z" />
    <glyph glyph-name="eight" unicode="8" horiz-adv-x="696" 
d="M616.5 304q54.5 -47 54.5 -111q0 -61 -40.5 -107t-114.5 -71t-174 -25q-97 0 -168.5 24t-110 68t-38.5 104q0 70 53 121.5t146 72.5q-81 33 -119 71.5t-38 86.5q0 79 77 125.5t209 46.5q81 0 143 -20t96 -56.5t34 -84.5q0 -52 -49 -93.5t-134 -63.5q119 -41 173.5 -88z
M218.5 479q46.5 -32 159.5 -66q68 25 105.5 63t37.5 80q0 49 -49 80t-127 31t-125.5 -30.5t-47.5 -80.5q0 -45 46.5 -77zM506 74q59 41 59 110q0 35 -22.5 61.5t-72.5 49.5t-137 48l-38 12q-80 -19 -122.5 -59.5t-42.5 -98.5q0 -74 60 -119t159 -45q98 0 157 41z" />
    <glyph glyph-name="nine" unicode="9" horiz-adv-x="696" 
d="M577 619.5q86 -90.5 86 -255.5q0 -115 -41 -199.5t-117 -129.5t-180 -45q-69 0 -127.5 22t-97 61.5t-50.5 91.5h89q22 -64 70.5 -98t117.5 -34q70 0 123 37t81.5 104t28.5 156v9q-32 -53 -97 -83.5t-145 -30.5q-86 0 -150.5 29t-100 82.5t-35.5 124.5q0 73 38 129.5
t107 88t159 31.5q155 0 241 -90.5zM480 323q53 54 53 146t-53 145t-144 53t-145 -53.5t-54 -144.5t54.5 -145.5t144.5 -54.5q91 0 144 54z" />
    <glyph glyph-name="colon" unicode=":" horiz-adv-x="207" 
d="M62.5 5.5q-15.5 15.5 -15.5 39.5q0 23 16 38.5t40 15.5q25 0 41 -15.5t16 -38.5q0 -24 -16 -39.5t-41 -15.5t-40.5 15.5zM62.5 405.5q-15.5 15.5 -15.5 39.5q0 23 16 38.5t40 15.5q25 0 41 -15.5t16 -38.5q0 -24 -16 -39.5t-41 -15.5t-40.5 15.5z" />
    <glyph glyph-name="semicolon" unicode=";" horiz-adv-x="208" 
d="M64.5 405.5q-15.5 15.5 -15.5 39.5q0 23 16 38.5t40 15.5q25 0 41 -15.5t16 -38.5q0 -24 -16 -39.5t-41 -15.5t-40.5 15.5zM61 -128q26 21 42.5 56.5t15.5 72.5q-10 -6 -22 -6q-22 0 -36 14t-14 36q0 23 14.5 37.5t39.5 14.5q28 0 44 -20.5t16 -57.5q0 -47 -24 -92
t-61 -67z" />
    <glyph glyph-name="less" unicode="&#x3c;" horiz-adv-x="660" 
d="M49 264v56l562 263v-71l-476 -220l476 -220v-71z" />
    <glyph glyph-name="equal" unicode="=" horiz-adv-x="660" 
d="M44 412h572v-57h-572v57zM44 215h572v-57h-572v57z" />
    <glyph glyph-name="greater" unicode="&#x3e;" horiz-adv-x="660" 
d="M49 72l476 220l-476 220v71l562 -263v-56l-562 -263v71z" />
    <glyph glyph-name="question" unicode="?" horiz-adv-x="542" 
d="M274.5 283.5q18.5 52.5 62.5 99.5q31 34 48 68t17 76q0 64 -35 101.5t-96 37.5q-64 0 -101.5 -39.5t-43.5 -113.5h-87q8 92 69.5 144.5t161.5 52.5q109 0 171 -49.5t62 -136.5q0 -50 -25.5 -87.5t-79.5 -83.5q-53 -45 -79.5 -90.5t-26.5 -109.5h-36q0 78 18.5 130.5z
M234.5 5.5q-15.5 15.5 -15.5 40.5q0 24 15.5 39.5t39.5 15.5q25 0 40.5 -15.5t15.5 -39.5q0 -25 -15.5 -40.5t-40.5 -15.5q-24 0 -39.5 15.5z" />
    <glyph glyph-name="at" unicode="@" horiz-adv-x="861" 
d="M151.5 -26.5q-103.5 87.5 -103.5 252.5q0 117 50 205t141.5 135.5t214.5 47.5q111 0 192 -38t124 -109t43 -170q0 -73 -24 -128t-67.5 -85t-100.5 -30q-46 0 -75 20.5t-36 57.5q-21 -36 -53.5 -55t-72.5 -19q-58 0 -92 34.5t-34 102.5q0 69 23.5 123.5t66.5 85t99 30.5
q34 0 59 -17.5t34 -46.5l35 52h53l-16 -52q-18 -58 -33.5 -124t-15.5 -98q0 -29 14 -42.5t45 -13.5q60 0 95.5 56.5t35.5 152.5q0 80 -37.5 141.5t-105 95.5t-156.5 34q-98 0 -170.5 -41.5t-112 -119.5t-39.5 -185q0 -143 80 -222.5t231 -79.5q57 0 127 14.5t110 35.5l8 -32
q-41 -24 -111.5 -40t-129.5 -16q-192 0 -295.5 87.5zM461.5 132.5q27.5 32.5 41.5 80t14 90.5q0 37 -16.5 63t-45.5 26q-32 0 -59 -28t-42.5 -75t-15.5 -100q0 -48 17 -68.5t42 -20.5q37 0 64.5 32.5z" />
    <glyph glyph-name="A" unicode="A" horiz-adv-x="779" 
d="M573 182h-403l-91 -182h-70l364 710h54l343 -710h-112zM550 230l-172 368l-184 -368h356z" />
    <glyph glyph-name="B" unicode="B" horiz-adv-x="750" 
d="M74 700h326q126 0 200 -44t74 -120q0 -65 -53 -111.5t-139 -59.5q114 -11 174 -52.5t60 -124.5q0 -91 -75 -139.5t-217 -48.5h-350v700zM362 387q101 0 155 36.5t54 106.5q0 62 -51 92t-155 30h-187v-265h184zM434 48q84 0 131 38t47 107q0 73 -64.5 109.5t-191.5 36.5
h-178v-291h256z" />
    <glyph glyph-name="C" unicode="C" horiz-adv-x="807" 
d="M151 84q-96 94 -96 269q0 171 95.5 264t273.5 93q145 0 236 -61t108 -170h-90q-17 86 -83 134.5t-166 48.5q-130 0 -199.5 -80t-69.5 -229q0 -152 70 -233.5t201 -81.5q100 0 165 48t82 135h90q-17 -109 -108 -170t-234 -61q-179 0 -275 94z" />
    <glyph glyph-name="D" unicode="D" horiz-adv-x="803" 
d="M75 700h272q196 0 298 -86t102 -252q0 -173 -102.5 -267.5t-291.5 -94.5h-278v700zM367 48q133 0 204.5 81t71.5 233q0 143 -70 216.5t-206 73.5h-188v-604h188z" />
    <glyph glyph-name="E" unicode="E" horiz-adv-x="695" 
d="M74 700h593v-48h-489v-253h432v-47h-432v-304h489v-48h-593v700z" />
    <glyph glyph-name="F" unicode="F" horiz-adv-x="656" 
d="M74 700h574v-48h-470v-253h403v-47h-403v-352h-104v700z" />
    <glyph glyph-name="G" unicode="G" horiz-adv-x="831" 
d="M234 32.5q-87 42.5 -133 123.5t-46 193t45 193t130 124.5t202 43.5q142 0 233.5 -61.5t110.5 -169.5h-90q-18 88 -83 135.5t-168 47.5q-129 0 -202 -82.5t-73 -229.5q0 -149 74.5 -230.5t209.5 -81.5q63 0 115 13.5t99 42.5v227h-245v45h349v-279q-59 -47 -140.5 -72
t-178.5 -25q-122 0 -209 42.5z" />
    <glyph glyph-name="H" unicode="H" horiz-adv-x="805" 
d="M74 700h104v-301h449v301h104v-700h-104v352h-449v-352h-104v700z" />
    <glyph glyph-name="I" unicode="I" horiz-adv-x="334" 
d="M115 700h104v-700h-104v700z" />
    <glyph glyph-name="J" unicode="J" horiz-adv-x="571" 
d="M83 35.5q-60 45.5 -65 129.5h95q2 -65 38.5 -96.5t102.5 -31.5q68 0 103.5 39t35.5 116v508h104v-488q0 -108 -62.5 -165t-181.5 -57q-110 0 -170 45.5z" />
    <glyph glyph-name="K" unicode="K" horiz-adv-x="705" 
d="M302 344l-124 -124v-220h-104v700h104v-387l391 387h90l-287 -286l318 -414h-123z" />
    <glyph glyph-name="L" unicode="L" horiz-adv-x="636" 
d="M74 700h104v-652h440v-48h-544v700z" />
    <glyph glyph-name="M" unicode="M" horiz-adv-x="928" 
d="M853 700v-700h-104v588l-272 -588h-49l-292 596v-596h-62v700h119l279 -576l267 576h114z" />
    <glyph glyph-name="N" unicode="N" horiz-adv-x="767" 
d="M74 700h105l426 -543v543h88v-700h-52l-479 609v-609h-88v700z" />
    <glyph glyph-name="O" unicode="O" horiz-adv-x="865" 
d="M230 33q-85 43 -130 124.5t-45 195.5q0 112 45 192.5t130 122.5t203 42t202.5 -42t129.5 -122.5t45 -192.5q0 -114 -45 -195.5t-129.5 -124.5t-202.5 -43t-203 43zM634 120q71 82 71 233q0 148 -70.5 228.5t-201.5 80.5t-202 -80t-71 -229q0 -151 71 -233t202 -82
q130 0 201 82z" />
    <glyph glyph-name="P" unicode="P" horiz-adv-x="664" 
d="M74 700h265q144 0 223 -53t79 -162q0 -108 -78 -161t-224 -53h-161v-271h-104v700zM341 319q196 0 196 166q0 167 -196 167h-163v-333h163z" />
    <glyph glyph-name="Q" unicode="Q" horiz-adv-x="865" 
d="M538 -108.5q61 -36.5 148 -36.5q18 0 36 3l-9 -30q-36 -6 -69 -6q-65 0 -123.5 21.5t-99.5 61t-57 89.5q-147 18 -228 111.5t-81 247.5q0 112 45 192.5t130 122.5t203 42t202.5 -42t129.5 -122.5t45 -192.5q0 -165 -92 -259.5t-257 -102.5q16 -63 77 -99.5zM231 120
q71 -82 202 -82q130 0 201 82t71 233q0 148 -70.5 228.5t-201.5 80.5t-202 -80t-71 -229q0 -151 71 -233z" />
    <glyph glyph-name="R" unicode="R" horiz-adv-x="701" 
d="M650.5 54.5q19.5 -34.5 38.5 -46.5v-8h-109q-17 19 -31.5 48t-31.5 74q-28 74 -57 114.5t-71 53.5h-26h-185v-290h-104v700h289q144 0 222.5 -50.5t78.5 -154.5q0 -155 -175 -193q38 -19 66 -55.5t53 -99.5q23 -58 42.5 -92.5zM365 337q196 0 196 158q0 157 -196 157
h-187v-315h187z" />
    <glyph glyph-name="S" unicode="S" horiz-adv-x="764" 
d="M154 49q-87 59 -96 168h90q7 -92 66.5 -135.5t175.5 -43.5q103 0 157.5 36t54.5 103q0 40 -21 67t-71.5 48t-141.5 39q-145 28 -218.5 72.5t-73.5 125.5q0 90 84 135.5t221 45.5q139 0 216.5 -49.5t89.5 -137.5h-89q-15 73 -70.5 106t-153.5 33q-95 0 -144.5 -31
t-49.5 -86q0 -33 19 -56t66.5 -42t135.5 -37q108 -22 173.5 -48t98.5 -67.5t33 -105.5q0 -94 -84.5 -146.5t-229.5 -52.5q-151 0 -238 59z" />
    <glyph glyph-name="T" unicode="T" horiz-adv-x="713" 
d="M305 652h-296v48h695v-48h-295v-652h-104v652z" />
    <glyph glyph-name="U" unicode="U" horiz-adv-x="805" 
d="M151.5 67.5q-77.5 77.5 -77.5 223.5v409h104v-432q0 -112 53 -171t172 -59q117 0 170.5 58t53.5 172v432h104v-409q0 -146 -77 -223.5t-251 -77.5t-251.5 77.5z" />
    <glyph glyph-name="V" unicode="V" horiz-adv-x="770" 
d="M4 700h115l279 -591l300 591h68l-361 -710h-54z" />
    <glyph glyph-name="W" unicode="W" horiz-adv-x="994" 
d="M6 700h108l179 -530l190 530h61l193 -551l191 551h61l-244 -710h-54l-198 564l-197 -564h-45z" />
    <glyph glyph-name="X" unicode="X" horiz-adv-x="689" 
d="M563 0l-232 296l-252 -296h-75l292 342l-280 358h122l221 -283l242 283h74l-280 -329l290 -371h-122z" />
    <glyph glyph-name="Y" unicode="Y" horiz-adv-x="724" 
d="M304 304l-300 396h113l255 -335l275 335h73l-312 -381v-319h-104v304z" />
    <glyph glyph-name="Z" unicode="Z" horiz-adv-x="655" 
d="M18 9l486 643h-451v48h584v-9l-486 -643h466v-48h-599v9z" />
    <glyph glyph-name="bracketleft" unicode="[" horiz-adv-x="308" 
d="M121 -116q-45 48 -45 154v486q0 105 45 153t145 48v-23q-40 -5 -59.5 -23t-25 -46.5t-5.5 -77.5v-549q0 -49 5.5 -77.5t25 -46.5t59.5 -23v-23q-100 0 -145 48z" />
    <glyph glyph-name="backslash" unicode="\" horiz-adv-x="320" 
d="M-10 721h52l288 -743h-52z" />
    <glyph glyph-name="bracketright" unicode="]" horiz-adv-x="308" 
d="M42 -141q40 5 59.5 23t25 46.5t5.5 77.5v549q0 49 -5.5 77.5t-25 46.5t-59.5 23v23q100 0 145 -48t45 -153v-486q0 -106 -45 -154t-145 -48v23z" />
    <glyph glyph-name="asciicircum" unicode="^" horiz-adv-x="671" 
d="M308 675h58l202 -405h-76l-155 321l-157 -321h-76z" />
    <glyph glyph-name="underscore" unicode="_" horiz-adv-x="547" 
d="M0 -102h547v-42h-547v42z" />
    <glyph glyph-name="grave" unicode="`" horiz-adv-x="500" 
d="M170 667q-39 26 -39 47q0 11 9 18.5t23 7.5q29 0 54 -26l141 -154h-35z" />
    <glyph glyph-name="a" unicode="a" horiz-adv-x="611" 
d="M107.5 29q-50.5 39 -50.5 111q0 77 61 117.5t178 40.5h146v36q0 61 -37 93t-107 32q-66 0 -106 -30.5t-47 -86.5h-72q10 76 70 117t160 41q112 0 171 -45.5t59 -131.5v-162q0 -86 15 -161h-86q-11 45 -14 86q-60 -96 -193 -96q-97 0 -147.5 39zM361.5 50.5
q37.5 21.5 59 57.5t21.5 80v69h-121q-88 0 -130.5 -28.5t-42.5 -87.5q0 -55 33 -83.5t97 -28.5q46 0 83.5 21.5z" />
    <glyph glyph-name="b" unicode="b" horiz-adv-x="659" 
d="M240 16q-50 26 -79 76v-92h-92v683h92v-287q28 49 81 76.5t121 27.5q114 0 180.5 -68t66.5 -186q0 -76 -31.5 -134t-88.5 -90t-133 -32q-67 0 -117 26zM469.5 90q48.5 60 48.5 158t-47 155t-128 57q-54 0 -95.5 -27t-64 -76t-22.5 -113q0 -97 49 -155.5t130 -58.5
t129.5 60z" />
    <glyph glyph-name="c" unicode="c" horiz-adv-x="633" 
d="M180.5 21q-63.5 31 -97.5 88.5t-34 135.5t34 135.5t97 88.5t148 31q104 0 171.5 -43.5t83.5 -120.5h-75q-14 57 -61.5 90t-114.5 33q-88 0 -139.5 -57.5t-51.5 -156.5t51.5 -156.5t139.5 -57.5q66 0 114 33t62 90h75q-16 -77 -84 -120.5t-170 -43.5q-85 0 -148.5 31z" />
    <glyph glyph-name="d" unicode="d" horiz-adv-x="659" 
d="M172.5 22.5q-58.5 32.5 -91 90.5t-32.5 132q0 76 31 133.5t87.5 89.5t130.5 32q67 0 119 -26.5t81 -74.5v284h92v-683h-92v89q-28 -48 -77.5 -73.5t-114.5 -25.5q-75 0 -133.5 32.5zM412.5 56.5q40.5 26.5 63 75t22.5 111.5q0 65 -22.5 114.5t-64 76t-95.5 26.5
q-80 0 -127.5 -57.5t-47.5 -155.5q0 -65 22 -114t62.5 -76t93.5 -27t93.5 26.5z" />
    <glyph glyph-name="e" unicode="e" horiz-adv-x="629" 
d="M439.5 64q46.5 33 59.5 90h75q-19 -77 -87 -120.5t-166 -43.5q-82 0 -143.5 31t-95 88.5t-33.5 133.5q0 78 33 136t94.5 89.5t142.5 31.5q122 0 190.5 -66t71.5 -186h-440v-5q0 -99 48 -155.5t136 -56.5q68 0 114.5 33zM200 414.5q-46 -44.5 -56 -125.5h350
q-11 82 -55.5 126t-117.5 44q-75 0 -121 -44.5z" />
    <glyph glyph-name="f" unicode="f" horiz-adv-x="341" 
d="M115 449h-101l12 41h89v53q0 66 38 101t111 35q54 0 88 -18l-13 -42q-21 19 -53 19q-37 0 -58 -22.5t-21 -62.5v-63h136l-11 -41h-125v-449h-92v449z" />
    <glyph glyph-name="g" unicode="g" horiz-adv-x="644" 
d="M519 493q-47 0 -80 -13q52 -20 80 -57t28 -89q0 -72 -57.5 -120.5t-173.5 -52.5q-44 -2 -74 -12.5t-30 -25.5q0 -13 19.5 -19.5t49.5 -6.5h43q124 0 191.5 -34.5t67.5 -98.5q0 -48 -34.5 -83.5t-98 -55t-147.5 -19.5q-80 0 -139.5 16.5t-92 46t-32.5 68.5q0 42 40 70.5
t124 39.5q-46 6 -68 23.5t-22 41.5t27 43t71 24q-67 18 -99.5 58t-32.5 98q0 75 64 120t170 45q46 0 80 -7q27 25 62 38t74 13q40 0 66 -9v-57q-33 15 -76 15zM419 235.5q37 32.5 37 95.5q0 62 -37 95t-106 33q-68 0 -105 -33t-37 -95q0 -63 36.5 -95.5t105.5 -32.5
t106 32.5zM169 14.5q-59 -26.5 -59 -72.5q0 -44 53 -71.5t141 -27.5q92 0 147.5 32t55.5 82q0 42 -47.5 63t-126.5 21q-105 0 -164 -26.5z" />
    <glyph glyph-name="h" unicode="h" horiz-adv-x="617" 
d="M69 683h92v-287q26 49 77.5 76.5t116.5 27.5q96 0 149.5 -47.5t53.5 -132.5v-320h-92v329q0 62 -34 96t-97 34q-79 0 -126.5 -52t-47.5 -137v-270h-92v683z" />
    <glyph glyph-name="i" unicode="i" horiz-adv-x="276" 
d="M89 568q-19 17 -19 45t19 45t49 17t49 -17t19 -45t-19 -45t-49 -17t-49 17zM92 490h92v-490h-92v490z" />
    <glyph glyph-name="j" unicode="j" horiz-adv-x="292" 
d="M105 568q-19 17 -19 45t19 45t49 17t49 -17t19 -45t-19 -45t-49 -17t-49 17zM-71 -149l28 49q26 -41 69 -41q42 0 61.5 40.5t19.5 126.5v464h92v-444q0 -113 -41.5 -171.5t-120.5 -58.5q-67 0 -108 35z" />
    <glyph glyph-name="k" unicode="k" horiz-adv-x="575" 
d="M459 0l-210 265l-88 -77v-188h-92v683h92v-429l275 236h71l-199 -173l251 -317h-100z" />
    <glyph glyph-name="l" unicode="l" horiz-adv-x="284" 
d="M96 683h92v-683h-92v683z" />
    <glyph glyph-name="m" unicode="m" horiz-adv-x="954" 
d="M70 490h90v-83q22 44 67.5 68.5t104.5 24.5q71 0 117.5 -30t65.5 -87q23 59 69.5 88t111.5 29q96 0 147 -47.5t51 -135.5v-317h-92v326q0 61 -34.5 97t-92.5 36q-68 0 -108 -56.5t-40 -155.5v-247h-90v283q0 85 -34.5 130.5t-98.5 45.5q-65 0 -103.5 -48.5t-38.5 -131.5
v-279h-92v490z" />
    <glyph glyph-name="n" unicode="n" horiz-adv-x="619" 
d="M70 490h92v-86q24 44 74.5 70t113.5 26q97 0 153 -50.5t56 -136.5v-313h-92v323q0 65 -36 100.5t-102 35.5q-76 0 -121.5 -49.5t-45.5 -130.5v-279h-92v490z" />
    <glyph glyph-name="o" unicode="o" horiz-adv-x="665" 
d="M183 21.5q-64 31.5 -99 89.5t-35 134t35 134t99 89.5t149 31.5t149.5 -31.5t99.5 -89.5t35 -134t-35 -134t-99.5 -89.5t-149.5 -31.5t-149 31.5zM472 88q51 57 51 157t-51 157t-140 57t-139.5 -57t-50.5 -157t50.5 -157t139.5 -57t140 57z" />
    <glyph glyph-name="p" unicode="p" horiz-adv-x="659" 
d="M69 490h92v-91q28 47 80.5 74t118.5 27q117 0 183.5 -67.5t66.5 -185.5q0 -120 -67 -188.5t-183 -68.5q-68 0 -119 27t-80 78v-285h-92v680zM433 57.5q41 27.5 63 77t22 114.5q0 98 -47.5 154.5t-128.5 56.5q-53 0 -94.5 -27t-64 -76t-22.5 -113q0 -98 48 -156t130 -58
q53 0 94 27.5z" />
    <glyph glyph-name="q" unicode="q" horiz-adv-x="659" 
d="M498 95q-29 -51 -80 -78t-119 -27q-116 0 -183 68.5t-67 188.5q0 118 66.5 185.5t183.5 67.5q66 0 118 -27t81 -74v91h92v-680h-92v285zM449.5 88.5q48.5 58.5 48.5 155.5q0 64 -22.5 113t-64 76t-94.5 27q-81 0 -128.5 -56.5t-47.5 -154.5q0 -65 22 -114.5t63 -77
t94 -27.5q81 0 129.5 58.5z" />
    <glyph glyph-name="r" unicode="r" horiz-adv-x="363" 
d="M67 490h92v-105q19 55 60.5 85t100.5 30q23 0 34 -4l-9 -64q-15 8 -42 8q-68 0 -106 -57t-38 -144v-239h-92v490z" />
    <glyph glyph-name="s" unicode="s" horiz-adv-x="590" 
d="M126.5 30q-63.5 40 -76.5 112h76q8 -52 52.5 -81.5t117.5 -29.5q69 0 110.5 28t41.5 74q0 37 -36 58.5t-120 35.5t-133.5 31.5t-71.5 43t-22 63.5q0 62 59.5 98.5t166.5 36.5q104 0 168.5 -39.5t74.5 -110.5h-76q-9 51 -52 80t-109 29q-63 0 -101.5 -22.5t-38.5 -60.5
q0 -23 13 -37t47.5 -25t102.5 -23q116 -20 168 -55.5t52 -96.5q0 -70 -65.5 -109.5t-181.5 -39.5q-103 0 -166.5 40z" />
    <glyph glyph-name="t" unicode="t" horiz-adv-x="357" 
d="M133 26q-32 36 -32 111v312h-88l14 41h75l36 138h55v-138h137l-13 -41h-124v-326q0 -91 68 -91q36 0 70 19v-43q-42 -18 -101 -18q-65 0 -97 36z" />
    <glyph glyph-name="u" unicode="u" horiz-adv-x="617" 
d="M113.5 40.5q-55.5 50.5 -55.5 139.5v310h92v-320q0 -67 35.5 -103t101.5 -36q76 0 122.5 49.5t46.5 130.5v279h92v-490h-92v86q-24 -45 -74 -70.5t-115 -25.5q-98 0 -153.5 50.5z" />
    <glyph glyph-name="v" unicode="v" horiz-adv-x="575" 
d="M8 490h100l204 -395l200 395h54l-250 -500h-43z" />
    <glyph glyph-name="w" unicode="w" horiz-adv-x="837" 
d="M11 490h97l156 -363l142 373h45l158 -382l161 372h56l-215 -500h-43l-156 373l-142 -373h-41z" />
    <glyph glyph-name="x" unicode="x" horiz-adv-x="532" 
d="M419 0l-169 201l-175 -201h-67l209 241l-209 249h105l161 -192l163 192h65l-196 -231l216 -259h-103z" />
    <glyph glyph-name="y" unicode="y" horiz-adv-x="571" 
d="M57.5 -185q-27.5 8 -45.5 22l28 49q11 -15 31.5 -24t39.5 -9q33 0 66.5 21.5t54.5 55.5t21 69q0 34 -16 63l-229 428h102l202 -395l192 395h58l-245 -505q-87 -178 -201 -178q-31 0 -58.5 8z" />
    <glyph glyph-name="z" unicode="z" horiz-adv-x="544" 
d="M393 449h-330l14 41h439l-364 -449h357l-15 -41h-466z" />
    <glyph glyph-name="braceleft" unicode="{" horiz-adv-x="346" 
d="M187 -142q-40 22 -52.5 54.5t-12.5 75.5q0 27 4 81q4 48 4 66q0 62 -17.5 92t-60.5 43v21q43 13 60.5 43t17.5 92q0 18 -4 66q-4 54 -4 81q0 46 12.5 78.5t52.5 53t117 20.5v-23q-49 0 -66 -31.5t-17 -93.5q0 -24 3 -56q1 -13 2 -30.5t1 -39.5q0 -78 -17.5 -117.5
t-62.5 -52.5v-1q45 -13 62.5 -52.5t17.5 -117.5q0 -23 -1 -42t-2 -32q-3 -31 -3 -52q0 -70 18.5 -97.5t64.5 -27.5v-23q-77 0 -117 22z" />
    <glyph glyph-name="bar" unicode="|" horiz-adv-x="222" 
d="M68 737h86v-929h-86v929z" />
    <glyph glyph-name="braceright" unicode="}" horiz-adv-x="346" 
d="M42 -141q46 0 64.5 27.5t18.5 97.5q0 21 -3 52q-1 13 -2 32t-1 42q0 78 17.5 117.5t62.5 52.5v1q-45 13 -62.5 52.5t-17.5 117.5q0 22 1 39.5t2 30.5q3 32 3 56q0 62 -17 93.5t-66 31.5v23q77 0 117 -20.5t52.5 -53t12.5 -78.5q0 -27 -4 -81q-4 -48 -4 -66
q0 -62 17.5 -92t60.5 -43v-21q-43 -13 -60.5 -43t-17.5 -92q0 -18 4 -66q4 -54 4 -81q0 -43 -12.5 -75.5t-52.5 -54.5t-117 -22v23z" />
    <glyph glyph-name="asciitilde" unicode="~" horiz-adv-x="671" 
d="M392 223q-29 9 -68 33q-37 23 -61 31.5t-46 8.5q-83 0 -128 -79l-43 40q24 46 69.5 73.5t102.5 27.5q33 0 64.5 -10t68.5 -34q33 -21 56.5 -29.5t43.5 -8.5q35 0 67.5 22t50.5 58l45 -42q-23 -42 -69.5 -71t-93.5 -29q-30 0 -59 9z" />
    <glyph glyph-name="uni00A0" unicode="&#xa0;" horiz-adv-x="266" 
 />
    <glyph glyph-name="exclamdown" unicode="&#xa1;" horiz-adv-x="248" 
d="M164.5 571.5q15.5 -15.5 15.5 -40.5q0 -24 -15.5 -39.5t-40.5 -15.5t-40.5 15.5t-15.5 39.5q0 25 15.5 40.5t40.5 15.5t40.5 -15.5zM138 427q6 -97 17 -214q2 -19 10.5 -121t8.5 -173q0 -31 -13 -47.5t-37 -16.5q-23 0 -36 16.5t-14 47.5q-2 92 19 304q14 140 17 204h28z
" />
    <glyph glyph-name="cent" unicode="&#xa2;" horiz-adv-x="633" 
d="M446 164q48 33 62 90h75q-15 -72 -76 -115t-154 -48v-108h-48v108q-119 6 -187.5 73.5t-68.5 180.5t68.5 180.5t187.5 73.5v109h48v-109q93 -5 153.5 -48t76.5 -115h-75q-14 57 -61.5 90t-114.5 33q-88 0 -139.5 -57.5t-51.5 -156.5t51.5 -156.5t139.5 -57.5q66 0 114 33
z" />
    <glyph glyph-name="sterling" unicode="&#xa3;" horiz-adv-x="724" 
d="M683 123q-18 -58 -59 -93t-103 -35q-49 0 -82 19t-66 59l-8 9q-24 -42 -70 -64.5t-109 -22.5q-65 0 -106.5 25.5t-41.5 71.5q0 49 49.5 77t128.5 28q37 0 74 -8q-10 60 -42 144l-2 6h-122v44h107q-24 79 -24 119q0 86 58 136t157 50q76 0 123.5 -28t75.5 -83l-56 -23
q-16 41 -49.5 65.5t-83.5 24.5q-57 0 -90.5 -32.5t-33.5 -87.5q0 -36 7 -68.5t22 -72.5h220v-44h-202q19 -47 27.5 -81t8.5 -72q0 -21 -3 -41q20 -13 36 -29q34 -31 58.5 -46.5t55.5 -15.5q42 0 71.5 20t51.5 58zM266 67.5q25 27.5 27 73.5q-40 21 -83 21q-37 0 -60 -16.5
t-23 -46.5q0 -28 19.5 -43.5t52.5 -15.5q42 0 67 27.5z" />
    <glyph glyph-name="currency" unicode="&#xa4;" horiz-adv-x="706" 
d="M261 86.5q-44 14.5 -77 41.5l-59 -56l-38 38l59 55q-59 69 -59 171t59 171l-59 55l38 38l59 -56q33 27 77 41.5t92 14.5q100 0 170 -56l59 56l37 -38l-58 -55q58 -68 58 -171t-58 -171l58 -55l-37 -38l-59 56q-34 -27 -78 -41.5t-92 -14.5t-92 14.5zM462 152.5
q48 26.5 74.5 74.5t26.5 109t-26.5 109t-74.5 74.5t-109 26.5t-109 -26.5t-74.5 -74.5t-26.5 -109t26.5 -109t74.5 -74.5t109 -26.5t109 26.5z" />
    <glyph glyph-name="yen" unicode="&#xa5;" horiz-adv-x="724" 
d="M414 326h156v-40h-162v-77h162v-41h-162v-168h-104v168h-164v41h164v77h-164v40h147l-283 374h113l255 -335l275 335h73z" />
    <glyph glyph-name="brokenbar" unicode="&#xa6;" horiz-adv-x="222" 
d="M68 737h86v-384h-86v384zM68 194h86v-386h-86v386z" />
    <glyph glyph-name="section" unicode="&#xa7;" horiz-adv-x="600" 
d="M128.5 -4.5q-68.5 41.5 -77.5 119.5h80q8 -56 53.5 -87.5t111.5 -31.5q58 0 101.5 22.5t43.5 67.5q0 39 -43 59.5t-125 33.5q-111 17 -168 56.5t-57 98.5q0 47 40 81t105 49q-62 16 -95 42.5t-33 67.5q0 68 67 102t166 34q105 0 173.5 -41.5t77.5 -119.5h-80
q-8 56 -53.5 87.5t-111.5 31.5q-58 0 -101.5 -22.5t-43.5 -67.5q0 -39 43 -59.5t125 -33.5q111 -17 168 -56t57 -97q0 -48 -39.5 -82t-105.5 -50q62 -16 95 -42.5t33 -67.5q0 -68 -67 -102t-166 -34q-105 0 -173.5 41.5zM416.5 256.5q41.5 27.5 41.5 71.5q0 48 -46 77.5
t-120 29.5q-67 0 -108.5 -26.5t-41.5 -70.5q0 -49 46 -79t120 -30q67 0 108.5 27.5z" />
    <glyph glyph-name="dieresis" unicode="&#xa8;" horiz-adv-x="500" 
d="M100.5 574q-14.5 14 -14.5 36t15 36.5t37 14.5t37 -14.5t15 -36.5t-14.5 -36t-37.5 -14t-37.5 14zM324.5 574q-14.5 14 -14.5 36t15 36.5t37 14.5t37 -14.5t15 -36.5t-14.5 -36t-37.5 -14t-37.5 14z" />
    <glyph glyph-name="copyright" unicode="&#xa9;" horiz-adv-x="866" 
d="M230 18q-88 48 -137 134t-49 198t49 198t137 134t203 48t203 -48t137 -134t49 -198t-49 -198t-137 -134t-203 -48t-203 48zM608.5 59.5q76.5 41.5 118.5 117t42 173.5t-42 173.5t-118.5 117t-175.5 41.5t-175 -41.5t-118 -117t-42 -173.5t42 -173.5t118 -117t175 -41.5
t175.5 41.5zM319 160q-52 28 -80.5 78.5t-28.5 116.5q0 64 28.5 113.5t80.5 77t119 27.5q80 0 137 -40.5t70 -106.5h-70q-11 44 -48.5 70.5t-88.5 26.5q-72 0 -115 -45.5t-43 -122.5q0 -79 43 -126t115 -47q50 0 88 27t51 71h67q-10 -66 -67.5 -107t-138.5 -41
q-67 0 -119 28z" />
    <glyph glyph-name="ordfeminine" unicode="&#xaa;" horiz-adv-x="406" 
d="M65 374.5q-37 28.5 -37 78.5q0 55 47.5 85.5t134.5 30.5h90v22q0 41 -24 62.5t-71 21.5q-45 0 -73.5 -20.5t-33.5 -55.5h-56q7 53 50.5 82t115.5 29q77 0 120.5 -33.5t43.5 -92.5v-114q0 -62 9 -116h-64q-6 22 -8 60q-20 -33 -57 -50.5t-85 -17.5q-65 0 -102 28.5z
M267 414q33 33 33 87v35h-89q-52 0 -81.5 -21t-29.5 -59q0 -35 22 -55t59 -20q53 0 86 33z" />
    <glyph glyph-name="guillemotleft" unicode="&#xab;" horiz-adv-x="480" 
d="M42 285l144 213l60 -43l-144 -170l144 -171l-60 -43zM224 285l144 213l60 -43l-144 -170l144 -171l-60 -43z" />
    <glyph glyph-name="logicalnot" unicode="&#xac;" horiz-adv-x="629" 
d="M510 362h-497v57h575v-295h-78v238z" />
    <glyph glyph-name="uni00AD" unicode="&#xad;" horiz-adv-x="404" 
d="M52 277h300v-42h-300v42z" />
    <glyph glyph-name="registered" unicode="&#xae;" horiz-adv-x="866" 
d="M636 682q88 -48 137 -134t49 -198t-49 -198t-137 -134t-203 -48t-203 48t-137 134t-49 198t49 198t137 134t203 48t203 -48zM608.5 59.5q76.5 41.5 118.5 117t42 173.5t-42 173.5t-118.5 117t-175.5 41.5t-175 -41.5t-118 -117t-42 -173.5t42 -173.5t118 -117t175 -41.5
t175.5 41.5zM610 185q10 -19 25 -34v-6h-72q-21 27 -39 74q-13 36 -26 55.5t-41 28.5h-9h-101v-158h-70v420h171q76 0 119 -33.5t43 -93.5q0 -43 -21 -74.5t-60 -46.5q23 -14 37 -34.5t24 -51.5q10 -27 20 -46zM347 353h101q44 0 68 22t24 63q0 37 -24 57t-68 20h-101v-162z
" />
    <glyph glyph-name="macron" unicode="&#xaf;" horiz-adv-x="500" 
d="M96 624h308v-44h-308v44z" />
    <glyph glyph-name="degree" unicode="&#xb0;" horiz-adv-x="422" 
d="M95 437q-45 44 -45 114t45 114.5t116 44.5t116 -44.5t45 -114.5t-45 -114t-116 -44t-116 44zM295.5 464q32.5 34 32.5 87q0 54 -32.5 87.5t-84.5 33.5t-84.5 -33.5t-32.5 -87.5q0 -53 32.5 -87t84.5 -34t84.5 34z" />
    <glyph glyph-name="plusminus" unicode="&#xb1;" horiz-adv-x="660" 
d="M289 326h-245v57h245v207h82v-207h245v-57h-245v-208h-82v208zM44 57h572v-57h-572v57z" />
    <glyph glyph-name="uni00B2" unicode="&#xb2;" horiz-adv-x="451" 
d="M96 377q41 46 122 84q55 26 80 54t25 64q0 44 -26 67.5t-75 23.5q-47 0 -76 -25t-36 -71h-70q9 63 58.5 98.5t127.5 35.5q82 0 129 -34.5t47 -94.5q0 -46 -31.5 -78.5t-112.5 -70.5q-59 -28 -88.5 -56t-33.5 -62h275v-40h-361q5 59 46 105z" />
    <glyph glyph-name="uni00B3" unicode="&#xb3;" horiz-adv-x="456" 
d="M97.5 298q-49.5 32 -53.5 87h70q3 -38 32.5 -59.5t78.5 -21.5q53 0 83 23.5t30 66.5q0 42 -30 65t-85 23q-38 0 -77 -7v44q22 -2 57 -2q55 0 84.5 21.5t29.5 61.5q0 33 -26 51.5t-73 18.5q-49 0 -77.5 -21.5t-30.5 -59.5h-70q4 55 53 87t129 32q79 0 126 -29t47 -79
q0 -37 -27 -62.5t-75 -35.5q123 -13 123 -108q0 -59 -51 -93.5t-137 -34.5q-81 0 -130.5 32z" />
    <glyph glyph-name="acute" unicode="&#xb4;" horiz-adv-x="500" 
d="M281 714q25 26 54 26q14 0 23 -7.5t9 -18.5q0 -21 -39 -47l-153 -107h-35z" />
    <glyph glyph-name="uni00B5" unicode="&#xb5;" horiz-adv-x="617" 
d="M548 490v-490h-92v86q-24 -45 -74 -70.5t-115 -25.5q-69 0 -121 27v-217h-88v690h92v-320q0 -67 35.5 -103t101.5 -36q76 0 122.5 49.5t46.5 130.5v279h92z" />
    <glyph glyph-name="paragraph" unicode="&#xb6;" horiz-adv-x="570" 
d="M455 -147h-54l-1 809h-76v-809h-56v403q-104 0 -160 63t-56 168q0 63 28.5 112t78 75.5t112.5 26.5h273v-39h-90z" />
    <glyph glyph-name="periodcentered" unicode="&#xb7;" horiz-adv-x="207" 
d="M62.5 219.5q-15.5 15.5 -15.5 39.5q0 23 16 38.5t40 15.5q25 0 41 -15.5t16 -38.5q0 -24 -16 -39.5t-41 -15.5t-40.5 15.5z" />
    <glyph glyph-name="cedilla" unicode="&#xb8;" horiz-adv-x="500" 
d="M128 -213l22 32q40 -24 77 -24q27 0 43 12t16 36q0 56 -101 52l-7 22l53 90h52l-44 -77q48 -2 77.5 -24t29.5 -62q0 -45 -32.5 -68.5t-79.5 -23.5q-63 0 -106 35z" />
    <glyph glyph-name="uni00B9" unicode="&#xb9;" horiz-adv-x="272" 
d="M124 604h-94v26q50 1 76 16.5t43 55.5h53v-430h-78v332z" />
    <glyph glyph-name="ordmasculine" unicode="&#xba;" horiz-adv-x="472" 
d="M87 395.5q-56 49.5 -56 132.5t56 132.5t149 49.5q92 0 148.5 -50t56.5 -132t-56.5 -132t-148.5 -50q-93 0 -149 49.5zM333.5 419q35.5 39 35.5 109t-35.5 109t-97.5 39q-63 0 -98 -39t-35 -109t35 -109t98 -39q62 0 97.5 39z" />
    <glyph glyph-name="guillemotright" unicode="&#xbb;" horiz-adv-x="480" 
d="M52 114l144 171l-144 170l60 43l144 -213l-144 -214zM234 114l144 171l-144 170l60 43l144 -213l-144 -214z" />
    <glyph glyph-name="onequarter" unicode="&#xbc;" horiz-adv-x="810" 
d="M633 78h-244v18l294 340h28v-321h59v-37h-59v-77h-78v77zM635 115v201l-174 -201h174zM134 604h-94v26q50 1 76 16.5t43 55.5h53v-430h-78v332zM602 704h54l-487 -708h-54z" />
    <glyph glyph-name="onehalf" unicode="&#xbd;" horiz-adv-x="915" 
d="M134 604h-94v26q50 1 76 16.5t43 55.5h53v-430h-78v332zM560 103q41 46 122 84q55 26 80 54t25 64q0 44 -26 67.5t-75 23.5q-47 0 -76 -25t-36 -71h-70q9 63 58.5 98.5t127.5 35.5q82 0 129 -34.5t47 -94.5q0 -46 -31.5 -78.5t-112.5 -70.5q-59 -28 -88.5 -56t-33.5 -62
h275v-40h-361q5 59 46 105zM591 704h54l-487 -708h-54z" />
    <glyph glyph-name="threequarters" unicode="&#xbe;" horiz-adv-x="947" 
d="M97.5 302q-49.5 32 -53.5 87h70q3 -38 32.5 -59.5t78.5 -21.5q53 0 83 23.5t30 66.5q0 42 -30 65t-85 23q-38 0 -77 -7v44q22 -2 57 -2q55 0 84.5 21.5t29.5 61.5q0 33 -26 51.5t-73 18.5q-49 0 -77.5 -21.5t-30.5 -59.5h-70q4 55 53 87t129 32q79 0 126 -29t47 -79
q0 -37 -27 -62.5t-75 -35.5q123 -13 123 -108q0 -59 -51 -93.5t-137 -34.5q-81 0 -130.5 32zM754 704h54l-487 -708h-54zM770 78h-244v18l294 340h28v-321h59v-37h-59v-77h-78v77zM772 115v201l-174 -201h174z" />
    <glyph glyph-name="questiondown" unicode="&#xbf;" horiz-adv-x="542" 
d="M307.5 570.5q15.5 -15.5 15.5 -40.5q0 -24 -15.5 -39.5t-39.5 -15.5q-25 0 -40.5 15.5t-15.5 39.5q0 25 15.5 40.5t40.5 15.5q24 0 39.5 -15.5zM267.5 292.5q-18.5 -52.5 -62.5 -99.5q-31 -34 -48 -68t-17 -76q0 -64 35 -101.5t96 -37.5q64 0 101.5 39.5t43.5 113.5h87
q-8 -92 -69.5 -144.5t-161.5 -52.5q-109 0 -171 49.5t-62 136.5q0 50 25.5 87.5t79.5 83.5q53 45 79.5 90.5t26.5 109.5h36q0 -78 -18.5 -130.5z" />
    <glyph glyph-name="Agrave" unicode="&#xc0;" horiz-adv-x="779" 
d="M573 182h-403l-91 -182h-70l364 710h54l343 -710h-112zM550 230l-172 368l-184 -368h356zM222 877q-38 26 -38 47q0 11 8.5 18.5t23.5 7.5q30 0 53 -26l141 -154h-35z" />
    <glyph glyph-name="Aacute" unicode="&#xc1;" horiz-adv-x="779" 
d="M573 182h-403l-91 -182h-70l364 710h54l343 -710h-112zM550 230l-172 368l-184 -368h356zM519 924q23 26 53 26q15 0 23.5 -7.5t8.5 -18.5q0 -21 -38 -47l-153 -107h-35z" />
    <glyph glyph-name="Acircumflex" unicode="&#xc2;" horiz-adv-x="779" 
d="M573 182h-403l-91 -182h-70l364 710h54l343 -710h-112zM550 230l-172 368l-184 -368h356zM359 923h70l124 -153h-49l-110 106l-110 -106h-49z" />
    <glyph glyph-name="Atilde" unicode="&#xc3;" horiz-adv-x="779" 
d="M573 182h-403l-91 -182h-70l364 710h54l343 -710h-112zM550 230l-172 368l-184 -368h356zM248.5 851q28.5 31 74.5 31q28 0 49.5 -10.5t45.5 -29.5q17 -14 31 -22t28 -8q26 0 44.5 19.5t20.5 50.5h26q0 -49 -28.5 -80.5t-73.5 -31.5q-29 0 -48.5 9.5t-42.5 27.5
q-16 13 -28 19.5t-28 6.5q-31 0 -51 -17.5t-21 -45.5h-27q0 50 28.5 81z" />
    <glyph glyph-name="Adieresis" unicode="&#xc4;" horiz-adv-x="779" 
d="M573 182h-403l-91 -182h-70l364 710h54l343 -710h-112zM550 230l-172 368l-184 -368h356zM244.5 784q-14.5 14 -14.5 36t15 36.5t37 14.5t37 -14.5t15 -36.5t-14.5 -36t-37.5 -14t-37.5 14zM468.5 784q-14.5 14 -14.5 36t15 36.5t37 14.5t37 -14.5t15 -36.5t-14.5 -36
t-37.5 -14t-37.5 14z" />
    <glyph glyph-name="Aring" unicode="&#xc5;" horiz-adv-x="779" 
d="M573 182h-403l-91 -182h-70l364 710h54l343 -710h-112zM550 230l-172 368l-184 -368h356zM318.5 770.5q-29.5 27.5 -29.5 70.5t29.5 71t75.5 28t75.5 -28t29.5 -71t-29.5 -70.5t-75.5 -27.5t-75.5 27.5zM439.5 795q17.5 18 17.5 46t-17.5 46t-45.5 18t-45.5 -18
t-17.5 -46t17.5 -46t45.5 -18t45.5 18z" />
    <glyph glyph-name="AE" unicode="&#xc6;" horiz-adv-x="991" 
d="M621 654v-257h285v-43h-285v-310h342v-44h-440v183h-310l-119 -183h-86l457 700h498v-46h-342zM523 226v428h-3l-279 -428h282z" />
    <glyph glyph-name="Ccedilla" unicode="&#xc7;" horiz-adv-x="807" 
d="M596 86q65 48 82 135h90q-16 -103 -100 -164t-216 -66l-35 -61q48 -2 77.5 -24t29.5 -62q0 -45 -32.5 -68.5t-79.5 -23.5q-63 0 -106 35l22 32q40 -24 77 -24q27 0 43 12t16 36q0 56 -101 52l-7 22l43 74q-166 7 -255 100.5t-89 261.5q0 171 95.5 264t273.5 93
q145 0 236 -61t108 -170h-90q-17 86 -83 134.5t-166 48.5q-130 0 -199.5 -80t-69.5 -229q0 -152 70 -233.5t201 -81.5q100 0 165 48z" />
    <glyph glyph-name="Egrave" unicode="&#xc8;" horiz-adv-x="695" 
d="M74 700h593v-48h-489v-253h432v-47h-432v-304h489v-48h-593v700zM207 877q-38 26 -38 47q0 11 8.5 18.5t23.5 7.5q30 0 53 -26l141 -154h-35z" />
    <glyph glyph-name="Eacute" unicode="&#xc9;" horiz-adv-x="695" 
d="M74 700h593v-48h-489v-253h432v-47h-432v-304h489v-48h-593v700zM504 924q23 26 53 26q15 0 23.5 -7.5t8.5 -18.5q0 -21 -38 -47l-153 -107h-35z" />
    <glyph glyph-name="Ecircumflex" unicode="&#xca;" horiz-adv-x="695" 
d="M74 700h593v-48h-489v-253h432v-47h-432v-304h489v-48h-593v700zM344 923h70l124 -153h-49l-110 106l-110 -106h-49z" />
    <glyph glyph-name="Edieresis" unicode="&#xcb;" horiz-adv-x="695" 
d="M74 700h593v-48h-489v-253h432v-47h-432v-304h489v-48h-593v700zM229.5 784q-14.5 14 -14.5 36t15 36.5t37 14.5t37 -14.5t15 -36.5t-14.5 -36t-37.5 -14t-37.5 14zM453.5 784q-14.5 14 -14.5 36t15 36.5t37 14.5t37 -14.5t15 -36.5t-14.5 -36t-37.5 -14t-37.5 14z" />
    <glyph glyph-name="Igrave" unicode="&#xcc;" horiz-adv-x="334" 
d="M115 700h104v-700h-104v700zM-5 877q-38 26 -38 47q0 11 8.5 18.5t23.5 7.5q30 0 53 -26l141 -154h-35z" />
    <glyph glyph-name="Iacute" unicode="&#xcd;" horiz-adv-x="334" 
d="M115 700h104v-700h-104v700zM292 924q23 26 53 26q15 0 23.5 -7.5t8.5 -18.5q0 -21 -38 -47l-153 -107h-35z" />
    <glyph glyph-name="Icircumflex" unicode="&#xce;" horiz-adv-x="334" 
d="M115 700h104v-700h-104v700zM132 923h70l124 -153h-49l-110 106l-110 -106h-49z" />
    <glyph glyph-name="Idieresis" unicode="&#xcf;" horiz-adv-x="334" 
d="M115 700h104v-700h-104v700zM17.5 784q-14.5 14 -14.5 36t15 36.5t37 14.5t37 -14.5t15 -36.5t-14.5 -36t-37.5 -14t-37.5 14zM241.5 784q-14.5 14 -14.5 36t15 36.5t37 14.5t37 -14.5t15 -36.5t-14.5 -36t-37.5 -14t-37.5 14z" />
    <glyph glyph-name="Eth" unicode="&#xd0;" horiz-adv-x="803" 
d="M645 614q102 -86 102 -252q0 -173 -102.5 -267.5t-291.5 -94.5h-278v348h-77v44h77v308h272q196 0 298 -86zM571.5 129q71.5 81 71.5 233q0 143 -70 216.5t-206 73.5h-188v-260h212v-44h-212v-300h188q133 0 204.5 81z" />
    <glyph glyph-name="Ntilde" unicode="&#xd1;" horiz-adv-x="767" 
d="M74 700h105l426 -543v543h88v-700h-52l-479 609v-609h-88v700zM238.5 851q28.5 31 74.5 31q28 0 49.5 -10.5t45.5 -29.5q17 -14 31 -22t28 -8q26 0 44.5 19.5t20.5 50.5h26q0 -49 -28.5 -80.5t-73.5 -31.5q-29 0 -48.5 9.5t-42.5 27.5q-16 13 -28 19.5t-28 6.5
q-31 0 -51 -17.5t-21 -45.5h-27q0 50 28.5 81z" />
    <glyph glyph-name="Ograve" unicode="&#xd2;" horiz-adv-x="865" 
d="M230 33q-85 43 -130 124.5t-45 195.5q0 112 45 192.5t130 122.5t203 42t202.5 -42t129.5 -122.5t45 -192.5q0 -114 -45 -195.5t-129.5 -124.5t-202.5 -43t-203 43zM634 120q71 82 71 233q0 148 -70.5 228.5t-201.5 80.5t-202 -80t-71 -229q0 -151 71 -233t202 -82
q130 0 201 82zM261 877q-38 26 -38 47q0 11 8.5 18.5t23.5 7.5q30 0 53 -26l141 -154h-35z" />
    <glyph glyph-name="Oacute" unicode="&#xd3;" horiz-adv-x="865" 
d="M230 33q-85 43 -130 124.5t-45 195.5q0 112 45 192.5t130 122.5t203 42t202.5 -42t129.5 -122.5t45 -192.5q0 -114 -45 -195.5t-129.5 -124.5t-202.5 -43t-203 43zM634 120q71 82 71 233q0 148 -70.5 228.5t-201.5 80.5t-202 -80t-71 -229q0 -151 71 -233t202 -82
q130 0 201 82zM558 924q23 26 53 26q15 0 23.5 -7.5t8.5 -18.5q0 -21 -38 -47l-153 -107h-35z" />
    <glyph glyph-name="Ocircumflex" unicode="&#xd4;" horiz-adv-x="865" 
d="M230 33q-85 43 -130 124.5t-45 195.5q0 112 45 192.5t130 122.5t203 42t202.5 -42t129.5 -122.5t45 -192.5q0 -114 -45 -195.5t-129.5 -124.5t-202.5 -43t-203 43zM634 120q71 82 71 233q0 148 -70.5 228.5t-201.5 80.5t-202 -80t-71 -229q0 -151 71 -233t202 -82
q130 0 201 82zM398 923h70l124 -153h-49l-110 106l-110 -106h-49z" />
    <glyph glyph-name="Otilde" unicode="&#xd5;" horiz-adv-x="865" 
d="M230 33q-85 43 -130 124.5t-45 195.5q0 112 45 192.5t130 122.5t203 42t202.5 -42t129.5 -122.5t45 -192.5q0 -114 -45 -195.5t-129.5 -124.5t-202.5 -43t-203 43zM634 120q71 82 71 233q0 148 -70.5 228.5t-201.5 80.5t-202 -80t-71 -229q0 -151 71 -233t202 -82
q130 0 201 82zM287.5 851q28.5 31 74.5 31q28 0 49.5 -10.5t45.5 -29.5q17 -14 31 -22t28 -8q26 0 44.5 19.5t20.5 50.5h26q0 -49 -28.5 -80.5t-73.5 -31.5q-29 0 -48.5 9.5t-42.5 27.5q-16 13 -28 19.5t-28 6.5q-31 0 -51 -17.5t-21 -45.5h-27q0 50 28.5 81z" />
    <glyph glyph-name="Odieresis" unicode="&#xd6;" horiz-adv-x="865" 
d="M230 33q-85 43 -130 124.5t-45 195.5q0 112 45 192.5t130 122.5t203 42t202.5 -42t129.5 -122.5t45 -192.5q0 -114 -45 -195.5t-129.5 -124.5t-202.5 -43t-203 43zM634 120q71 82 71 233q0 148 -70.5 228.5t-201.5 80.5t-202 -80t-71 -229q0 -151 71 -233t202 -82
q130 0 201 82zM283.5 784q-14.5 14 -14.5 36t15 36.5t37 14.5t37 -14.5t15 -36.5t-14.5 -36t-37.5 -14t-37.5 14zM507.5 784q-14.5 14 -14.5 36t15 36.5t37 14.5t37 -14.5t15 -36.5t-14.5 -36t-37.5 -14t-37.5 14z" />
    <glyph glyph-name="multiply" unicode="&#xd7;" horiz-adv-x="660" 
d="M44 51l238 240l-238 239l50 49l237 -238l235 238l50 -49l-236 -239l236 -240l-50 -49l-235 238l-237 -238z" />
    <glyph glyph-name="Oslash" unicode="&#xd8;" horiz-adv-x="865" 
d="M775 525.5q35 -74.5 35 -172.5q0 -114 -45 -195.5t-129.5 -124.5t-202.5 -43q-116 0 -202 42l-60 -82h-59l77 107q-65 46 -99.5 121t-34.5 175q0 112 45 192.5t130 122.5t203 42q115 0 200 -41l51 71h59l-69 -95q66 -45 101 -119.5zM178.5 217.5q18.5 -59.5 54.5 -99.5
l362 499q-64 45 -162 45q-131 0 -202 -80t-71 -229q0 -76 18.5 -135.5zM634 120q71 82 71 233q0 152 -74 232l-362 -500q65 -47 164 -47q130 0 201 82z" />
    <glyph glyph-name="Ugrave" unicode="&#xd9;" horiz-adv-x="805" 
d="M151.5 67.5q-77.5 77.5 -77.5 223.5v409h104v-432q0 -112 53 -171t172 -59q117 0 170.5 58t53.5 172v432h104v-409q0 -146 -77 -223.5t-251 -77.5t-251.5 77.5zM231 877q-38 26 -38 47q0 11 8.5 18.5t23.5 7.5q30 0 53 -26l141 -154h-35z" />
    <glyph glyph-name="Uacute" unicode="&#xda;" horiz-adv-x="805" 
d="M151.5 67.5q-77.5 77.5 -77.5 223.5v409h104v-432q0 -112 53 -171t172 -59q117 0 170.5 58t53.5 172v432h104v-409q0 -146 -77 -223.5t-251 -77.5t-251.5 77.5zM528 924q23 26 53 26q15 0 23.5 -7.5t8.5 -18.5q0 -21 -38 -47l-153 -107h-35z" />
    <glyph glyph-name="Ucircumflex" unicode="&#xdb;" horiz-adv-x="805" 
d="M151.5 67.5q-77.5 77.5 -77.5 223.5v409h104v-432q0 -112 53 -171t172 -59q117 0 170.5 58t53.5 172v432h104v-409q0 -146 -77 -223.5t-251 -77.5t-251.5 77.5zM368 923h70l124 -153h-49l-110 106l-110 -106h-49z" />
    <glyph glyph-name="Udieresis" unicode="&#xdc;" horiz-adv-x="805" 
d="M151.5 67.5q-77.5 77.5 -77.5 223.5v409h104v-432q0 -112 53 -171t172 -59q117 0 170.5 58t53.5 172v432h104v-409q0 -146 -77 -223.5t-251 -77.5t-251.5 77.5zM253.5 784q-14.5 14 -14.5 36t15 36.5t37 14.5t37 -14.5t15 -36.5t-14.5 -36t-37.5 -14t-37.5 14zM477.5 784
q-14.5 14 -14.5 36t15 36.5t37 14.5t37 -14.5t15 -36.5t-14.5 -36t-37.5 -14t-37.5 14z" />
    <glyph glyph-name="Yacute" unicode="&#xdd;" horiz-adv-x="724" 
d="M304 304l-300 396h113l255 -335l275 335h73l-312 -381v-319h-104v304zM487 924q23 26 53 26q15 0 23.5 -7.5t8.5 -18.5q0 -21 -38 -47l-153 -107h-35z" />
    <glyph glyph-name="Thorn" unicode="&#xde;" horiz-adv-x="647" 
d="M57 750h104v-141h161q143 0 222.5 -56.5t79.5 -157.5q0 -102 -79 -158.5t-223 -56.5h-161v-180h-104v750zM324 227q96 0 146 43t50 125t-50 125t-146 43h-163v-336h163z" />
    <glyph glyph-name="germandbls" unicode="&#xdf;" horiz-adv-x="674" 
d="M300.5 3q-35.5 13 -61.5 38l24 37q23 -22 51.5 -34t69.5 -12q73 0 105.5 44t32.5 112q0 71 -38 115.5t-98 44.5h-81v42h78q42 0 67 40.5t25 99.5q0 72 -38 105.5t-106 33.5q-80 0 -117.5 -51.5t-37.5 -158.5v-459h-93v456q0 127 63 190.5t185 63.5q106 0 171 -47t65 -135
q0 -55 -29.5 -96.5t-97.5 -59.5q83 -12 129.5 -60t46.5 -124q0 -89 -60 -143.5t-168 -54.5q-52 0 -87.5 13z" />
    <glyph glyph-name="agrave" unicode="&#xe0;" horiz-adv-x="611" 
d="M107.5 29q-50.5 39 -50.5 111q0 77 61 117.5t178 40.5h146v36q0 61 -37 93t-107 32q-66 0 -106 -30.5t-47 -86.5h-72q10 76 70 117t160 41q112 0 171 -45.5t59 -131.5v-162q0 -86 15 -161h-86q-11 45 -14 86q-60 -96 -193 -96q-97 0 -147.5 39zM361.5 50.5
q37.5 21.5 59 57.5t21.5 80v69h-121q-88 0 -130.5 -28.5t-42.5 -87.5q0 -55 33 -83.5t97 -28.5q46 0 83.5 21.5zM133 667q-38 26 -38 47q0 11 8.5 18.5t23.5 7.5q30 0 53 -26l141 -154h-35z" />
    <glyph glyph-name="aacute" unicode="&#xe1;" horiz-adv-x="611" 
d="M107.5 29q-50.5 39 -50.5 111q0 77 61 117.5t178 40.5h146v36q0 61 -37 93t-107 32q-66 0 -106 -30.5t-47 -86.5h-72q10 76 70 117t160 41q112 0 171 -45.5t59 -131.5v-162q0 -86 15 -161h-86q-11 45 -14 86q-60 -96 -193 -96q-97 0 -147.5 39zM361.5 50.5
q37.5 21.5 59 57.5t21.5 80v69h-121q-88 0 -130.5 -28.5t-42.5 -87.5q0 -55 33 -83.5t97 -28.5q46 0 83.5 21.5zM430 714q23 26 53 26q15 0 23.5 -7.5t8.5 -18.5q0 -21 -38 -47l-153 -107h-35z" />
    <glyph glyph-name="acircumflex" unicode="&#xe2;" horiz-adv-x="611" 
d="M107.5 29q-50.5 39 -50.5 111q0 77 61 117.5t178 40.5h146v36q0 61 -37 93t-107 32q-66 0 -106 -30.5t-47 -86.5h-72q10 76 70 117t160 41q112 0 171 -45.5t59 -131.5v-162q0 -86 15 -161h-86q-11 45 -14 86q-60 -96 -193 -96q-97 0 -147.5 39zM361.5 50.5
q37.5 21.5 59 57.5t21.5 80v69h-121q-88 0 -130.5 -28.5t-42.5 -87.5q0 -55 33 -83.5t97 -28.5q46 0 83.5 21.5zM270 713h70l124 -153h-49l-110 106l-110 -106h-49z" />
    <glyph glyph-name="atilde" unicode="&#xe3;" horiz-adv-x="611" 
d="M107.5 29q-50.5 39 -50.5 111q0 77 61 117.5t178 40.5h146v36q0 61 -37 93t-107 32q-66 0 -106 -30.5t-47 -86.5h-72q10 76 70 117t160 41q112 0 171 -45.5t59 -131.5v-162q0 -86 15 -161h-86q-11 45 -14 86q-60 -96 -193 -96q-97 0 -147.5 39zM361.5 50.5
q37.5 21.5 59 57.5t21.5 80v69h-121q-88 0 -130.5 -28.5t-42.5 -87.5q0 -55 33 -83.5t97 -28.5q46 0 83.5 21.5zM159.5 641q28.5 31 74.5 31q28 0 49.5 -10.5t45.5 -29.5q17 -14 31 -22t28 -8q26 0 44.5 19.5t20.5 50.5h26q0 -49 -28.5 -80.5t-73.5 -31.5q-29 0 -48.5 9.5
t-42.5 27.5q-16 13 -28 19.5t-28 6.5q-31 0 -51 -17.5t-21 -45.5h-27q0 50 28.5 81z" />
    <glyph glyph-name="adieresis" unicode="&#xe4;" horiz-adv-x="611" 
d="M107.5 29q-50.5 39 -50.5 111q0 77 61 117.5t178 40.5h146v36q0 61 -37 93t-107 32q-66 0 -106 -30.5t-47 -86.5h-72q10 76 70 117t160 41q112 0 171 -45.5t59 -131.5v-162q0 -86 15 -161h-86q-11 45 -14 86q-60 -96 -193 -96q-97 0 -147.5 39zM361.5 50.5
q37.5 21.5 59 57.5t21.5 80v69h-121q-88 0 -130.5 -28.5t-42.5 -87.5q0 -55 33 -83.5t97 -28.5q46 0 83.5 21.5zM155.5 574q-14.5 14 -14.5 36t15 36.5t37 14.5t37 -14.5t15 -36.5t-14.5 -36t-37.5 -14t-37.5 14zM379.5 574q-14.5 14 -14.5 36t15 36.5t37 14.5t37 -14.5
t15 -36.5t-14.5 -36t-37.5 -14t-37.5 14z" />
    <glyph glyph-name="aring" unicode="&#xe5;" horiz-adv-x="611" 
d="M107.5 29q-50.5 39 -50.5 111q0 77 61 117.5t178 40.5h146v36q0 61 -37 93t-107 32q-66 0 -106 -30.5t-47 -86.5h-72q10 76 70 117t160 41q112 0 171 -45.5t59 -131.5v-162q0 -86 15 -161h-86q-11 45 -14 86q-60 -96 -193 -96q-97 0 -147.5 39zM361.5 50.5
q37.5 21.5 59 57.5t21.5 80v69h-121q-88 0 -130.5 -28.5t-42.5 -87.5q0 -55 33 -83.5t97 -28.5q46 0 83.5 21.5zM229.5 560.5q-29.5 27.5 -29.5 70.5t29.5 71t75.5 28t75.5 -28t29.5 -71t-29.5 -70.5t-75.5 -27.5t-75.5 27.5zM350.5 585q17.5 18 17.5 46t-17.5 46t-45.5 18
t-45.5 -18t-17.5 -46t17.5 -46t45.5 -18t45.5 18z" />
    <glyph glyph-name="ae" unicode="&#xe6;" horiz-adv-x="956" 
d="M95.5 29q-50.5 39 -50.5 111q0 148 241 148h129v46q0 60 -34 92.5t-100 32.5q-65 0 -102.5 -30t-44.5 -87h-72q11 76 68.5 117t153.5 41q71 0 119 -27.5t67 -77.5q28 49 82.5 77t119.5 28q115 0 179.5 -66t67.5 -186h-421v-1q0 -100 47 -158t127 -58q63 0 107 33t58 90
h75q-18 -77 -81 -120.5t-157 -43.5q-72 0 -128 31t-83 87q-27 -58 -85 -88t-139 -30q-93 0 -143.5 39zM831 289q-7 82 -49.5 126t-113.5 44q-70 0 -114.5 -45t-52.5 -125h330zM370 70.5q45 41.5 45 108.5v68h-115q-86 0 -124.5 -25.5t-38.5 -81.5q0 -53 30 -82t86 -29
q72 0 117 41.5z" />
    <glyph glyph-name="ccedilla" unicode="&#xe7;" horiz-adv-x="633" 
d="M446 64q48 33 62 90h75q-15 -74 -79.5 -117.5t-161.5 -46.5l-34 -60q48 -2 77.5 -24t29.5 -62q0 -45 -32.5 -68.5t-79.5 -23.5q-63 0 -106 35l22 32q40 -24 77 -24q27 0 43 12t16 36q0 56 -101 52l-7 22l44 75q-113 10 -177.5 77t-64.5 176q0 78 34 135.5t97 88.5t148 31
q104 0 171.5 -43.5t83.5 -120.5h-75q-14 57 -61.5 90t-114.5 33q-88 0 -139.5 -57.5t-51.5 -156.5t51.5 -156.5t139.5 -57.5q66 0 114 33z" />
    <glyph glyph-name="egrave" unicode="&#xe8;" horiz-adv-x="629" 
d="M439.5 64q46.5 33 59.5 90h75q-19 -77 -87 -120.5t-166 -43.5q-82 0 -143.5 31t-95 88.5t-33.5 133.5q0 78 33 136t94.5 89.5t142.5 31.5q122 0 190.5 -66t71.5 -186h-440v-5q0 -99 48 -155.5t136 -56.5q68 0 114.5 33zM200 414.5q-46 -44.5 -56 -125.5h350
q-11 82 -55.5 126t-117.5 44q-75 0 -121 -44.5zM143 667q-38 26 -38 47q0 11 8.5 18.5t23.5 7.5q30 0 53 -26l141 -154h-35z" />
    <glyph glyph-name="eacute" unicode="&#xe9;" horiz-adv-x="629" 
d="M439.5 64q46.5 33 59.5 90h75q-19 -77 -87 -120.5t-166 -43.5q-82 0 -143.5 31t-95 88.5t-33.5 133.5q0 78 33 136t94.5 89.5t142.5 31.5q122 0 190.5 -66t71.5 -186h-440v-5q0 -99 48 -155.5t136 -56.5q68 0 114.5 33zM200 414.5q-46 -44.5 -56 -125.5h350
q-11 82 -55.5 126t-117.5 44q-75 0 -121 -44.5zM440 714q23 26 53 26q15 0 23.5 -7.5t8.5 -18.5q0 -21 -38 -47l-153 -107h-35z" />
    <glyph glyph-name="ecircumflex" unicode="&#xea;" horiz-adv-x="629" 
d="M439.5 64q46.5 33 59.5 90h75q-19 -77 -87 -120.5t-166 -43.5q-82 0 -143.5 31t-95 88.5t-33.5 133.5q0 78 33 136t94.5 89.5t142.5 31.5q122 0 190.5 -66t71.5 -186h-440v-5q0 -99 48 -155.5t136 -56.5q68 0 114.5 33zM200 414.5q-46 -44.5 -56 -125.5h350
q-11 82 -55.5 126t-117.5 44q-75 0 -121 -44.5zM280 713h70l124 -153h-49l-110 106l-110 -106h-49z" />
    <glyph glyph-name="edieresis" unicode="&#xeb;" horiz-adv-x="629" 
d="M439.5 64q46.5 33 59.5 90h75q-19 -77 -87 -120.5t-166 -43.5q-82 0 -143.5 31t-95 88.5t-33.5 133.5q0 78 33 136t94.5 89.5t142.5 31.5q122 0 190.5 -66t71.5 -186h-440v-5q0 -99 48 -155.5t136 -56.5q68 0 114.5 33zM200 414.5q-46 -44.5 -56 -125.5h350
q-11 82 -55.5 126t-117.5 44q-75 0 -121 -44.5zM165.5 574q-14.5 14 -14.5 36t15 36.5t37 14.5t37 -14.5t15 -36.5t-14.5 -36t-37.5 -14t-37.5 14zM389.5 574q-14.5 14 -14.5 36t15 36.5t37 14.5t37 -14.5t15 -36.5t-14.5 -36t-37.5 -14t-37.5 14z" />
    <glyph glyph-name="igrave" unicode="&#xec;" horiz-adv-x="284" 
d="M96 490h92v-490h-92v490zM-30 667q-38 26 -38 47q0 11 8.5 18.5t23.5 7.5q30 0 53 -26l141 -154h-35z" />
    <glyph glyph-name="iacute" unicode="&#xed;" horiz-adv-x="284" 
d="M96 490h92v-490h-92v490zM267 714q23 26 53 26q15 0 23.5 -7.5t8.5 -18.5q0 -21 -38 -47l-153 -107h-35z" />
    <glyph glyph-name="icircumflex" unicode="&#xee;" horiz-adv-x="284" 
d="M96 490h92v-490h-92v490zM107 713h70l124 -153h-49l-110 106l-110 -106h-49z" />
    <glyph glyph-name="idieresis" unicode="&#xef;" horiz-adv-x="284" 
d="M96 490h92v-490h-92v490zM-7.5 574q-14.5 14 -14.5 36t15 36.5t37 14.5t37 -14.5t15 -36.5t-14.5 -36t-37.5 -14t-37.5 14zM216.5 574q-14.5 14 -14.5 36t15 36.5t37 14.5t37 -14.5t15 -36.5t-14.5 -36t-37.5 -14t-37.5 14z" />
    <glyph glyph-name="eth" unicode="&#xf0;" horiz-adv-x="665" 
d="M616 245q0 -76 -35 -134t-99.5 -89.5t-149.5 -31.5t-149 31.5t-99 89.5t-35 134t35 134t99 89.5t149 31.5q70 0 128 -22q-54 85 -145 148l-154 -69v47l111 50q-54 30 -118 54l20 42q89 -32 156 -70l134 60v-47l-90 -40q115 -75 178.5 -177.5t63.5 -229.5v-1zM472 88
q51 57 51 157t-51 157t-140 57t-139.5 -57t-50.5 -157t50.5 -157t139.5 -57t140 57z" />
    <glyph glyph-name="ntilde" unicode="&#xf1;" horiz-adv-x="619" 
d="M70 490h92v-86q24 44 74.5 70t113.5 26q97 0 153 -50.5t56 -136.5v-313h-92v323q0 65 -36 100.5t-102 35.5q-76 0 -121.5 -49.5t-45.5 -130.5v-279h-92v490zM163.5 641q28.5 31 74.5 31q28 0 49.5 -10.5t45.5 -29.5q17 -14 31 -22t28 -8q26 0 44.5 19.5t20.5 50.5h26
q0 -49 -28.5 -80.5t-73.5 -31.5q-29 0 -48.5 9.5t-42.5 27.5q-16 13 -28 19.5t-28 6.5q-31 0 -51 -17.5t-21 -45.5h-27q0 50 28.5 81z" />
    <glyph glyph-name="ograve" unicode="&#xf2;" horiz-adv-x="665" 
d="M183 21.5q-64 31.5 -99 89.5t-35 134t35 134t99 89.5t149 31.5t149.5 -31.5t99.5 -89.5t35 -134t-35 -134t-99.5 -89.5t-149.5 -31.5t-149 31.5zM472 88q51 57 51 157t-51 157t-140 57t-139.5 -57t-50.5 -157t50.5 -157t139.5 -57t140 57zM160 667q-38 26 -38 47
q0 11 8.5 18.5t23.5 7.5q30 0 53 -26l141 -154h-35z" />
    <glyph glyph-name="oacute" unicode="&#xf3;" horiz-adv-x="665" 
d="M183 21.5q-64 31.5 -99 89.5t-35 134t35 134t99 89.5t149 31.5t149.5 -31.5t99.5 -89.5t35 -134t-35 -134t-99.5 -89.5t-149.5 -31.5t-149 31.5zM472 88q51 57 51 157t-51 157t-140 57t-139.5 -57t-50.5 -157t50.5 -157t139.5 -57t140 57zM457 714q23 26 53 26
q15 0 23.5 -7.5t8.5 -18.5q0 -21 -38 -47l-153 -107h-35z" />
    <glyph glyph-name="ocircumflex" unicode="&#xf4;" horiz-adv-x="665" 
d="M183 21.5q-64 31.5 -99 89.5t-35 134t35 134t99 89.5t149 31.5t149.5 -31.5t99.5 -89.5t35 -134t-35 -134t-99.5 -89.5t-149.5 -31.5t-149 31.5zM472 88q51 57 51 157t-51 157t-140 57t-139.5 -57t-50.5 -157t50.5 -157t139.5 -57t140 57zM297 713h70l124 -153h-49
l-110 106l-110 -106h-49z" />
    <glyph glyph-name="otilde" unicode="&#xf5;" horiz-adv-x="665" 
d="M183 21.5q-64 31.5 -99 89.5t-35 134t35 134t99 89.5t149 31.5t149.5 -31.5t99.5 -89.5t35 -134t-35 -134t-99.5 -89.5t-149.5 -31.5t-149 31.5zM472 88q51 57 51 157t-51 157t-140 57t-139.5 -57t-50.5 -157t50.5 -157t139.5 -57t140 57zM186.5 641q28.5 31 74.5 31
q28 0 49.5 -10.5t45.5 -29.5q17 -14 31 -22t28 -8q26 0 44.5 19.5t20.5 50.5h26q0 -49 -28.5 -80.5t-73.5 -31.5q-29 0 -48.5 9.5t-42.5 27.5q-16 13 -28 19.5t-28 6.5q-31 0 -51 -17.5t-21 -45.5h-27q0 50 28.5 81z" />
    <glyph glyph-name="odieresis" unicode="&#xf6;" horiz-adv-x="665" 
d="M183 21.5q-64 31.5 -99 89.5t-35 134t35 134t99 89.5t149 31.5t149.5 -31.5t99.5 -89.5t35 -134t-35 -134t-99.5 -89.5t-149.5 -31.5t-149 31.5zM472 88q51 57 51 157t-51 157t-140 57t-139.5 -57t-50.5 -157t50.5 -157t139.5 -57t140 57zM182.5 574q-14.5 14 -14.5 36
t15 36.5t37 14.5t37 -14.5t15 -36.5t-14.5 -36t-37.5 -14t-37.5 14zM406.5 574q-14.5 14 -14.5 36t15 36.5t37 14.5t37 -14.5t15 -36.5t-14.5 -36t-37.5 -14t-37.5 14z" />
    <glyph glyph-name="divide" unicode="&#xf7;" horiz-adv-x="660" 
d="M277.5 454.5q-20.5 18.5 -20.5 48.5q0 29 20.5 48t52.5 19t52.5 -19t20.5 -48q0 -30 -20.5 -48.5t-52.5 -18.5t-52.5 18.5zM44 314h572v-58h-572v58zM277.5 18.5q-20.5 18.5 -20.5 48.5q0 29 20.5 48t52.5 19t52.5 -19t20.5 -48q0 -30 -20.5 -48.5t-52.5 -18.5
t-52.5 18.5z" />
    <glyph glyph-name="oslash" unicode="&#xf8;" horiz-adv-x="665" 
d="M592.5 357.5q23.5 -50.5 23.5 -112.5q0 -76 -35 -134t-99.5 -89.5t-149.5 -31.5q-65 0 -120 19l-43 -59h-55l56 78q-58 33 -89.5 88.5t-31.5 128.5q0 76 35 134t99 89.5t149 31.5q89 0 155 -34l45 62h55l-62 -86q44 -34 67.5 -84.5zM205 76l248 343q-48 40 -121 40
q-89 0 -139.5 -57t-50.5 -157q0 -112 63 -169zM472 88q51 57 51 157q0 85 -39 141l-242 -335q40 -20 90 -20q89 0 140 57z" />
    <glyph glyph-name="ugrave" unicode="&#xf9;" horiz-adv-x="617" 
d="M113.5 40.5q-55.5 50.5 -55.5 139.5v310h92v-320q0 -67 35.5 -103t101.5 -36q76 0 122.5 49.5t46.5 130.5v279h92v-490h-92v86q-24 -45 -74 -70.5t-115 -25.5q-98 0 -153.5 50.5zM136 667q-38 26 -38 47q0 11 8.5 18.5t23.5 7.5q30 0 53 -26l141 -154h-35z" />
    <glyph glyph-name="uacute" unicode="&#xfa;" horiz-adv-x="617" 
d="M113.5 40.5q-55.5 50.5 -55.5 139.5v310h92v-320q0 -67 35.5 -103t101.5 -36q76 0 122.5 49.5t46.5 130.5v279h92v-490h-92v86q-24 -45 -74 -70.5t-115 -25.5q-98 0 -153.5 50.5zM433 714q23 26 53 26q15 0 23.5 -7.5t8.5 -18.5q0 -21 -38 -47l-153 -107h-35z" />
    <glyph glyph-name="ucircumflex" unicode="&#xfb;" horiz-adv-x="617" 
d="M113.5 40.5q-55.5 50.5 -55.5 139.5v310h92v-320q0 -67 35.5 -103t101.5 -36q76 0 122.5 49.5t46.5 130.5v279h92v-490h-92v86q-24 -45 -74 -70.5t-115 -25.5q-98 0 -153.5 50.5zM273 713h70l124 -153h-49l-110 106l-110 -106h-49z" />
    <glyph glyph-name="udieresis" unicode="&#xfc;" horiz-adv-x="617" 
d="M113.5 40.5q-55.5 50.5 -55.5 139.5v310h92v-320q0 -67 35.5 -103t101.5 -36q76 0 122.5 49.5t46.5 130.5v279h92v-490h-92v86q-24 -45 -74 -70.5t-115 -25.5q-98 0 -153.5 50.5zM158.5 574q-14.5 14 -14.5 36t15 36.5t37 14.5t37 -14.5t15 -36.5t-14.5 -36t-37.5 -14
t-37.5 14zM382.5 574q-14.5 14 -14.5 36t15 36.5t37 14.5t37 -14.5t15 -36.5t-14.5 -36t-37.5 -14t-37.5 14z" />
    <glyph glyph-name="yacute" unicode="&#xfd;" horiz-adv-x="571" 
d="M57.5 -185q-27.5 8 -45.5 22l28 49q11 -15 31.5 -24t39.5 -9q33 0 66.5 21.5t54.5 55.5t21 69q0 34 -16 63l-229 428h102l202 -395l192 395h58l-245 -505q-87 -178 -201 -178q-31 0 -58.5 8zM410 714q23 26 53 26q15 0 23.5 -7.5t8.5 -18.5q0 -21 -38 -47l-153 -107h-35z
" />
    <glyph glyph-name="thorn" unicode="&#xfe;" horiz-adv-x="659" 
d="M69 700h92v-301q28 47 80.5 74t118.5 27q117 0 183.5 -67.5t66.5 -185.5q0 -120 -67 -188.5t-183 -68.5q-68 0 -119 27t-80 78v-285h-92v890zM433 57.5q41 27.5 63 77t22 114.5q0 98 -47.5 154.5t-128.5 56.5q-53 0 -94.5 -27t-64 -76t-22.5 -113q0 -98 48 -156t130 -58
q53 0 94 27.5z" />
    <glyph glyph-name="ydieresis" unicode="&#xff;" horiz-adv-x="571" 
d="M57.5 -185q-27.5 8 -45.5 22l28 49q11 -15 31.5 -24t39.5 -9q33 0 66.5 21.5t54.5 55.5t21 69q0 34 -16 63l-229 428h102l202 -395l192 395h58l-245 -505q-87 -178 -201 -178q-31 0 -58.5 8zM135.5 574q-14.5 14 -14.5 36t15 36.5t37 14.5t37 -14.5t15 -36.5t-14.5 -36
t-37.5 -14t-37.5 14zM359.5 574q-14.5 14 -14.5 36t15 36.5t37 14.5t37 -14.5t15 -36.5t-14.5 -36t-37.5 -14t-37.5 14z" />
    <glyph glyph-name="Amacron" unicode="&#x100;" horiz-adv-x="779" 
d="M573 182h-403l-91 -182h-70l364 710h54l343 -710h-112zM550 230l-172 368l-184 -368h356zM240 834h308v-44h-308v44z" />
    <glyph glyph-name="amacron" unicode="&#x101;" horiz-adv-x="611" 
d="M107.5 29q-50.5 39 -50.5 111q0 77 61 117.5t178 40.5h146v36q0 61 -37 93t-107 32q-66 0 -106 -30.5t-47 -86.5h-72q10 76 70 117t160 41q112 0 171 -45.5t59 -131.5v-162q0 -86 15 -161h-86q-11 45 -14 86q-60 -96 -193 -96q-97 0 -147.5 39zM361.5 50.5
q37.5 21.5 59 57.5t21.5 80v69h-121q-88 0 -130.5 -28.5t-42.5 -87.5q0 -55 33 -83.5t97 -28.5q46 0 83.5 21.5zM151 624h308v-44h-308v44z" />
    <glyph glyph-name="Abreve" unicode="&#x102;" horiz-adv-x="779" 
d="M573 182h-403l-91 -182h-70l364 710h54l343 -710h-112zM550 230l-172 368l-184 -368h356zM278.5 803.5q-42.5 37.5 -45.5 102.5h35q5 -44 38.5 -70t87.5 -26t87.5 26t38.5 70h35q-3 -65 -45.5 -102.5t-115.5 -37.5t-115.5 37.5z" />
    <glyph glyph-name="abreve" unicode="&#x103;" horiz-adv-x="611" 
d="M107.5 29q-50.5 39 -50.5 111q0 77 61 117.5t178 40.5h146v36q0 61 -37 93t-107 32q-66 0 -106 -30.5t-47 -86.5h-72q10 76 70 117t160 41q112 0 171 -45.5t59 -131.5v-162q0 -86 15 -161h-86q-11 45 -14 86q-60 -96 -193 -96q-97 0 -147.5 39zM361.5 50.5
q37.5 21.5 59 57.5t21.5 80v69h-121q-88 0 -130.5 -28.5t-42.5 -87.5q0 -55 33 -83.5t97 -28.5q46 0 83.5 21.5zM189.5 593.5q-42.5 37.5 -45.5 102.5h35q5 -44 38.5 -70t87.5 -26t87.5 26t38.5 70h35q-3 -65 -45.5 -102.5t-115.5 -37.5t-115.5 37.5z" />
    <glyph glyph-name="Aogonek" unicode="&#x104;" horiz-adv-x="779" 
d="M792 -166q-16 -13 -40.5 -21t-51.5 -8q-50 0 -77.5 25t-27.5 68q0 28 19.5 55t54.5 47h-11l-85 182h-403l-91 -182h-70l364 710h54l343 -710h-30q-84 -47 -84 -99q0 -27 16.5 -42.5t44.5 -15.5q30 0 66 17zM550 230l-172 368l-184 -368h356z" />
    <glyph glyph-name="aogonek" unicode="&#x105;" horiz-adv-x="611" 
d="M588 -166q-16 -13 -40.5 -21t-51.5 -8q-50 0 -77.5 25t-27.5 68q0 28 19.5 55t54.5 47h-3q-11 45 -14 86q-60 -96 -193 -96q-97 0 -147.5 39t-50.5 111q0 77 61 117.5t178 40.5h146v36q0 61 -37 93t-107 32q-66 0 -106 -30.5t-47 -86.5h-72q10 76 70 117t160 41
q112 0 171 -45.5t59 -131.5v-162q0 -86 15 -161h-12q-84 -47 -84 -99q0 -27 16.5 -42.5t44.5 -15.5q30 0 66 17zM442 257h-121q-88 0 -130.5 -28.5t-42.5 -87.5q0 -55 33 -83.5t97 -28.5q46 0 83.5 21.5t59 57.5t21.5 80v69z" />
    <glyph glyph-name="Cacute" unicode="&#x106;" horiz-adv-x="807" 
d="M151 84q-96 94 -96 269q0 171 95.5 264t273.5 93q145 0 236 -61t108 -170h-90q-17 86 -83 134.5t-166 48.5q-130 0 -199.5 -80t-69.5 -229q0 -152 70 -233.5t201 -81.5q100 0 165 48t82 135h90q-17 -109 -108 -170t-234 -61q-179 0 -275 94zM550 924q23 26 53 26
q15 0 23.5 -7.5t8.5 -18.5q0 -21 -38 -47l-153 -107h-35z" />
    <glyph glyph-name="cacute" unicode="&#x107;" horiz-adv-x="633" 
d="M180.5 21q-63.5 31 -97.5 88.5t-34 135.5t34 135.5t97 88.5t148 31q104 0 171.5 -43.5t83.5 -120.5h-75q-14 57 -61.5 90t-114.5 33q-88 0 -139.5 -57.5t-51.5 -156.5t51.5 -156.5t139.5 -57.5q66 0 114 33t62 90h75q-16 -77 -84 -120.5t-170 -43.5q-85 0 -148.5 31z
M441 714q23 26 53 26q15 0 23.5 -7.5t8.5 -18.5q0 -21 -38 -47l-153 -107h-35z" />
    <glyph glyph-name="Ccircumflex" unicode="&#x108;" horiz-adv-x="807" 
d="M151 84q-96 94 -96 269q0 171 95.5 264t273.5 93q145 0 236 -61t108 -170h-90q-17 86 -83 134.5t-166 48.5q-130 0 -199.5 -80t-69.5 -229q0 -152 70 -233.5t201 -81.5q100 0 165 48t82 135h90q-17 -109 -108 -170t-234 -61q-179 0 -275 94zM390 923h70l124 -153h-49
l-110 106l-110 -106h-49z" />
    <glyph glyph-name="ccircumflex" unicode="&#x109;" horiz-adv-x="633" 
d="M180.5 21q-63.5 31 -97.5 88.5t-34 135.5t34 135.5t97 88.5t148 31q104 0 171.5 -43.5t83.5 -120.5h-75q-14 57 -61.5 90t-114.5 33q-88 0 -139.5 -57.5t-51.5 -156.5t51.5 -156.5t139.5 -57.5q66 0 114 33t62 90h75q-16 -77 -84 -120.5t-170 -43.5q-85 0 -148.5 31z
M281 713h70l124 -153h-49l-110 106l-110 -106h-49z" />
    <glyph glyph-name="Cdotaccent" unicode="&#x10a;" horiz-adv-x="807" 
d="M151 84q-96 94 -96 269q0 171 95.5 264t273.5 93q145 0 236 -61t108 -170h-90q-17 86 -83 134.5t-166 48.5q-130 0 -199.5 -80t-69.5 -229q0 -152 70 -233.5t201 -81.5q100 0 165 48t82 135h90q-17 -109 -108 -170t-234 -61q-179 0 -275 94zM387.5 784q-14.5 14 -14.5 36
t15 36.5t37 14.5t37 -14.5t15 -36.5t-14.5 -36t-37.5 -14t-37.5 14z" />
    <glyph glyph-name="cdotaccent" unicode="&#x10b;" horiz-adv-x="633" 
d="M180.5 21q-63.5 31 -97.5 88.5t-34 135.5t34 135.5t97 88.5t148 31q104 0 171.5 -43.5t83.5 -120.5h-75q-14 57 -61.5 90t-114.5 33q-88 0 -139.5 -57.5t-51.5 -156.5t51.5 -156.5t139.5 -57.5q66 0 114 33t62 90h75q-16 -77 -84 -120.5t-170 -43.5q-85 0 -148.5 31z
M278.5 574q-14.5 14 -14.5 36t15 36.5t37 14.5t37 -14.5t15 -36.5t-14.5 -36t-37.5 -14t-37.5 14z" />
    <glyph glyph-name="Ccaron" unicode="&#x10c;" horiz-adv-x="807" 
d="M151 84q-96 94 -96 269q0 171 95.5 264t273.5 93q145 0 236 -61t108 -170h-90q-17 86 -83 134.5t-166 48.5q-130 0 -199.5 -80t-69.5 -229q0 -152 70 -233.5t201 -81.5q100 0 165 48t82 135h90q-17 -109 -108 -170t-234 -61q-179 0 -275 94zM266 923h49l110 -106l110 106
h49l-124 -153h-70z" />
    <glyph glyph-name="ccaron" unicode="&#x10d;" horiz-adv-x="633" 
d="M180.5 21q-63.5 31 -97.5 88.5t-34 135.5t34 135.5t97 88.5t148 31q104 0 171.5 -43.5t83.5 -120.5h-75q-14 57 -61.5 90t-114.5 33q-88 0 -139.5 -57.5t-51.5 -156.5t51.5 -156.5t139.5 -57.5q66 0 114 33t62 90h75q-16 -77 -84 -120.5t-170 -43.5q-85 0 -148.5 31z
M157 713h49l110 -106l110 106h49l-124 -153h-70z" />
    <glyph glyph-name="Dcaron" unicode="&#x10e;" horiz-adv-x="803" 
d="M75 700h272q196 0 298 -86t102 -252q0 -173 -102.5 -267.5t-291.5 -94.5h-278v700zM367 48q133 0 204.5 81t71.5 233q0 143 -70 216.5t-206 73.5h-188v-604h188zM185 923h49l110 -106l110 106h49l-124 -153h-70z" />
    <glyph glyph-name="dcaron" unicode="&#x10f;" horiz-adv-x="751" 
d="M172.5 22.5q-58.5 32.5 -91 90.5t-32.5 132q0 76 31 133.5t87.5 89.5t130.5 32q67 0 119 -26.5t81 -74.5v284h92v-683h-92v89q-28 -48 -77.5 -73.5t-114.5 -25.5q-75 0 -133.5 32.5zM412.5 56.5q40.5 26.5 63 75t22.5 111.5q0 65 -22.5 114.5t-64 76t-95.5 26.5
q-80 0 -127.5 -57.5t-47.5 -155.5q0 -65 22 -114t62.5 -76t93.5 -27t93.5 26.5zM673 486q22 19 39 56.5t16 67.5q-8 -5 -24 -5q-22 0 -36 14.5t-14 37.5t15.5 38t39.5 15q30 0 46 -21t16 -55q0 -46 -25.5 -92.5t-59.5 -67.5z" />
    <glyph glyph-name="Dcroat" unicode="&#x110;" horiz-adv-x="803" 
d="M645 614q102 -86 102 -252q0 -173 -102.5 -267.5t-291.5 -94.5h-278v348h-77v44h77v308h272q196 0 298 -86zM571.5 129q71.5 81 71.5 233q0 143 -70 216.5t-206 73.5h-188v-260h212v-44h-212v-300h188q133 0 204.5 81z" />
    <glyph glyph-name="dcroat" unicode="&#x111;" horiz-adv-x="666" 
d="M656 578h-66v-578h-92v89q-28 -48 -77.5 -73.5t-114.5 -25.5q-75 0 -133.5 32.5t-91 90.5t-32.5 132q0 76 31 133.5t87.5 89.5t130.5 32q67 0 119 -26.5t81 -74.5v179h-166v45h166v60h92v-60h66v-45zM412.5 56.5q40.5 26.5 63 75t22.5 111.5q0 65 -22.5 114.5t-64 76
t-95.5 26.5q-80 0 -127.5 -57.5t-47.5 -155.5q0 -65 22 -114t62.5 -76t93.5 -27t93.5 26.5z" />
    <glyph glyph-name="Emacron" unicode="&#x112;" horiz-adv-x="695" 
d="M74 700h593v-48h-489v-253h432v-47h-432v-304h489v-48h-593v700zM225 834h308v-44h-308v44z" />
    <glyph glyph-name="emacron" unicode="&#x113;" horiz-adv-x="629" 
d="M439.5 64q46.5 33 59.5 90h75q-19 -77 -87 -120.5t-166 -43.5q-82 0 -143.5 31t-95 88.5t-33.5 133.5q0 78 33 136t94.5 89.5t142.5 31.5q122 0 190.5 -66t71.5 -186h-440v-5q0 -99 48 -155.5t136 -56.5q68 0 114.5 33zM200 414.5q-46 -44.5 -56 -125.5h350
q-11 82 -55.5 126t-117.5 44q-75 0 -121 -44.5zM161 624h308v-44h-308v44z" />
    <glyph glyph-name="Ebreve" unicode="&#x114;" horiz-adv-x="695" 
d="M74 700h593v-48h-489v-253h432v-47h-432v-304h489v-48h-593v700zM263.5 803.5q-42.5 37.5 -45.5 102.5h35q5 -44 38.5 -70t87.5 -26t87.5 26t38.5 70h35q-3 -65 -45.5 -102.5t-115.5 -37.5t-115.5 37.5z" />
    <glyph glyph-name="ebreve" unicode="&#x115;" horiz-adv-x="629" 
d="M439.5 64q46.5 33 59.5 90h75q-19 -77 -87 -120.5t-166 -43.5q-82 0 -143.5 31t-95 88.5t-33.5 133.5q0 78 33 136t94.5 89.5t142.5 31.5q122 0 190.5 -66t71.5 -186h-440v-5q0 -99 48 -155.5t136 -56.5q68 0 114.5 33zM200 414.5q-46 -44.5 -56 -125.5h350
q-11 82 -55.5 126t-117.5 44q-75 0 -121 -44.5zM199.5 593.5q-42.5 37.5 -45.5 102.5h35q5 -44 38.5 -70t87.5 -26t87.5 26t38.5 70h35q-3 -65 -45.5 -102.5t-115.5 -37.5t-115.5 37.5z" />
    <glyph glyph-name="Edotaccent" unicode="&#x116;" horiz-adv-x="695" 
d="M74 700h593v-48h-489v-253h432v-47h-432v-304h489v-48h-593v700zM341.5 784q-14.5 14 -14.5 36t15 36.5t37 14.5t37 -14.5t15 -36.5t-14.5 -36t-37.5 -14t-37.5 14z" />
    <glyph glyph-name="edotaccent" unicode="&#x117;" horiz-adv-x="629" 
d="M439.5 64q46.5 33 59.5 90h75q-19 -77 -87 -120.5t-166 -43.5q-82 0 -143.5 31t-95 88.5t-33.5 133.5q0 78 33 136t94.5 89.5t142.5 31.5q122 0 190.5 -66t71.5 -186h-440v-5q0 -99 48 -155.5t136 -56.5q68 0 114.5 33zM200 414.5q-46 -44.5 -56 -125.5h350
q-11 82 -55.5 126t-117.5 44q-75 0 -121 -44.5zM277.5 574q-14.5 14 -14.5 36t15 36.5t37 14.5t37 -14.5t15 -36.5t-14.5 -36t-37.5 -14t-37.5 14z" />
    <glyph glyph-name="Eogonek" unicode="&#x118;" horiz-adv-x="695" 
d="M712 -166q-16 -13 -40.5 -21t-51.5 -8q-50 0 -77.5 25t-27.5 68q0 28 19.5 55t54.5 47h-515v700h593v-48h-489v-253h432v-47h-432v-304h489v-48h-7q-84 -47 -84 -99q0 -27 16.5 -42.5t44.5 -15.5q30 0 66 17z" />
    <glyph glyph-name="eogonek" unicode="&#x119;" horiz-adv-x="629" 
d="M411 -60q0 -27 16.5 -42.5t44.5 -15.5q30 0 66 17l9 -26q-16 -13 -40.5 -21t-51.5 -8q-50 0 -77.5 25t-27.5 68q0 28 20 56q-24 -3 -49 -3q-82 0 -143.5 31t-95 88.5t-33.5 133.5q0 78 33 136t94.5 89.5t142.5 31.5q122 0 190.5 -66t71.5 -186h-440v-5q0 -99 48 -155.5
t136 -56.5q68 0 114.5 33t59.5 90h75q-16 -68 -74 -112l-3 -1q-11 -9 -28 -18q-58 -40 -58 -83zM200 414.5q-46 -44.5 -56 -125.5h350q-11 82 -55.5 126t-117.5 44q-75 0 -121 -44.5z" />
    <glyph glyph-name="Ecaron" unicode="&#x11a;" horiz-adv-x="695" 
d="M74 700h593v-48h-489v-253h432v-47h-432v-304h489v-48h-593v700zM220 923h49l110 -106l110 106h49l-124 -153h-70z" />
    <glyph glyph-name="ecaron" unicode="&#x11b;" horiz-adv-x="629" 
d="M439.5 64q46.5 33 59.5 90h75q-19 -77 -87 -120.5t-166 -43.5q-82 0 -143.5 31t-95 88.5t-33.5 133.5q0 78 33 136t94.5 89.5t142.5 31.5q122 0 190.5 -66t71.5 -186h-440v-5q0 -99 48 -155.5t136 -56.5q68 0 114.5 33zM200 414.5q-46 -44.5 -56 -125.5h350
q-11 82 -55.5 126t-117.5 44q-75 0 -121 -44.5zM156 713h49l110 -106l110 106h49l-124 -153h-70z" />
    <glyph glyph-name="Gcircumflex" unicode="&#x11c;" horiz-adv-x="831" 
d="M234 32.5q-87 42.5 -133 123.5t-46 193t45 193t130 124.5t202 43.5q142 0 233.5 -61.5t110.5 -169.5h-90q-18 88 -83 135.5t-168 47.5q-129 0 -202 -82.5t-73 -229.5q0 -149 74.5 -230.5t209.5 -81.5q63 0 115 13.5t99 42.5v227h-245v45h349v-279q-59 -47 -140.5 -72
t-178.5 -25q-122 0 -209 42.5zM402 923h70l124 -153h-49l-110 106l-110 -106h-49z" />
    <glyph glyph-name="gcircumflex" unicode="&#x11d;" horiz-adv-x="644" 
d="M519 493q-47 0 -80 -13q52 -20 80 -57t28 -89q0 -72 -57.5 -120.5t-173.5 -52.5q-44 -2 -74 -12.5t-30 -25.5q0 -13 19.5 -19.5t49.5 -6.5h43q124 0 191.5 -34.5t67.5 -98.5q0 -48 -34.5 -83.5t-98 -55t-147.5 -19.5q-80 0 -139.5 16.5t-92 46t-32.5 68.5q0 42 40 70.5
t124 39.5q-46 6 -68 23.5t-22 41.5t27 43t71 24q-67 18 -99.5 58t-32.5 98q0 75 64 120t170 45q46 0 80 -7q27 25 62 38t74 13q40 0 66 -9v-57q-33 15 -76 15zM419 235.5q37 32.5 37 95.5q0 62 -37 95t-106 33q-68 0 -105 -33t-37 -95q0 -63 36.5 -95.5t105.5 -32.5
t106 32.5zM169 14.5q-59 -26.5 -59 -72.5q0 -44 53 -71.5t141 -27.5q92 0 147.5 32t55.5 82q0 42 -47.5 63t-126.5 21q-105 0 -164 -26.5zM286 713h70l124 -153h-49l-110 106l-110 -106h-49z" />
    <glyph glyph-name="Gbreve" unicode="&#x11e;" horiz-adv-x="831" 
d="M234 32.5q-87 42.5 -133 123.5t-46 193t45 193t130 124.5t202 43.5q142 0 233.5 -61.5t110.5 -169.5h-90q-18 88 -83 135.5t-168 47.5q-129 0 -202 -82.5t-73 -229.5q0 -149 74.5 -230.5t209.5 -81.5q63 0 115 13.5t99 42.5v227h-245v45h349v-279q-59 -47 -140.5 -72
t-178.5 -25q-122 0 -209 42.5zM321.5 803.5q-42.5 37.5 -45.5 102.5h35q5 -44 38.5 -70t87.5 -26t87.5 26t38.5 70h35q-3 -65 -45.5 -102.5t-115.5 -37.5t-115.5 37.5z" />
    <glyph glyph-name="gbreve" unicode="&#x11f;" horiz-adv-x="644" 
d="M519 493q-47 0 -80 -13q52 -20 80 -57t28 -89q0 -72 -57.5 -120.5t-173.5 -52.5q-44 -2 -74 -12.5t-30 -25.5q0 -13 19.5 -19.5t49.5 -6.5h43q124 0 191.5 -34.5t67.5 -98.5q0 -48 -34.5 -83.5t-98 -55t-147.5 -19.5q-80 0 -139.5 16.5t-92 46t-32.5 68.5q0 42 40 70.5
t124 39.5q-46 6 -68 23.5t-22 41.5t27 43t71 24q-67 18 -99.5 58t-32.5 98q0 75 64 120t170 45q46 0 80 -7q27 25 62 38t74 13q40 0 66 -9v-57q-33 15 -76 15zM419 235.5q37 32.5 37 95.5q0 62 -37 95t-106 33q-68 0 -105 -33t-37 -95q0 -63 36.5 -95.5t105.5 -32.5
t106 32.5zM169 14.5q-59 -26.5 -59 -72.5q0 -44 53 -71.5t141 -27.5q92 0 147.5 32t55.5 82q0 42 -47.5 63t-126.5 21q-105 0 -164 -26.5zM205.5 593.5q-42.5 37.5 -45.5 102.5h35q5 -44 38.5 -70t87.5 -26t87.5 26t38.5 70h35q-3 -65 -45.5 -102.5t-115.5 -37.5
t-115.5 37.5z" />
    <glyph glyph-name="Gdotaccent" unicode="&#x120;" horiz-adv-x="831" 
d="M234 32.5q-87 42.5 -133 123.5t-46 193t45 193t130 124.5t202 43.5q142 0 233.5 -61.5t110.5 -169.5h-90q-18 88 -83 135.5t-168 47.5q-129 0 -202 -82.5t-73 -229.5q0 -149 74.5 -230.5t209.5 -81.5q63 0 115 13.5t99 42.5v227h-245v45h349v-279q-59 -47 -140.5 -72
t-178.5 -25q-122 0 -209 42.5zM399.5 784q-14.5 14 -14.5 36t15 36.5t37 14.5t37 -14.5t15 -36.5t-14.5 -36t-37.5 -14t-37.5 14z" />
    <glyph glyph-name="gdotaccent" unicode="&#x121;" horiz-adv-x="644" 
d="M519 493q-47 0 -80 -13q52 -20 80 -57t28 -89q0 -72 -57.5 -120.5t-173.5 -52.5q-44 -2 -74 -12.5t-30 -25.5q0 -13 19.5 -19.5t49.5 -6.5h43q124 0 191.5 -34.5t67.5 -98.5q0 -48 -34.5 -83.5t-98 -55t-147.5 -19.5q-80 0 -139.5 16.5t-92 46t-32.5 68.5q0 42 40 70.5
t124 39.5q-46 6 -68 23.5t-22 41.5t27 43t71 24q-67 18 -99.5 58t-32.5 98q0 75 64 120t170 45q46 0 80 -7q27 25 62 38t74 13q40 0 66 -9v-57q-33 15 -76 15zM419 235.5q37 32.5 37 95.5q0 62 -37 95t-106 33q-68 0 -105 -33t-37 -95q0 -63 36.5 -95.5t105.5 -32.5
t106 32.5zM169 14.5q-59 -26.5 -59 -72.5q0 -44 53 -71.5t141 -27.5q92 0 147.5 32t55.5 82q0 42 -47.5 63t-126.5 21q-105 0 -164 -26.5zM283.5 574q-14.5 14 -14.5 36t15 36.5t37 14.5t37 -14.5t15 -36.5t-14.5 -36t-37.5 -14t-37.5 14z" />
    <glyph glyph-name="uni0122" unicode="&#x122;" horiz-adv-x="831" 
d="M234 32.5q-87 42.5 -133 123.5t-46 193t45 193t130 124.5t202 43.5q142 0 233.5 -61.5t110.5 -169.5h-90q-18 88 -83 135.5t-168 47.5q-129 0 -202 -82.5t-73 -229.5q0 -149 74.5 -230.5t209.5 -81.5q63 0 115 13.5t99 42.5v227h-245v45h349v-279q-59 -47 -140.5 -72
t-178.5 -25q-122 0 -209 42.5zM405 -267q21 18 36.5 53.5t16.5 67.5q-12 -5 -23 -5q-22 0 -36 15t-14 38t15 37.5t39 14.5q31 0 47 -19.5t16 -56.5q0 -45 -22.5 -88.5t-57.5 -65.5z" />
    <glyph glyph-name="uni0123" unicode="&#x123;" horiz-adv-x="644" 
d="M519 493q-47 0 -80 -13q52 -20 80 -57t28 -89q0 -72 -57.5 -120.5t-173.5 -52.5q-44 -2 -74 -12.5t-30 -25.5q0 -13 19.5 -19.5t49.5 -6.5h43q124 0 191.5 -34.5t67.5 -98.5q0 -48 -34.5 -83.5t-98 -55t-147.5 -19.5q-80 0 -139.5 16.5t-92 46t-32.5 68.5q0 42 40 70.5
t124 39.5q-46 6 -68 23.5t-22 41.5t27 43t71 24q-67 18 -99.5 58t-32.5 98q0 75 64 120t170 45q46 0 80 -7q27 25 62 38t74 13q40 0 66 -9v-57q-33 15 -76 15zM419 235.5q37 32.5 37 95.5q0 62 -37 95t-106 33q-68 0 -105 -33t-37 -95q0 -63 36.5 -95.5t105.5 -32.5
t106 32.5zM169 14.5q-59 -26.5 -59 -72.5q0 -44 53 -71.5t141 -27.5q92 0 147.5 32t55.5 82q0 42 -47.5 63t-126.5 21q-105 0 -164 -26.5zM275.5 580.5q-15.5 20.5 -15.5 54.5q0 47 25.5 93t59.5 67l13 -11q-23 -20 -39.5 -57t-15.5 -68q6 5 24 5q22 0 36 -14.5t14 -37.5
t-15.5 -37.5t-39.5 -14.5q-31 0 -46.5 20.5z" />
    <glyph glyph-name="Hcircumflex" unicode="&#x124;" horiz-adv-x="805" 
d="M74 700h104v-301h449v301h104v-700h-104v352h-449v-352h-104v700zM368 923h70l124 -153h-49l-110 106l-110 -106h-49z" />
    <glyph glyph-name="hcircumflex" unicode="&#x125;" horiz-adv-x="617" 
d="M69 683h92v-287q26 49 77.5 76.5t116.5 27.5q96 0 149.5 -47.5t53.5 -132.5v-320h-92v329q0 62 -34 96t-97 34q-79 0 -126.5 -52t-47.5 -137v-270h-92v683zM274 906h70l124 -153h-49l-110 106l-110 -106h-49z" />
    <glyph glyph-name="Hbar" unicode="&#x126;" horiz-adv-x="826" 
d="M794 519h-51v-519h-104v352h-449v-352h-104v519h-54v45h54v136h104v-136h449v136h104v-136h51v-45zM639 519h-449v-120h449v120z" />
    <glyph glyph-name="hbar" unicode="&#x127;" horiz-adv-x="617" 
d="M504.5 452.5q53.5 -47.5 53.5 -132.5v-320h-92v329q0 62 -34 96t-97 34q-79 0 -126.5 -52t-47.5 -137v-270h-92v578h-59v45h59v60h92v-60h173v-45h-173v-182q26 49 77.5 76.5t116.5 27.5q96 0 149.5 -47.5z" />
    <glyph glyph-name="Itilde" unicode="&#x128;" horiz-adv-x="334" 
d="M115 700h104v-700h-104v700zM21.5 851q28.5 31 74.5 31q28 0 49.5 -10.5t45.5 -29.5q17 -14 31 -22t28 -8q26 0 44.5 19.5t20.5 50.5h26q0 -49 -28.5 -80.5t-73.5 -31.5q-29 0 -48.5 9.5t-42.5 27.5q-16 13 -28 19.5t-28 6.5q-31 0 -51 -17.5t-21 -45.5h-27q0 50 28.5 81
z" />
    <glyph glyph-name="itilde" unicode="&#x129;" horiz-adv-x="284" 
d="M96 490h92v-490h-92v490zM-3.5 641q28.5 31 74.5 31q28 0 49.5 -10.5t45.5 -29.5q17 -14 31 -22t28 -8q26 0 44.5 19.5t20.5 50.5h26q0 -49 -28.5 -80.5t-73.5 -31.5q-29 0 -48.5 9.5t-42.5 27.5q-16 13 -28 19.5t-28 6.5q-31 0 -51 -17.5t-21 -45.5h-27q0 50 28.5 81z
" />
    <glyph glyph-name="Imacron" unicode="&#x12a;" horiz-adv-x="334" 
d="M115 700h104v-700h-104v700zM13 834h308v-44h-308v44z" />
    <glyph glyph-name="imacron" unicode="&#x12b;" horiz-adv-x="284" 
d="M96 490h92v-490h-92v490zM-12 624h308v-44h-308v44z" />
    <glyph glyph-name="Ibreve" unicode="&#x12c;" horiz-adv-x="334" 
d="M115 700h104v-700h-104v700zM51.5 803.5q-42.5 37.5 -45.5 102.5h35q5 -44 38.5 -70t87.5 -26t87.5 26t38.5 70h35q-3 -65 -45.5 -102.5t-115.5 -37.5t-115.5 37.5z" />
    <glyph glyph-name="ibreve" unicode="&#x12d;" horiz-adv-x="284" 
d="M96 490h92v-490h-92v490zM26.5 593.5q-42.5 37.5 -45.5 102.5h35q5 -44 38.5 -70t87.5 -26t87.5 26t38.5 70h35q-3 -65 -45.5 -102.5t-115.5 -37.5t-115.5 37.5z" />
    <glyph glyph-name="Iogonek" unicode="&#x12e;" horiz-adv-x="334" 
d="M260 -170q-16 -13 -40.5 -21t-51.5 -8q-50 0 -77.5 25t-27.5 68q0 30 21 58t60 48h-29v700h104v-700h-6v-1q-89 -49 -89 -102q0 -27 16.5 -42.5t44.5 -15.5q30 0 66 17z" />
    <glyph glyph-name="iogonek" unicode="&#x12f;" horiz-adv-x="275" 
d="M89 568q-19 17 -19 45t19 45t49 17t49 -17t19 -45t-19 -45t-49 -17t-49 17zM225 -169q-16 -13 -40.5 -21t-51.5 -8q-50 0 -77.5 25t-27.5 68q0 29 21 57t58 48h-15v490h92v-490h-6q-89 -49 -89 -102q0 -27 16.5 -42.5t44.5 -15.5q30 0 66 17z" />
    <glyph glyph-name="Idotaccent" unicode="&#x130;" horiz-adv-x="334" 
d="M115 700h104v-700h-104v700zM129.5 784q-14.5 14 -14.5 36t15 36.5t37 14.5t37 -14.5t15 -36.5t-14.5 -36t-37.5 -14t-37.5 14z" />
    <glyph glyph-name="dotlessi" unicode="&#x131;" horiz-adv-x="284" 
d="M96 490h92v-490h-92v490z" />
    <glyph glyph-name="IJ" unicode="&#x132;" horiz-adv-x="865" 
d="M115 700h104v-700h-104v700zM377 35.5q-60 45.5 -65 129.5h95q2 -65 38.5 -96.5t102.5 -31.5q68 0 103.5 39t35.5 116v508h104v-488q0 -108 -62.5 -165t-181.5 -57q-110 0 -170 45.5z" />
    <glyph glyph-name="ij" unicode="&#x133;" horiz-adv-x="568" 
d="M89 568q-19 17 -19 45t19 45t49 17t49 -17t19 -45t-19 -45t-49 -17t-49 17zM92 490h92v-490h-92v490zM381 568q-19 17 -19 45t19 45t49 17t49 -17t19 -45t-19 -45t-49 -17t-49 17zM205 -149l28 49q26 -41 69 -41q42 0 61.5 40.5t19.5 126.5v464h92v-444
q0 -113 -41.5 -171.5t-120.5 -58.5q-67 0 -108 35z" />
    <glyph glyph-name="Jcircumflex" unicode="&#x134;" horiz-adv-x="571" 
d="M83 35.5q-60 45.5 -65 129.5h95q2 -65 38.5 -96.5t102.5 -31.5q68 0 103.5 39t35.5 116v508h104v-488q0 -108 -62.5 -165t-181.5 -57q-110 0 -170 45.5zM310 923h70l124 -153h-49l-110 106l-110 -106h-49z" />
    <glyph glyph-name="jcircumflex" unicode="&#x135;" horiz-adv-x="292" 
d="M-64 -150l24 42q26 -35 66 -35q41 0 61 41.5t20 127.5v464h92v-444q0 -113 -41 -171.5t-120 -58.5q-62 0 -102 34zM120 713h70l124 -153h-49l-110 106l-110 -106h-49z" />
    <glyph glyph-name="uni0136" unicode="&#x136;" horiz-adv-x="705" 
d="M302 344l-124 -124v-220h-104v700h104v-387l391 387h90l-287 -286l318 -414h-123zM311 -267q21 18 36.5 53.5t16.5 67.5q-12 -5 -23 -5q-22 0 -36 15t-14 38t15 37.5t39 14.5q31 0 47 -19.5t16 -56.5q0 -45 -22.5 -88.5t-57.5 -65.5z" />
    <glyph glyph-name="uni0137" unicode="&#x137;" horiz-adv-x="575" 
d="M459 0l-210 265l-88 -77v-188h-92v683h92v-429l275 236h71l-199 -173l251 -317h-100zM245 -267q21 18 36.5 53.5t16.5 67.5q-12 -5 -23 -5q-22 0 -36 15t-14 38t15 37.5t39 14.5q31 0 47 -19.5t16 -56.5q0 -45 -22.5 -88.5t-57.5 -65.5z" />
    <glyph glyph-name="kgreenlandic" unicode="&#x138;" horiz-adv-x="575" 
d="M459 0l-211 261l-87 -77v-184h-92v490h92v-240l275 240h71l-199 -176l251 -314h-100z" />
    <glyph glyph-name="Lacute" unicode="&#x139;" horiz-adv-x="636" 
d="M74 700h104v-652h440v-48h-544v700zM330 924q23 26 53 26q15 0 23.5 -7.5t8.5 -18.5q0 -21 -38 -47l-153 -107h-35z" />
    <glyph glyph-name="lacute" unicode="&#x13a;" horiz-adv-x="284" 
d="M96 683h92v-683h-92v683zM267 907q23 26 53 26q15 0 23.5 -7.5t8.5 -18.5q0 -21 -38 -47l-153 -107h-35z" />
    <glyph glyph-name="uni013B" unicode="&#x13b;" horiz-adv-x="636" 
d="M74 700h104v-652h440v-48h-544v700zM295 -267q21 18 36.5 53.5t16.5 67.5q-12 -5 -23 -5q-22 0 -36 15t-14 38t15 37.5t39 14.5q31 0 47 -19.5t16 -56.5q0 -45 -22.5 -88.5t-57.5 -65.5z" />
    <glyph glyph-name="uni013C" unicode="&#x13c;" horiz-adv-x="284" 
d="M96 683h92v-683h-92v683zM100 -267q21 18 36.5 53.5t16.5 67.5q-12 -5 -23 -5q-22 0 -36 15t-14 38t15 37.5t39 14.5q31 0 47 -19.5t16 -56.5q0 -45 -22.5 -88.5t-57.5 -65.5z" />
    <glyph glyph-name="Lcaron" unicode="&#x13d;" horiz-adv-x="636" 
d="M74 700h104v-652h440v-48h-544v700zM46 923h49l110 -106l110 106h49l-124 -153h-70z" />
    <glyph glyph-name="lcaron" unicode="&#x13e;" horiz-adv-x="363" 
d="M96 683h92v-683h-92v683zM285 486q22 19 39 56.5t16 67.5q-8 -5 -24 -5q-22 0 -36 14.5t-14 37.5t15.5 38t39.5 15q30 0 46 -21t16 -55q0 -46 -25.5 -92.5t-59.5 -67.5z" />
    <glyph glyph-name="Ldot" unicode="&#x13f;" horiz-adv-x="636" 
d="M74 700h104v-652h440v-48h-544v700zM316.5 317.5q-15.5 15.5 -15.5 39.5q0 23 16 38.5t40 15.5q25 0 41 -15.5t16 -38.5q0 -24 -16 -39.5t-41 -15.5t-40.5 15.5z" />
    <glyph glyph-name="ldot" unicode="&#x140;" horiz-adv-x="308" 
d="M96 683h92v-683h-92v683zM248.5 212.5q-15.5 15.5 -15.5 39.5q0 23 16 38.5t40 15.5q25 0 41 -15.5t16 -38.5q0 -24 -16 -39.5t-41 -15.5t-40.5 15.5z" />
    <glyph glyph-name="Lslash" unicode="&#x141;" horiz-adv-x="636" 
d="M618 48v-48h-544v299l-59 -24v50l59 24v351h104v-308l243 100v-50l-243 -100v-294h440z" />
    <glyph glyph-name="lslash" unicode="&#x142;" horiz-adv-x="285" 
d="M265 381l-79 -33v-348h-92v309l-73 -31v50l73 31v324h92v-285l79 34v-51z" />
    <glyph glyph-name="Nacute" unicode="&#x143;" horiz-adv-x="767" 
d="M74 700h105l426 -543v543h88v-700h-52l-479 609v-609h-88v700zM509 924q23 26 53 26q15 0 23.5 -7.5t8.5 -18.5q0 -21 -38 -47l-153 -107h-35z" />
    <glyph glyph-name="nacute" unicode="&#x144;" horiz-adv-x="619" 
d="M70 490h92v-86q24 44 74.5 70t113.5 26q97 0 153 -50.5t56 -136.5v-313h-92v323q0 65 -36 100.5t-102 35.5q-76 0 -121.5 -49.5t-45.5 -130.5v-279h-92v490zM434 714q23 26 53 26q15 0 23.5 -7.5t8.5 -18.5q0 -21 -38 -47l-153 -107h-35z" />
    <glyph glyph-name="uni0145" unicode="&#x145;" horiz-adv-x="767" 
d="M74 700h105l426 -543v543h88v-700h-52l-479 609v-609h-88v700zM342 -267q21 18 36.5 53.5t16.5 67.5q-12 -5 -23 -5q-22 0 -36 15t-14 38t15 37.5t39 14.5q31 0 47 -19.5t16 -56.5q0 -45 -22.5 -88.5t-57.5 -65.5z" />
    <glyph glyph-name="uni0146" unicode="&#x146;" horiz-adv-x="619" 
d="M70 490h92v-86q24 44 74.5 70t113.5 26q97 0 153 -50.5t56 -136.5v-313h-92v323q0 65 -36 100.5t-102 35.5q-76 0 -121.5 -49.5t-45.5 -130.5v-279h-92v490zM267 -267q21 18 36.5 53.5t16.5 67.5q-12 -5 -23 -5q-22 0 -36 15t-14 38t15 37.5t39 14.5q31 0 47 -19.5
t16 -56.5q0 -45 -22.5 -88.5t-57.5 -65.5z" />
    <glyph glyph-name="Ncaron" unicode="&#x147;" horiz-adv-x="767" 
d="M74 700h105l426 -543v543h88v-700h-52l-479 609v-609h-88v700zM225 923h49l110 -106l110 106h49l-124 -153h-70z" />
    <glyph glyph-name="ncaron" unicode="&#x148;" horiz-adv-x="619" 
d="M70 490h92v-86q24 44 74.5 70t113.5 26q97 0 153 -50.5t56 -136.5v-313h-92v323q0 65 -36 100.5t-102 35.5q-76 0 -121.5 -49.5t-45.5 -130.5v-279h-92v490zM150 713h49l110 -106l110 106h49l-124 -153h-70z" />
    <glyph glyph-name="napostrophe" unicode="&#x149;" horiz-adv-x="619" 
d="M70 490h92v-86q24 44 74.5 70t113.5 26q97 0 153 -50.5t56 -136.5v-313h-92v323q0 65 -36 100.5t-102 35.5q-76 0 -121.5 -49.5t-45.5 -130.5v-279h-92v490zM-52 486q22 19 39 56.5t16 67.5q-8 -5 -24 -5q-22 0 -36 14.5t-14 37.5t15.5 38t39.5 15q30 0 46 -21t16 -55
q0 -46 -25.5 -92.5t-59.5 -67.5z" />
    <glyph glyph-name="Eng" unicode="&#x14a;" horiz-adv-x="767" 
d="M462 -208.5q-26 8.5 -47 26.5l28 46q26 -37 67 -37q46 0 70.5 38.5t24.5 111.5v69l-443 563v-609h-88v700h105l426 -543v543h88v-714q0 -97 -45.5 -150t-124.5 -53q-35 0 -61 8.5z" />
    <glyph glyph-name="eng" unicode="&#x14b;" horiz-adv-x="619" 
d="M289 -149l28 49q26 -41 70 -41q80 0 80 152v312q0 65 -36 100.5t-102 35.5q-76 0 -121.5 -49.5t-45.5 -130.5v-279h-92v490h92v-86q24 44 74.5 70t113.5 26q97 0 153 -50.5t56 -136.5v-313q0 -85 -42.5 -134.5t-119.5 -49.5q-69 0 -108 35z" />
    <glyph glyph-name="Omacron" unicode="&#x14c;" horiz-adv-x="865" 
d="M230 33q-85 43 -130 124.5t-45 195.5q0 112 45 192.5t130 122.5t203 42t202.5 -42t129.5 -122.5t45 -192.5q0 -114 -45 -195.5t-129.5 -124.5t-202.5 -43t-203 43zM634 120q71 82 71 233q0 148 -70.5 228.5t-201.5 80.5t-202 -80t-71 -229q0 -151 71 -233t202 -82
q130 0 201 82zM279 834h308v-44h-308v44z" />
    <glyph glyph-name="omacron" unicode="&#x14d;" horiz-adv-x="665" 
d="M183 21.5q-64 31.5 -99 89.5t-35 134t35 134t99 89.5t149 31.5t149.5 -31.5t99.5 -89.5t35 -134t-35 -134t-99.5 -89.5t-149.5 -31.5t-149 31.5zM472 88q51 57 51 157t-51 157t-140 57t-139.5 -57t-50.5 -157t50.5 -157t139.5 -57t140 57zM178 624h308v-44h-308v44z" />
    <glyph glyph-name="Obreve" unicode="&#x14e;" horiz-adv-x="865" 
d="M230 33q-85 43 -130 124.5t-45 195.5q0 112 45 192.5t130 122.5t203 42t202.5 -42t129.5 -122.5t45 -192.5q0 -114 -45 -195.5t-129.5 -124.5t-202.5 -43t-203 43zM634 120q71 82 71 233q0 148 -70.5 228.5t-201.5 80.5t-202 -80t-71 -229q0 -151 71 -233t202 -82
q130 0 201 82zM317.5 803.5q-42.5 37.5 -45.5 102.5h35q5 -44 38.5 -70t87.5 -26t87.5 26t38.5 70h35q-3 -65 -45.5 -102.5t-115.5 -37.5t-115.5 37.5z" />
    <glyph glyph-name="obreve" unicode="&#x14f;" horiz-adv-x="665" 
d="M183 21.5q-64 31.5 -99 89.5t-35 134t35 134t99 89.5t149 31.5t149.5 -31.5t99.5 -89.5t35 -134t-35 -134t-99.5 -89.5t-149.5 -31.5t-149 31.5zM472 88q51 57 51 157t-51 157t-140 57t-139.5 -57t-50.5 -157t50.5 -157t139.5 -57t140 57zM216.5 593.5
q-42.5 37.5 -45.5 102.5h35q5 -44 38.5 -70t87.5 -26t87.5 26t38.5 70h35q-3 -65 -45.5 -102.5t-115.5 -37.5t-115.5 37.5z" />
    <glyph glyph-name="Ohungarumlaut" unicode="&#x150;" horiz-adv-x="865" 
d="M230 33q-85 43 -130 124.5t-45 195.5q0 112 45 192.5t130 122.5t203 42t202.5 -42t129.5 -122.5t45 -192.5q0 -114 -45 -195.5t-129.5 -124.5t-202.5 -43t-203 43zM634 120q71 82 71 233q0 148 -70.5 228.5t-201.5 80.5t-202 -80t-71 -229q0 -151 71 -233t202 -82
q130 0 201 82zM460 924q23 26 53 26q15 0 23.5 -7.5t8.5 -18.5q0 -21 -38 -47l-153 -107h-35zM625 924q23 26 53 26q15 0 23.5 -7.5t8.5 -18.5q0 -21 -38 -47l-153 -107h-35z" />
    <glyph glyph-name="ohungarumlaut" unicode="&#x151;" horiz-adv-x="665" 
d="M183 21.5q-64 31.5 -99 89.5t-35 134t35 134t99 89.5t149 31.5t149.5 -31.5t99.5 -89.5t35 -134t-35 -134t-99.5 -89.5t-149.5 -31.5t-149 31.5zM472 88q51 57 51 157t-51 157t-140 57t-139.5 -57t-50.5 -157t50.5 -157t139.5 -57t140 57zM359 714q23 26 53 26
q15 0 23.5 -7.5t8.5 -18.5q0 -21 -38 -47l-153 -107h-35zM524 714q23 26 53 26q15 0 23.5 -7.5t8.5 -18.5q0 -21 -38 -47l-153 -107h-35z" />
    <glyph glyph-name="OE" unicode="&#x152;" horiz-adv-x="1098" 
d="M729 652v-254h284v-44h-284v-306h341v-48h-445v82q-41 -44 -99.5 -68t-132.5 -24q-102 0 -178.5 44t-118 126t-41.5 192q0 109 41.5 190t118 124.5t178.5 43.5q74 0 132.5 -23.5t99.5 -66.5v80h445v-48h-341zM513.5 73.5q53.5 38.5 82.5 110t29 168.5q0 96 -29 167
t-82.5 109t-125.5 38q-71 0 -122.5 -38t-79 -108.5t-27.5 -167.5q0 -98 27.5 -169.5t79 -109.5t122.5 -38q72 0 125.5 38.5z" />
    <glyph glyph-name="oe" unicode="&#x153;" horiz-adv-x="1031" 
d="M168 21.5q-57 31.5 -88 89t-31 134.5t31.5 134.5t89 89t134.5 31.5q72 0 128 -33t85 -93q29 60 86 93t131 33q118 0 182.5 -65.5t66.5 -186.5h-421v-6q0 -99 45 -155t125 -56q66 0 110.5 32.5t58.5 90.5h75q-19 -79 -80.5 -121.5t-158.5 -42.5q-77 0 -136 33t-87 91
q-30 -59 -85 -91.5t-128 -32.5q-76 0 -133 31.5zM428 89.5q45 58.5 45 155.5t-45 155.5t-120 58.5q-76 0 -121 -58t-45 -156t45 -156t121 -58q75 0 120 58.5zM896 289q-7 81 -50.5 125.5t-113.5 44.5q-72 0 -115 -43.5t-52 -126.5h331z" />
    <glyph glyph-name="Racute" unicode="&#x154;" horiz-adv-x="701" 
d="M650.5 54.5q19.5 -34.5 38.5 -46.5v-8h-109q-17 19 -31.5 48t-31.5 74q-28 74 -57 114.5t-71 53.5h-26h-185v-290h-104v700h289q144 0 222.5 -50.5t78.5 -154.5q0 -155 -175 -193q38 -19 66 -55.5t53 -99.5q23 -58 42.5 -92.5zM365 337q196 0 196 158q0 157 -196 157
h-187v-315h187zM476 924q23 26 53 26q15 0 23.5 -7.5t8.5 -18.5q0 -21 -38 -47l-153 -107h-35z" />
    <glyph glyph-name="racute" unicode="&#x155;" horiz-adv-x="363" 
d="M67 490h92v-105q19 55 60.5 85t100.5 30q23 0 34 -4l-9 -64q-15 8 -42 8q-68 0 -106 -57t-38 -144v-239h-92v490zM330 714q23 26 53 26q15 0 23.5 -7.5t8.5 -18.5q0 -21 -38 -47l-153 -107h-35z" />
    <glyph glyph-name="uni0156" unicode="&#x156;" horiz-adv-x="701" 
d="M650.5 54.5q19.5 -34.5 38.5 -46.5v-8h-109q-17 19 -31.5 48t-31.5 74q-28 74 -57 114.5t-71 53.5h-26h-185v-290h-104v700h289q144 0 222.5 -50.5t78.5 -154.5q0 -155 -175 -193q38 -19 66 -55.5t53 -99.5q23 -58 42.5 -92.5zM365 337q196 0 196 158q0 157 -196 157
h-187v-315h187zM309 -267q21 18 36.5 53.5t16.5 67.5q-12 -5 -23 -5q-22 0 -36 15t-14 38t15 37.5t39 14.5q31 0 47 -19.5t16 -56.5q0 -45 -22.5 -88.5t-57.5 -65.5z" />
    <glyph glyph-name="uni0157" unicode="&#x157;" horiz-adv-x="363" 
d="M67 490h92v-105q19 55 60.5 85t100.5 30q23 0 34 -4l-9 -64q-15 8 -42 8q-68 0 -106 -57t-38 -144v-239h-92v490zM74 -267q21 18 36.5 53.5t16.5 67.5q-12 -5 -23 -5q-22 0 -36 15t-14 38t15 37.5t39 14.5q31 0 47 -19.5t16 -56.5q0 -45 -22.5 -88.5t-57.5 -65.5z" />
    <glyph glyph-name="Rcaron" unicode="&#x158;" horiz-adv-x="701" 
d="M650.5 54.5q19.5 -34.5 38.5 -46.5v-8h-109q-17 19 -31.5 48t-31.5 74q-28 74 -57 114.5t-71 53.5h-26h-185v-290h-104v700h289q144 0 222.5 -50.5t78.5 -154.5q0 -155 -175 -193q38 -19 66 -55.5t53 -99.5q23 -58 42.5 -92.5zM365 337q196 0 196 158q0 157 -196 157
h-187v-315h187zM192 923h49l110 -106l110 106h49l-124 -153h-70z" />
    <glyph glyph-name="rcaron" unicode="&#x159;" horiz-adv-x="363" 
d="M67 490h92v-105q19 55 60.5 85t100.5 30q23 0 34 -4l-9 -64q-15 8 -42 8q-68 0 -106 -57t-38 -144v-239h-92v490zM46 713h49l110 -106l110 106h49l-124 -153h-70z" />
    <glyph glyph-name="Sacute" unicode="&#x15a;" horiz-adv-x="764" 
d="M154 49q-87 59 -96 168h90q7 -92 66.5 -135.5t175.5 -43.5q103 0 157.5 36t54.5 103q0 40 -21 67t-71.5 48t-141.5 39q-145 28 -218.5 72.5t-73.5 125.5q0 90 84 135.5t221 45.5q139 0 216.5 -49.5t89.5 -137.5h-89q-15 73 -70.5 106t-153.5 33q-95 0 -144.5 -31
t-49.5 -86q0 -33 19 -56t66.5 -42t135.5 -37q108 -22 173.5 -48t98.5 -67.5t33 -105.5q0 -94 -84.5 -146.5t-229.5 -52.5q-151 0 -238 59zM508 924q23 26 53 26q15 0 23.5 -7.5t8.5 -18.5q0 -21 -38 -47l-153 -107h-35z" />
    <glyph glyph-name="sacute" unicode="&#x15b;" horiz-adv-x="590" 
d="M126.5 30q-63.5 40 -76.5 112h76q8 -52 52.5 -81.5t117.5 -29.5q69 0 110.5 28t41.5 74q0 37 -36 58.5t-120 35.5t-133.5 31.5t-71.5 43t-22 63.5q0 62 59.5 98.5t166.5 36.5q104 0 168.5 -39.5t74.5 -110.5h-76q-9 51 -52 80t-109 29q-63 0 -101.5 -22.5t-38.5 -60.5
q0 -23 13 -37t47.5 -25t102.5 -23q116 -20 168 -55.5t52 -96.5q0 -70 -65.5 -109.5t-181.5 -39.5q-103 0 -166.5 40zM417 714q23 26 53 26q15 0 23.5 -7.5t8.5 -18.5q0 -21 -38 -47l-153 -107h-35z" />
    <glyph glyph-name="Scircumflex" unicode="&#x15c;" horiz-adv-x="764" 
d="M154 49q-87 59 -96 168h90q7 -92 66.5 -135.5t175.5 -43.5q103 0 157.5 36t54.5 103q0 40 -21 67t-71.5 48t-141.5 39q-145 28 -218.5 72.5t-73.5 125.5q0 90 84 135.5t221 45.5q139 0 216.5 -49.5t89.5 -137.5h-89q-15 73 -70.5 106t-153.5 33q-95 0 -144.5 -31
t-49.5 -86q0 -33 19 -56t66.5 -42t135.5 -37q108 -22 173.5 -48t98.5 -67.5t33 -105.5q0 -94 -84.5 -146.5t-229.5 -52.5q-151 0 -238 59zM348 923h70l124 -153h-49l-110 106l-110 -106h-49z" />
    <glyph glyph-name="scircumflex" unicode="&#x15d;" horiz-adv-x="590" 
d="M126.5 30q-63.5 40 -76.5 112h76q8 -52 52.5 -81.5t117.5 -29.5q69 0 110.5 28t41.5 74q0 37 -36 58.5t-120 35.5t-133.5 31.5t-71.5 43t-22 63.5q0 62 59.5 98.5t166.5 36.5q104 0 168.5 -39.5t74.5 -110.5h-76q-9 51 -52 80t-109 29q-63 0 -101.5 -22.5t-38.5 -60.5
q0 -23 13 -37t47.5 -25t102.5 -23q116 -20 168 -55.5t52 -96.5q0 -70 -65.5 -109.5t-181.5 -39.5q-103 0 -166.5 40zM257 713h70l124 -153h-49l-110 106l-110 -106h-49z" />
    <glyph glyph-name="Scedilla" unicode="&#x15e;" horiz-adv-x="764" 
d="M626.5 46q-79.5 -52 -217.5 -56l-34 -60q48 -2 77.5 -24t29.5 -62q0 -45 -32.5 -68.5t-79.5 -23.5q-63 0 -106 35l22 32q40 -24 77 -24q27 0 43 12t16 36q0 56 -101 52l-7 22l43 74q-135 7 -213 65.5t-86 160.5h90q7 -92 66.5 -135.5t175.5 -43.5q103 0 157.5 36
t54.5 103q0 40 -21 67t-71.5 48t-141.5 39q-145 28 -218.5 72.5t-73.5 125.5q0 90 84 135.5t221 45.5q139 0 216.5 -49.5t89.5 -137.5h-89q-15 73 -70.5 106t-153.5 33q-95 0 -144.5 -31t-49.5 -86q0 -33 19 -56t66.5 -42t135.5 -37q108 -22 173.5 -48t98.5 -67.5t33 -105.5
q0 -91 -79.5 -143z" />
    <glyph glyph-name="scedilla" unicode="&#x15f;" horiz-adv-x="590" 
d="M482.5 34.5q-57.5 -38.5 -161.5 -43.5l-35 -61q48 -2 77.5 -24t29.5 -62q0 -45 -32.5 -68.5t-79.5 -23.5q-63 0 -106 35l22 32q40 -24 77 -24q27 0 43 12t16 36q0 56 -101 52l-7 22l43 74q-92 4 -149 43.5t-69 107.5h76q8 -52 52.5 -81.5t117.5 -29.5q69 0 110.5 28
t41.5 74q0 37 -36 58.5t-120 35.5t-133.5 31.5t-71.5 43t-22 63.5q0 62 59.5 98.5t166.5 36.5q104 0 168.5 -39.5t74.5 -110.5h-76q-9 51 -52 80t-109 29q-63 0 -101.5 -22.5t-38.5 -60.5q0 -23 13 -37t47.5 -25t102.5 -23q116 -20 168 -55.5t52 -96.5q0 -66 -57.5 -104.5z
" />
    <glyph glyph-name="Scaron" unicode="&#x160;" horiz-adv-x="764" 
d="M154 49q-87 59 -96 168h90q7 -92 66.5 -135.5t175.5 -43.5q103 0 157.5 36t54.5 103q0 40 -21 67t-71.5 48t-141.5 39q-145 28 -218.5 72.5t-73.5 125.5q0 90 84 135.5t221 45.5q139 0 216.5 -49.5t89.5 -137.5h-89q-15 73 -70.5 106t-153.5 33q-95 0 -144.5 -31
t-49.5 -86q0 -33 19 -56t66.5 -42t135.5 -37q108 -22 173.5 -48t98.5 -67.5t33 -105.5q0 -94 -84.5 -146.5t-229.5 -52.5q-151 0 -238 59zM224 923h49l110 -106l110 106h49l-124 -153h-70z" />
    <glyph glyph-name="scaron" unicode="&#x161;" horiz-adv-x="590" 
d="M126.5 30q-63.5 40 -76.5 112h76q8 -52 52.5 -81.5t117.5 -29.5q69 0 110.5 28t41.5 74q0 37 -36 58.5t-120 35.5t-133.5 31.5t-71.5 43t-22 63.5q0 62 59.5 98.5t166.5 36.5q104 0 168.5 -39.5t74.5 -110.5h-76q-9 51 -52 80t-109 29q-63 0 -101.5 -22.5t-38.5 -60.5
q0 -23 13 -37t47.5 -25t102.5 -23q116 -20 168 -55.5t52 -96.5q0 -70 -65.5 -109.5t-181.5 -39.5q-103 0 -166.5 40zM133 713h49l110 -106l110 106h49l-124 -153h-70z" />
    <glyph glyph-name="uni0162" unicode="&#x162;" horiz-adv-x="713" 
d="M389 0l-40 -70q48 -2 77.5 -24t29.5 -62q0 -45 -32.5 -68.5t-79.5 -23.5q-63 0 -106 35l22 32q40 -24 77 -24q27 0 43 12t16 36q0 56 -101 52l-7 22l49 83h-32v652h-296v48h695v-48h-295v-652h-20z" />
    <glyph glyph-name="uni0163" unicode="&#x163;" horiz-adv-x="357" 
d="M306.5 -94q29.5 -22 29.5 -62q0 -45 -32.5 -68.5t-79.5 -23.5q-63 0 -106 35l22 32q40 -24 77 -24q27 0 43 12t16 36q0 56 -101 52l-7 22l43 74q-56 5 -83 40.5t-27 105.5v312h-88l14 41h75l36 138h55v-138h137l-13 -41h-124v-326q0 -91 68 -91q36 0 70 19v-43
q-33 -13 -67 -16l-35 -62q48 -2 77.5 -24z" />
    <glyph glyph-name="Tcaron" unicode="&#x164;" horiz-adv-x="713" 
d="M305 652h-296v48h695v-48h-295v-652h-104v652zM198 923h49l110 -106l110 106h49l-124 -153h-70z" />
    <glyph glyph-name="tcaron" unicode="&#x165;" horiz-adv-x="357" 
d="M133 26q-32 36 -32 111v312h-88l14 41h75l36 138h55v-138h137l-13 -41h-124v-326q0 -91 68 -91q36 0 70 19v-43q-42 -18 -101 -18q-65 0 -97 36zM4 851h49l110 -106l110 106h49l-124 -153h-70z" />
    <glyph glyph-name="Tbar" unicode="&#x166;" horiz-adv-x="713" 
d="M409 652v-295h188v-45h-188v-312h-104v312h-192v45h192v295h-296v48h695v-48h-295z" />
    <glyph glyph-name="tbar" unicode="&#x167;" horiz-adv-x="397" 
d="M331 51v-43q-42 -18 -101 -18q-65 0 -97 36t-32 111v117h-83v43h83v152h-88l14 41h75l36 138h55v-138h137l-13 -41h-124v-152h113v-43h-113v-131q0 -91 68 -91q36 0 70 19z" />
    <glyph glyph-name="Utilde" unicode="&#x168;" horiz-adv-x="805" 
d="M151.5 67.5q-77.5 77.5 -77.5 223.5v409h104v-432q0 -112 53 -171t172 -59q117 0 170.5 58t53.5 172v432h104v-409q0 -146 -77 -223.5t-251 -77.5t-251.5 77.5zM257.5 851q28.5 31 74.5 31q28 0 49.5 -10.5t45.5 -29.5q17 -14 31 -22t28 -8q26 0 44.5 19.5t20.5 50.5h26
q0 -49 -28.5 -80.5t-73.5 -31.5q-29 0 -48.5 9.5t-42.5 27.5q-16 13 -28 19.5t-28 6.5q-31 0 -51 -17.5t-21 -45.5h-27q0 50 28.5 81z" />
    <glyph glyph-name="utilde" unicode="&#x169;" horiz-adv-x="617" 
d="M113.5 40.5q-55.5 50.5 -55.5 139.5v310h92v-320q0 -67 35.5 -103t101.5 -36q76 0 122.5 49.5t46.5 130.5v279h92v-490h-92v86q-24 -45 -74 -70.5t-115 -25.5q-98 0 -153.5 50.5zM162.5 641q28.5 31 74.5 31q28 0 49.5 -10.5t45.5 -29.5q17 -14 31 -22t28 -8
q26 0 44.5 19.5t20.5 50.5h26q0 -49 -28.5 -80.5t-73.5 -31.5q-29 0 -48.5 9.5t-42.5 27.5q-16 13 -28 19.5t-28 6.5q-31 0 -51 -17.5t-21 -45.5h-27q0 50 28.5 81z" />
    <glyph glyph-name="Umacron" unicode="&#x16a;" horiz-adv-x="805" 
d="M151.5 67.5q-77.5 77.5 -77.5 223.5v409h104v-432q0 -112 53 -171t172 -59q117 0 170.5 58t53.5 172v432h104v-409q0 -146 -77 -223.5t-251 -77.5t-251.5 77.5zM249 834h308v-44h-308v44z" />
    <glyph glyph-name="umacron" unicode="&#x16b;" horiz-adv-x="617" 
d="M113.5 40.5q-55.5 50.5 -55.5 139.5v310h92v-320q0 -67 35.5 -103t101.5 -36q76 0 122.5 49.5t46.5 130.5v279h92v-490h-92v86q-24 -45 -74 -70.5t-115 -25.5q-98 0 -153.5 50.5zM154 624h308v-44h-308v44z" />
    <glyph glyph-name="Ubreve" unicode="&#x16c;" horiz-adv-x="805" 
d="M151.5 67.5q-77.5 77.5 -77.5 223.5v409h104v-432q0 -112 53 -171t172 -59q117 0 170.5 58t53.5 172v432h104v-409q0 -146 -77 -223.5t-251 -77.5t-251.5 77.5zM287.5 803.5q-42.5 37.5 -45.5 102.5h35q5 -44 38.5 -70t87.5 -26t87.5 26t38.5 70h35q-3 -65 -45.5 -102.5
t-115.5 -37.5t-115.5 37.5z" />
    <glyph glyph-name="ubreve" unicode="&#x16d;" horiz-adv-x="617" 
d="M113.5 40.5q-55.5 50.5 -55.5 139.5v310h92v-320q0 -67 35.5 -103t101.5 -36q76 0 122.5 49.5t46.5 130.5v279h92v-490h-92v86q-24 -45 -74 -70.5t-115 -25.5q-98 0 -153.5 50.5zM192.5 593.5q-42.5 37.5 -45.5 102.5h35q5 -44 38.5 -70t87.5 -26t87.5 26t38.5 70h35
q-3 -65 -45.5 -102.5t-115.5 -37.5t-115.5 37.5z" />
    <glyph glyph-name="Uring" unicode="&#x16e;" horiz-adv-x="805" 
d="M151.5 67.5q-77.5 77.5 -77.5 223.5v409h104v-432q0 -112 53 -171t172 -59q117 0 170.5 58t53.5 172v432h104v-409q0 -146 -77 -223.5t-251 -77.5t-251.5 77.5zM327.5 770.5q-29.5 27.5 -29.5 70.5t29.5 71t75.5 28t75.5 -28t29.5 -71t-29.5 -70.5t-75.5 -27.5
t-75.5 27.5zM448.5 795q17.5 18 17.5 46t-17.5 46t-45.5 18t-45.5 -18t-17.5 -46t17.5 -46t45.5 -18t45.5 18z" />
    <glyph glyph-name="uring" unicode="&#x16f;" horiz-adv-x="617" 
d="M113.5 40.5q-55.5 50.5 -55.5 139.5v310h92v-320q0 -67 35.5 -103t101.5 -36q76 0 122.5 49.5t46.5 130.5v279h92v-490h-92v86q-24 -45 -74 -70.5t-115 -25.5q-98 0 -153.5 50.5zM232.5 560.5q-29.5 27.5 -29.5 70.5t29.5 71t75.5 28t75.5 -28t29.5 -71t-29.5 -70.5
t-75.5 -27.5t-75.5 27.5zM353.5 585q17.5 18 17.5 46t-17.5 46t-45.5 18t-45.5 -18t-17.5 -46t17.5 -46t45.5 -18t45.5 18z" />
    <glyph glyph-name="Uhungarumlaut" unicode="&#x170;" horiz-adv-x="805" 
d="M151.5 67.5q-77.5 77.5 -77.5 223.5v409h104v-432q0 -112 53 -171t172 -59q117 0 170.5 58t53.5 172v432h104v-409q0 -146 -77 -223.5t-251 -77.5t-251.5 77.5zM430 924q23 26 53 26q15 0 23.5 -7.5t8.5 -18.5q0 -21 -38 -47l-153 -107h-35zM595 924q23 26 53 26
q15 0 23.5 -7.5t8.5 -18.5q0 -21 -38 -47l-153 -107h-35z" />
    <glyph glyph-name="uhungarumlaut" unicode="&#x171;" horiz-adv-x="617" 
d="M113.5 40.5q-55.5 50.5 -55.5 139.5v310h92v-320q0 -67 35.5 -103t101.5 -36q76 0 122.5 49.5t46.5 130.5v279h92v-490h-92v86q-24 -45 -74 -70.5t-115 -25.5q-98 0 -153.5 50.5zM335 714q23 26 53 26q15 0 23.5 -7.5t8.5 -18.5q0 -21 -38 -47l-153 -107h-35zM500 714
q23 26 53 26q15 0 23.5 -7.5t8.5 -18.5q0 -21 -38 -47l-153 -107h-35z" />
    <glyph glyph-name="Uogonek" unicode="&#x172;" horiz-adv-x="805" 
d="M731 700v-409q0 -120 -51.5 -194t-165.5 -97q-84 -47 -84 -99q0 -27 16.5 -42.5t44.5 -15.5q30 0 66 17l9 -26q-16 -13 -40.5 -21t-51.5 -8q-50 0 -77.5 25t-27.5 68q0 25 15 49t43 43h-24q-174 0 -251.5 77.5t-77.5 223.5v409h104v-432q0 -112 53 -171t172 -59
q117 0 170.5 58t53.5 172v432h104z" />
    <glyph glyph-name="uogonek" unicode="&#x173;" horiz-adv-x="617" 
d="M592 -170q-16 -13 -40.5 -21t-51.5 -8q-50 0 -77.5 25t-27.5 68q0 30 21 58t60 48h-20v86q-24 -45 -74 -70.5t-115 -25.5q-98 0 -153.5 50.5t-55.5 139.5v310h92v-320q0 -67 35.5 -103t101.5 -36q76 0 122.5 49.5t46.5 130.5v279h92v-490h-3v-1q-89 -49 -89 -102
q0 -27 16.5 -42.5t44.5 -15.5q30 0 66 17z" />
    <glyph glyph-name="Wcircumflex" unicode="&#x174;" horiz-adv-x="994" 
d="M6 700h108l179 -530l190 530h61l193 -551l191 551h61l-244 -710h-54l-198 564l-197 -564h-45zM463 923h70l124 -153h-49l-110 106l-110 -106h-49z" />
    <glyph glyph-name="wcircumflex" unicode="&#x175;" horiz-adv-x="837" 
d="M11 490h97l156 -363l142 373h45l158 -382l161 372h56l-215 -500h-43l-156 373l-142 -373h-41zM384 713h70l124 -153h-49l-110 106l-110 -106h-49z" />
    <glyph glyph-name="Ycircumflex" unicode="&#x176;" horiz-adv-x="724" 
d="M304 304l-300 396h113l255 -335l275 335h73l-312 -381v-319h-104v304zM327 923h70l124 -153h-49l-110 106l-110 -106h-49z" />
    <glyph glyph-name="ycircumflex" unicode="&#x177;" horiz-adv-x="571" 
d="M57.5 -185q-27.5 8 -45.5 22l28 49q11 -15 31.5 -24t39.5 -9q33 0 66.5 21.5t54.5 55.5t21 69q0 34 -16 63l-229 428h102l202 -395l192 395h58l-245 -505q-87 -178 -201 -178q-31 0 -58.5 8zM250 713h70l124 -153h-49l-110 106l-110 -106h-49z" />
    <glyph glyph-name="Ydieresis" unicode="&#x178;" horiz-adv-x="724" 
d="M304 304l-300 396h113l255 -335l275 335h73l-312 -381v-319h-104v304zM212.5 784q-14.5 14 -14.5 36t15 36.5t37 14.5t37 -14.5t15 -36.5t-14.5 -36t-37.5 -14t-37.5 14zM436.5 784q-14.5 14 -14.5 36t15 36.5t37 14.5t37 -14.5t15 -36.5t-14.5 -36t-37.5 -14t-37.5 14z
" />
    <glyph glyph-name="Zacute" unicode="&#x179;" horiz-adv-x="655" 
d="M18 9l486 643h-451v48h584v-9l-486 -643h466v-48h-599v9zM453 924q23 26 53 26q15 0 23.5 -7.5t8.5 -18.5q0 -21 -38 -47l-153 -107h-35z" />
    <glyph glyph-name="zacute" unicode="&#x17a;" horiz-adv-x="544" 
d="M393 449h-330l14 41h439l-364 -449h357l-15 -41h-466zM397 714q23 26 53 26q15 0 23.5 -7.5t8.5 -18.5q0 -21 -38 -47l-153 -107h-35z" />
    <glyph glyph-name="Zdotaccent" unicode="&#x17b;" horiz-adv-x="655" 
d="M18 9l486 643h-451v48h584v-9l-486 -643h466v-48h-599v9zM290.5 784q-14.5 14 -14.5 36t15 36.5t37 14.5t37 -14.5t15 -36.5t-14.5 -36t-37.5 -14t-37.5 14z" />
    <glyph glyph-name="zdotaccent" unicode="&#x17c;" horiz-adv-x="544" 
d="M393 449h-330l14 41h439l-364 -449h357l-15 -41h-466zM234.5 574q-14.5 14 -14.5 36t15 36.5t37 14.5t37 -14.5t15 -36.5t-14.5 -36t-37.5 -14t-37.5 14z" />
    <glyph glyph-name="Zcaron" unicode="&#x17d;" horiz-adv-x="655" 
d="M18 9l486 643h-451v48h584v-9l-486 -643h466v-48h-599v9zM169 923h49l110 -106l110 106h49l-124 -153h-70z" />
    <glyph glyph-name="zcaron" unicode="&#x17e;" horiz-adv-x="544" 
d="M393 449h-330l14 41h439l-364 -449h357l-15 -41h-466zM113 713h49l110 -106l110 106h49l-124 -153h-70z" />
    <glyph glyph-name="uni018F" unicode="&#x18f;" horiz-adv-x="850" 
d="M698 616.5q97 -93.5 97 -263.5q0 -113 -44.5 -195t-128.5 -125t-201 -43q-169 0 -264.5 91.5t-101.5 262.5h637v3q0 155 -68 237t-195 82q-109 0 -179 -47.5t-95 -138.5h-90q27 109 121.5 169.5t237.5 60.5q177 0 274 -93.5zM611 102.5q69 67.5 79 195.5h-531
q12 -131 79 -197t185 -66q119 0 188 67.5z" />
    <glyph glyph-name="florin" unicode="&#x192;" horiz-adv-x="560" 
d="M-69 -208q-30 19 -44 47l51 32q10 -24 28.5 -38.5t46.5 -14.5q45 0 71 41t36 122l60 472h-100l10 35h94l11 71q19 112 70.5 164t143.5 52q46 0 78.5 -19.5t44.5 -46.5l-47 -30q-21 51 -72 51q-46 0 -73.5 -39.5t-38.5 -123.5l-12 -79h104l-8 -35h-101l-58 -463
q-28 -217 -220 -217q-45 0 -75 19z" />
    <glyph glyph-name="Ohorn" unicode="&#x1a0;" horiz-adv-x="865" 
d="M876.5 600.5q-38.5 -46.5 -104.5 -67.5q38 -76 38 -180q0 -114 -45 -195.5t-129.5 -124.5t-202.5 -43t-203 43t-130 124.5t-45 195.5q0 112 45 192.5t130 122.5t203 42q110 0 191.5 -37t128.5 -108q39 20 60.5 60t21.5 86h80q0 -64 -38.5 -110.5zM634 120q71 82 71 233
q0 148 -70.5 228.5t-201.5 80.5t-202 -80t-71 -229q0 -151 71 -233t202 -82q130 0 201 82z" />
    <glyph glyph-name="ohorn" unicode="&#x1a1;" horiz-adv-x="687" 
d="M705 388q-36 -46 -99 -67q10 -34 10 -76q0 -76 -35 -134t-99.5 -89.5t-149.5 -31.5t-149 31.5t-99 89.5t-35 134t35 134t99 89.5t149 31.5q93 0 161 -37.5t99 -104.5q33 21 51 58.5t18 79.5h80q0 -62 -36 -108zM472 88q51 57 51 157t-51 157t-140 57t-139.5 -57
t-50.5 -157t50.5 -157t139.5 -57t140 57z" />
    <glyph glyph-name="Uhorn" unicode="&#x1af;" horiz-adv-x="805" 
d="M853.5 581q-45.5 -49 -122.5 -65v-225q0 -146 -77 -223.5t-251 -77.5t-251.5 77.5t-77.5 223.5v409h104v-432q0 -112 53 -171t172 -59q117 0 170.5 58t53.5 172v432h104v-148q41 18 64.5 59t23.5 89h80q0 -70 -45.5 -119z" />
    <glyph glyph-name="uhorn" unicode="&#x1b0;" horiz-adv-x="664" 
d="M658 376q-40 -47 -110 -67v-309h-92v86q-24 -45 -74 -70.5t-115 -25.5q-98 0 -153.5 50.5t-55.5 139.5v310h92v-320q0 -67 35.5 -103t101.5 -36q76 0 122.5 49.5t46.5 130.5v279h92v-140q33 21 51.5 59t18.5 80h80q0 -66 -40 -113z" />
    <glyph glyph-name="uni01CD" unicode="&#x1cd;" horiz-adv-x="779" 
d="M573 182h-403l-91 -182h-70l364 710h54l343 -710h-112zM550 230l-172 368l-184 -368h356zM235 923h49l110 -106l110 106h49l-124 -153h-70z" />
    <glyph glyph-name="uni01CE" unicode="&#x1ce;" horiz-adv-x="611" 
d="M107.5 29q-50.5 39 -50.5 111q0 77 61 117.5t178 40.5h146v36q0 61 -37 93t-107 32q-66 0 -106 -30.5t-47 -86.5h-72q10 76 70 117t160 41q112 0 171 -45.5t59 -131.5v-162q0 -86 15 -161h-86q-11 45 -14 86q-60 -96 -193 -96q-97 0 -147.5 39zM361.5 50.5
q37.5 21.5 59 57.5t21.5 80v69h-121q-88 0 -130.5 -28.5t-42.5 -87.5q0 -55 33 -83.5t97 -28.5q46 0 83.5 21.5zM146 713h49l110 -106l110 106h49l-124 -153h-70z" />
    <glyph glyph-name="uni01CF" unicode="&#x1cf;" horiz-adv-x="334" 
d="M115 700h104v-700h-104v700zM8 923h49l110 -106l110 106h49l-124 -153h-70z" />
    <glyph glyph-name="uni01D0" unicode="&#x1d0;" horiz-adv-x="284" 
d="M96 490h92v-490h-92v490zM-17 713h49l110 -106l110 106h49l-124 -153h-70z" />
    <glyph glyph-name="uni01D1" unicode="&#x1d1;" horiz-adv-x="865" 
d="M230 33q-85 43 -130 124.5t-45 195.5q0 112 45 192.5t130 122.5t203 42t202.5 -42t129.5 -122.5t45 -192.5q0 -114 -45 -195.5t-129.5 -124.5t-202.5 -43t-203 43zM634 120q71 82 71 233q0 148 -70.5 228.5t-201.5 80.5t-202 -80t-71 -229q0 -151 71 -233t202 -82
q130 0 201 82zM274 923h49l110 -106l110 106h49l-124 -153h-70z" />
    <glyph glyph-name="uni01D2" unicode="&#x1d2;" horiz-adv-x="665" 
d="M183 21.5q-64 31.5 -99 89.5t-35 134t35 134t99 89.5t149 31.5t149.5 -31.5t99.5 -89.5t35 -134t-35 -134t-99.5 -89.5t-149.5 -31.5t-149 31.5zM472 88q51 57 51 157t-51 157t-140 57t-139.5 -57t-50.5 -157t50.5 -157t139.5 -57t140 57zM173 713h49l110 -106l110 106
h49l-124 -153h-70z" />
    <glyph glyph-name="uni01D3" unicode="&#x1d3;" horiz-adv-x="805" 
d="M151.5 67.5q-77.5 77.5 -77.5 223.5v409h104v-432q0 -112 53 -171t172 -59q117 0 170.5 58t53.5 172v432h104v-409q0 -146 -77 -223.5t-251 -77.5t-251.5 77.5zM244 923h49l110 -106l110 106h49l-124 -153h-70z" />
    <glyph glyph-name="uni01D4" unicode="&#x1d4;" horiz-adv-x="617" 
d="M113.5 40.5q-55.5 50.5 -55.5 139.5v310h92v-320q0 -67 35.5 -103t101.5 -36q76 0 122.5 49.5t46.5 130.5v279h92v-490h-92v86q-24 -45 -74 -70.5t-115 -25.5q-98 0 -153.5 50.5zM149 713h49l110 -106l110 106h49l-124 -153h-70z" />
    <glyph glyph-name="uni01D5" unicode="&#x1d5;" horiz-adv-x="805" 
d="M151.5 67.5q-77.5 77.5 -77.5 223.5v409h104v-432q0 -112 53 -171t172 -59q117 0 170.5 58t53.5 172v432h104v-409q0 -146 -77 -223.5t-251 -77.5t-251.5 77.5zM253.5 784q-14.5 14 -14.5 36t15 36.5t37 14.5t37 -14.5t15 -36.5t-14.5 -36t-37.5 -14t-37.5 14zM477.5 784
q-14.5 14 -14.5 36t15 36.5t37 14.5t37 -14.5t15 -36.5t-14.5 -36t-37.5 -14t-37.5 14zM249 984h308v-44h-308v44z" />
    <glyph glyph-name="uni01D6" unicode="&#x1d6;" horiz-adv-x="617" 
d="M113.5 40.5q-55.5 50.5 -55.5 139.5v310h92v-320q0 -67 35.5 -103t101.5 -36q76 0 122.5 49.5t46.5 130.5v279h92v-490h-92v86q-24 -45 -74 -70.5t-115 -25.5q-98 0 -153.5 50.5zM158.5 574q-14.5 14 -14.5 36t15 36.5t37 14.5t37 -14.5t15 -36.5t-14.5 -36t-37.5 -14
t-37.5 14zM382.5 574q-14.5 14 -14.5 36t15 36.5t37 14.5t37 -14.5t15 -36.5t-14.5 -36t-37.5 -14t-37.5 14zM154 754h308v-44h-308v44z" />
    <glyph glyph-name="uni01D7" unicode="&#x1d7;" horiz-adv-x="805" 
d="M151.5 67.5q-77.5 77.5 -77.5 223.5v409h104v-432q0 -112 53 -171t172 -59q117 0 170.5 58t53.5 172v432h104v-409q0 -146 -77 -223.5t-251 -77.5t-251.5 77.5zM476 1013q20 23 40 23q13 0 20 -6t7 -16t-10 -20.5t-34 -30.5l-88 -67h-33zM253.5 784q-14.5 14 -14.5 36
t15 36.5t37 14.5t37 -14.5t15 -36.5t-14.5 -36t-37.5 -14t-37.5 14zM477.5 784q-14.5 14 -14.5 36t15 36.5t37 14.5t37 -14.5t15 -36.5t-14.5 -36t-37.5 -14t-37.5 14z" />
    <glyph glyph-name="uni01D8" unicode="&#x1d8;" horiz-adv-x="617" 
d="M113.5 40.5q-55.5 50.5 -55.5 139.5v310h92v-320q0 -67 35.5 -103t101.5 -36q76 0 122.5 49.5t46.5 130.5v279h92v-490h-92v86q-24 -45 -74 -70.5t-115 -25.5q-98 0 -153.5 50.5zM381 803q20 23 40 23q13 0 20 -6t7 -16t-10 -20.5t-34 -30.5l-88 -67h-33zM158.5 574
q-14.5 14 -14.5 36t15 36.5t37 14.5t37 -14.5t15 -36.5t-14.5 -36t-37.5 -14t-37.5 14zM382.5 574q-14.5 14 -14.5 36t15 36.5t37 14.5t37 -14.5t15 -36.5t-14.5 -36t-37.5 -14t-37.5 14z" />
    <glyph glyph-name="uni01D9" unicode="&#x1d9;" horiz-adv-x="805" 
d="M151.5 67.5q-77.5 77.5 -77.5 223.5v409h104v-432q0 -112 53 -171t172 -59q117 0 170.5 58t53.5 172v432h104v-409q0 -146 -77 -223.5t-251 -77.5t-251.5 77.5zM273 1020h34l95 -82l95 82h34l-96 -119h-66zM253.5 784q-14.5 14 -14.5 36t15 36.5t37 14.5t37 -14.5
t15 -36.5t-14.5 -36t-37.5 -14t-37.5 14zM477.5 784q-14.5 14 -14.5 36t15 36.5t37 14.5t37 -14.5t15 -36.5t-14.5 -36t-37.5 -14t-37.5 14z" />
    <glyph glyph-name="uni01DA" unicode="&#x1da;" horiz-adv-x="617" 
d="M113.5 40.5q-55.5 50.5 -55.5 139.5v310h92v-320q0 -67 35.5 -103t101.5 -36q76 0 122.5 49.5t46.5 130.5v279h92v-490h-92v86q-24 -45 -74 -70.5t-115 -25.5q-98 0 -153.5 50.5zM178 810h34l95 -82l95 82h34l-96 -119h-66zM158.5 574q-14.5 14 -14.5 36t15 36.5t37 14.5
t37 -14.5t15 -36.5t-14.5 -36t-37.5 -14t-37.5 14zM382.5 574q-14.5 14 -14.5 36t15 36.5t37 14.5t37 -14.5t15 -36.5t-14.5 -36t-37.5 -14t-37.5 14z" />
    <glyph glyph-name="uni01DB" unicode="&#x1db;" horiz-adv-x="805" 
d="M151.5 67.5q-77.5 77.5 -77.5 223.5v409h104v-432q0 -112 53 -171t172 -59q117 0 170.5 58t53.5 172v432h104v-409q0 -146 -77 -223.5t-251 -77.5t-251.5 77.5zM299 963q-26 20 -35.5 30t-9.5 20q0 11 7.5 17t20.5 6q21 0 39 -23l98 -117h-33zM253.5 784
q-14.5 14 -14.5 36t15 36.5t37 14.5t37 -14.5t15 -36.5t-14.5 -36t-37.5 -14t-37.5 14zM477.5 784q-14.5 14 -14.5 36t15 36.5t37 14.5t37 -14.5t15 -36.5t-14.5 -36t-37.5 -14t-37.5 14z" />
    <glyph glyph-name="uni01DC" unicode="&#x1dc;" horiz-adv-x="617" 
d="M113.5 40.5q-55.5 50.5 -55.5 139.5v310h92v-320q0 -67 35.5 -103t101.5 -36q76 0 122.5 49.5t46.5 130.5v279h92v-490h-92v86q-24 -45 -74 -70.5t-115 -25.5q-98 0 -153.5 50.5zM204 753q-26 20 -35.5 30t-9.5 20q0 11 7.5 17t20.5 6q21 0 39 -23l98 -117h-33z
M158.5 574q-14.5 14 -14.5 36t15 36.5t37 14.5t37 -14.5t15 -36.5t-14.5 -36t-37.5 -14t-37.5 14zM382.5 574q-14.5 14 -14.5 36t15 36.5t37 14.5t37 -14.5t15 -36.5t-14.5 -36t-37.5 -14t-37.5 14z" />
    <glyph glyph-name="Gcaron" unicode="&#x1e6;" horiz-adv-x="831" 
d="M234 32.5q-87 42.5 -133 123.5t-46 193t45 193t130 124.5t202 43.5q142 0 233.5 -61.5t110.5 -169.5h-90q-18 88 -83 135.5t-168 47.5q-129 0 -202 -82.5t-73 -229.5q0 -149 74.5 -230.5t209.5 -81.5q63 0 115 13.5t99 42.5v227h-245v45h349v-279q-59 -47 -140.5 -72
t-178.5 -25q-122 0 -209 42.5zM278 923h49l110 -106l110 106h49l-124 -153h-70z" />
    <glyph glyph-name="gcaron" unicode="&#x1e7;" horiz-adv-x="644" 
d="M519 493q-47 0 -80 -13q52 -20 80 -57t28 -89q0 -72 -57.5 -120.5t-173.5 -52.5q-44 -2 -74 -12.5t-30 -25.5q0 -13 19.5 -19.5t49.5 -6.5h43q124 0 191.5 -34.5t67.5 -98.5q0 -48 -34.5 -83.5t-98 -55t-147.5 -19.5q-80 0 -139.5 16.5t-92 46t-32.5 68.5q0 42 40 70.5
t124 39.5q-46 6 -68 23.5t-22 41.5t27 43t71 24q-67 18 -99.5 58t-32.5 98q0 75 64 120t170 45q46 0 80 -7q27 25 62 38t74 13q40 0 66 -9v-57q-33 15 -76 15zM419 235.5q37 32.5 37 95.5q0 62 -37 95t-106 33q-68 0 -105 -33t-37 -95q0 -63 36.5 -95.5t105.5 -32.5
t106 32.5zM169 14.5q-59 -26.5 -59 -72.5q0 -44 53 -71.5t141 -27.5q92 0 147.5 32t55.5 82q0 42 -47.5 63t-126.5 21q-105 0 -164 -26.5zM162 713h49l110 -106l110 106h49l-124 -153h-70z" />
    <glyph glyph-name="Aringacute" unicode="&#x1fa;" horiz-adv-x="779" 
d="M573 182h-403l-91 -182h-70l364 710h54l343 -710h-112zM550 230l-172 368l-184 -368h356zM474 1089q20 23 39 23q14 0 22 -6.5t8 -16.5t-11 -20.5t-36 -29.5l-87 -64h-33zM318.5 770.5q-29.5 27.5 -29.5 70.5t29.5 71t75.5 28t75.5 -28t29.5 -71t-29.5 -70.5t-75.5 -27.5
t-75.5 27.5zM439.5 795q17.5 18 17.5 46t-17.5 46t-45.5 18t-45.5 -18t-17.5 -46t17.5 -46t45.5 -18t45.5 18z" />
    <glyph glyph-name="aringacute" unicode="&#x1fb;" horiz-adv-x="611" 
d="M107.5 29q-50.5 39 -50.5 111q0 77 61 117.5t178 40.5h146v36q0 61 -37 93t-107 32q-66 0 -106 -30.5t-47 -86.5h-72q10 76 70 117t160 41q112 0 171 -45.5t59 -131.5v-162q0 -86 15 -161h-86q-11 45 -14 86q-60 -96 -193 -96q-97 0 -147.5 39zM361.5 50.5
q37.5 21.5 59 57.5t21.5 80v69h-121q-88 0 -130.5 -28.5t-42.5 -87.5q0 -55 33 -83.5t97 -28.5q46 0 83.5 21.5zM385 879q20 23 39 23q14 0 22 -6.5t8 -16.5t-11 -20.5t-36 -29.5l-87 -64h-33zM229.5 560.5q-29.5 27.5 -29.5 70.5t29.5 71t75.5 28t75.5 -28t29.5 -71
t-29.5 -70.5t-75.5 -27.5t-75.5 27.5zM350.5 585q17.5 18 17.5 46t-17.5 46t-45.5 18t-45.5 -18t-17.5 -46t17.5 -46t45.5 -18t45.5 18z" />
    <glyph glyph-name="AEacute" unicode="&#x1fc;" horiz-adv-x="991" 
d="M621 654v-257h285v-43h-285v-310h342v-44h-440v183h-310l-119 -183h-86l457 700h498v-46h-342zM523 226v428h-3l-279 -428h282zM708 920q23 26 53 26q15 0 23.5 -7.5t8.5 -18.5q0 -21 -38 -47l-153 -107h-35z" />
    <glyph glyph-name="aeacute" unicode="&#x1fd;" horiz-adv-x="956" 
d="M95.5 29q-50.5 39 -50.5 111q0 148 241 148h129v46q0 60 -34 92.5t-100 32.5q-65 0 -102.5 -30t-44.5 -87h-72q11 76 68.5 117t153.5 41q71 0 119 -27.5t67 -77.5q28 49 82.5 77t119.5 28q115 0 179.5 -66t67.5 -186h-421v-1q0 -100 47 -158t127 -58q63 0 107 33t58 90
h75q-18 -77 -81 -120.5t-157 -43.5q-72 0 -128 31t-83 87q-27 -58 -85 -88t-139 -30q-93 0 -143.5 39zM831 289q-7 82 -49.5 126t-113.5 44q-70 0 -114.5 -45t-52.5 -125h330zM370 70.5q45 41.5 45 108.5v68h-115q-86 0 -124.5 -25.5t-38.5 -81.5q0 -53 30 -82t86 -29
q72 0 117 41.5zM603 710q23 26 53 26q15 0 23.5 -7.5t8.5 -18.5q0 -21 -38 -47l-153 -107h-35z" />
    <glyph glyph-name="Oslashacute" unicode="&#x1fe;" horiz-adv-x="865" 
d="M775 525.5q35 -74.5 35 -172.5q0 -114 -45 -195.5t-129.5 -124.5t-202.5 -43q-116 0 -202 42l-60 -82h-59l77 107q-65 46 -99.5 121t-34.5 175q0 112 45 192.5t130 122.5t203 42q115 0 200 -41l51 71h59l-69 -95q66 -45 101 -119.5zM178.5 217.5q18.5 -59.5 54.5 -99.5
l362 499q-64 45 -162 45q-131 0 -202 -80t-71 -229q0 -76 18.5 -135.5zM634 120q71 82 71 233q0 152 -74 232l-362 -500q65 -47 164 -47q130 0 201 82zM558 924q23 26 53 26q15 0 23.5 -7.5t8.5 -18.5q0 -21 -38 -47l-153 -107h-35z" />
    <glyph glyph-name="oslashacute" unicode="&#x1ff;" horiz-adv-x="665" 
d="M592.5 357.5q23.5 -50.5 23.5 -112.5q0 -76 -35 -134t-99.5 -89.5t-149.5 -31.5q-65 0 -120 19l-43 -59h-55l56 78q-58 33 -89.5 88.5t-31.5 128.5q0 76 35 134t99 89.5t149 31.5q89 0 155 -34l45 62h55l-62 -86q44 -34 67.5 -84.5zM205 76l248 343q-48 40 -121 40
q-89 0 -139.5 -57t-50.5 -157q0 -112 63 -169zM472 88q51 57 51 157q0 85 -39 141l-242 -335q40 -20 90 -20q89 0 140 57zM457 714q23 26 53 26q15 0 23.5 -7.5t8.5 -18.5q0 -21 -38 -47l-153 -107h-35z" />
    <glyph glyph-name="uni0218" unicode="&#x218;" horiz-adv-x="764" 
d="M154 49q-87 59 -96 168h90q7 -92 66.5 -135.5t175.5 -43.5q103 0 157.5 36t54.5 103q0 40 -21 67t-71.5 48t-141.5 39q-145 28 -218.5 72.5t-73.5 125.5q0 90 84 135.5t221 45.5q139 0 216.5 -49.5t89.5 -137.5h-89q-15 73 -70.5 106t-153.5 33q-95 0 -144.5 -31
t-49.5 -86q0 -33 19 -56t66.5 -42t135.5 -37q108 -22 173.5 -48t98.5 -67.5t33 -105.5q0 -94 -84.5 -146.5t-229.5 -52.5q-151 0 -238 59zM341 -267q21 18 36.5 53.5t16.5 67.5q-12 -5 -23 -5q-22 0 -36 15t-14 38t15 37.5t39 14.5q31 0 47 -19.5t16 -56.5
q0 -45 -22.5 -88.5t-57.5 -65.5z" />
    <glyph glyph-name="uni0219" unicode="&#x219;" horiz-adv-x="590" 
d="M126.5 30q-63.5 40 -76.5 112h76q8 -52 52.5 -81.5t117.5 -29.5q69 0 110.5 28t41.5 74q0 37 -36 58.5t-120 35.5t-133.5 31.5t-71.5 43t-22 63.5q0 62 59.5 98.5t166.5 36.5q104 0 168.5 -39.5t74.5 -110.5h-76q-9 51 -52 80t-109 29q-63 0 -101.5 -22.5t-38.5 -60.5
q0 -23 13 -37t47.5 -25t102.5 -23q116 -20 168 -55.5t52 -96.5q0 -70 -65.5 -109.5t-181.5 -39.5q-103 0 -166.5 40zM252 -267q21 18 36.5 53.5t16.5 67.5q-12 -5 -23 -5q-22 0 -36 15t-14 38t15 37.5t39 14.5q31 0 47 -19.5t16 -56.5q0 -45 -22.5 -88.5t-57.5 -65.5z" />
    <glyph glyph-name="uni021A" unicode="&#x21a;" horiz-adv-x="713" 
d="M305 652h-296v48h695v-48h-295v-652h-104v652zM315 -267q21 18 36.5 53.5t16.5 67.5q-12 -5 -23 -5q-22 0 -36 15t-14 38t15 37.5t39 14.5q31 0 47 -19.5t16 -56.5q0 -45 -22.5 -88.5t-57.5 -65.5z" />
    <glyph glyph-name="uni021B" unicode="&#x21b;" horiz-adv-x="357" 
d="M133 26q-32 36 -32 111v312h-88l14 41h75l36 138h55v-138h137l-13 -41h-124v-326q0 -91 68 -91q36 0 70 19v-43q-42 -18 -101 -18q-65 0 -97 36zM195 -267q21 18 36.5 53.5t16.5 67.5q-12 -5 -23 -5q-22 0 -36 15t-14 38t15 37.5t39 14.5q31 0 47 -19.5t16 -56.5
q0 -45 -22.5 -88.5t-57.5 -65.5z" />
    <glyph glyph-name="uni0237" unicode="&#x237;" horiz-adv-x="292" 
d="M-64 -150l24 42q26 -35 66 -35q41 0 61 41.5t20 127.5v464h92v-444q0 -113 -41 -171.5t-120 -58.5q-62 0 -102 34z" />
    <glyph glyph-name="uni0251" unicode="&#x251;" horiz-adv-x="659" 
d="M172.5 22.5q-58.5 32.5 -91 90.5t-32.5 132q0 76 31 133.5t87.5 89.5t130.5 32q67 0 119 -26.5t81 -74.5v91h92v-490h-92v89q-28 -48 -77.5 -73.5t-114.5 -25.5q-75 0 -133.5 32.5zM412.5 56.5q40.5 26.5 63 75t22.5 111.5q0 65 -22.5 114.5t-64 76t-95.5 26.5
q-80 0 -127.5 -57.5t-47.5 -155.5q0 -65 22 -114t62.5 -76t93.5 -27t93.5 26.5z" />
    <glyph glyph-name="uni0259" unicode="&#x259;" horiz-adv-x="629" 
d="M451.5 469q61.5 -31 95 -88.5t33.5 -133.5q0 -78 -33 -136t-94.5 -89.5t-142.5 -31.5q-122 0 -190.5 66t-71.5 186h440v5q0 99 -48 155.5t-136 56.5q-68 0 -114.5 -33t-59.5 -90h-75q19 77 87 120.5t166 43.5q82 0 143.5 -31zM429 75.5q46 44.5 56 125.5h-350
q11 -82 55.5 -126t117.5 -44q75 0 121 44.5z" />
    <glyph glyph-name="uni02BB" unicode="&#x2bb;" horiz-adv-x="500" 
d="M204.5 580.5q-15.5 20.5 -15.5 54.5q0 47 25.5 93t59.5 67l13 -11q-23 -20 -39.5 -57t-15.5 -68q6 5 24 5q22 0 36 -14.5t14 -37.5t-15.5 -37.5t-39.5 -14.5q-31 0 -46.5 20.5z" />
    <glyph glyph-name="uni02BC" unicode="&#x2bc;" horiz-adv-x="500" 
d="M214 486q22 19 39 56.5t16 67.5q-8 -5 -24 -5q-22 0 -36 14.5t-14 37.5t15.5 38t39.5 15q30 0 46 -21t16 -55q0 -46 -25.5 -92.5t-59.5 -67.5z" />
    <glyph glyph-name="uni02BE" unicode="&#x2be;" 
d="M0 567q28 0 45.5 18t17.5 46t-17.5 46t-45.5 18v35q46 0 75.5 -28t29.5 -71t-29.5 -70.5t-75.5 -27.5v34z" />
    <glyph glyph-name="uni02BF" unicode="&#x2bf;" 
d="M-75.5 560.5q-29.5 27.5 -29.5 70.5t29.5 71t75.5 28v-35q-28 0 -45.5 -18t-17.5 -46t17.5 -46t45.5 -18v-34q-46 0 -75.5 27.5z" />
    <glyph glyph-name="circumflex" unicode="&#x2c6;" horiz-adv-x="500" 
d="M215 713h70l124 -153h-49l-110 106l-110 -106h-49z" />
    <glyph glyph-name="caron" unicode="&#x2c7;" horiz-adv-x="500" 
d="M91 713h49l110 -106l110 106h49l-124 -153h-70z" />
    <glyph glyph-name="uni02C8" unicode="&#x2c8;" 
d="M-31 751h62v-151h-62v151z" />
    <glyph glyph-name="uni02C9" unicode="&#x2c9;" horiz-adv-x="500" 
d="M100 610h300v-36h-300v36z" />
    <glyph glyph-name="uni02CA" unicode="&#x2ca;" 
d="M-98 580l123 134q23 26 54 26q14 0 23 -7.5t9 -18.5q0 -21 -39 -47l-152 -107z" />
    <glyph glyph-name="uni02CB" unicode="&#x2cb;" 
d="M-72 667q-38 26 -38 47q0 11 8.5 18.5t23.5 7.5q30 0 53 -26l123 -134l-17 -20z" />
    <glyph glyph-name="uni02CC" unicode="&#x2cc;" 
d="M-31 -20h62v-151h-62v151z" />
    <glyph glyph-name="breve" unicode="&#x2d8;" horiz-adv-x="500" 
d="M134.5 593.5q-42.5 37.5 -45.5 102.5h35q5 -44 38.5 -70t87.5 -26t87.5 26t38.5 70h35q-3 -65 -45.5 -102.5t-115.5 -37.5t-115.5 37.5z" />
    <glyph glyph-name="dotaccent" unicode="&#x2d9;" horiz-adv-x="500" 
d="M212.5 574q-14.5 14 -14.5 36t15 36.5t37 14.5t37 -14.5t15 -36.5t-14.5 -36t-37.5 -14t-37.5 14z" />
    <glyph glyph-name="ring" unicode="&#x2da;" horiz-adv-x="500" 
d="M174.5 560.5q-29.5 27.5 -29.5 70.5t29.5 71t75.5 28t75.5 -28t29.5 -71t-29.5 -70.5t-75.5 -27.5t-75.5 27.5zM295.5 585q17.5 18 17.5 46t-17.5 46t-45.5 18t-45.5 -18t-17.5 -46t17.5 -46t45.5 -18t45.5 18z" />
    <glyph glyph-name="ogonek" unicode="&#x2db;" horiz-adv-x="500" 
d="M178.5 -178q-25.5 27 -25.5 66q0 36 26.5 65.5t74.5 49.5h49v-10q-43 -23 -66 -49.5t-23 -54.5q0 -26 16.5 -41t43.5 -15q33 0 67 17l8 -26q-34 -29 -91 -29q-54 0 -79.5 27z" />
    <glyph glyph-name="tilde" unicode="&#x2dc;" horiz-adv-x="500" 
d="M104.5 641q28.5 31 74.5 31q28 0 49.5 -10.5t45.5 -29.5q17 -14 31 -22t28 -8q26 0 44.5 19.5t20.5 50.5h26q0 -49 -28.5 -80.5t-73.5 -31.5q-29 0 -48.5 9.5t-42.5 27.5q-16 13 -28 19.5t-28 6.5q-31 0 -51 -17.5t-21 -45.5h-27q0 50 28.5 81z" />
    <glyph glyph-name="hungarumlaut" unicode="&#x2dd;" horiz-adv-x="500" 
d="M194 714q23 26 53 26q15 0 23.5 -7.5t8.5 -18.5q0 -21 -38 -47l-153 -107h-35zM366 714q23 26 53 26q15 0 23.5 -7.5t8.5 -18.5q0 -21 -38 -47l-153 -107h-35z" />
    <glyph glyph-name="gravecomb" unicode="&#x300;" 
d="M-422 667q-38 26 -38 47q0 11 8.5 18.5t23.5 7.5q30 0 53 -26l141 -154h-35z" />
    <glyph glyph-name="acutecomb" unicode="&#x301;" 
d="M-125 714q23 26 53 26q15 0 23.5 -7.5t8.5 -18.5q0 -21 -38 -47l-153 -107h-35z" />
    <glyph glyph-name="uni0302" unicode="&#x302;" 
d="M-35 713h70l124 -153h-49l-110 106l-110 -106h-49z" />
    <glyph glyph-name="tildecomb" unicode="&#x303;" 
d="M-145.5 641q28.5 31 74.5 31q28 0 49.5 -10.5t45.5 -29.5q17 -14 31 -22t28 -8q26 0 44.5 19.5t20.5 50.5h26q0 -49 -28.5 -80.5t-73.5 -31.5q-29 0 -48.5 9.5t-42.5 27.5q-16 13 -28 19.5t-28 6.5q-31 0 -51 -17.5t-21 -45.5h-27q0 50 28.5 81z" />
    <glyph glyph-name="uni0304" unicode="&#x304;" 
d="M-154 624h308v-44h-308v44z" />
    <glyph glyph-name="uni0306" unicode="&#x306;" 
d="M-115.5 593.5q-42.5 37.5 -45.5 102.5h35q5 -44 38.5 -70t87.5 -26t87.5 26t38.5 70h35q-3 -65 -45.5 -102.5t-115.5 -37.5t-115.5 37.5z" />
    <glyph glyph-name="uni0307" unicode="&#x307;" 
d="M-37.5 574q-14.5 14 -14.5 36t15 36.5t37 14.5t37 -14.5t15 -36.5t-14.5 -36t-37.5 -14t-37.5 14z" />
    <glyph glyph-name="uni0308" unicode="&#x308;" 
d="M-149.5 574q-14.5 14 -14.5 36t15 36.5t37 14.5t37 -14.5t15 -36.5t-14.5 -36t-37.5 -14t-37.5 14zM74.5 574q-14.5 14 -14.5 36t15 36.5t37 14.5t37 -14.5t15 -36.5t-14.5 -36t-37.5 -14t-37.5 14z" />
    <glyph glyph-name="hookabovecomb" unicode="&#x309;" 
d="M-283 578q0 21 12.5 34.5t35.5 28.5t35 28t12 34q0 19 -13.5 29.5t-37.5 10.5t-38.5 -11.5t-18.5 -32.5h-50q2 37 31.5 60t76.5 23q46 0 75 -22t29 -58q0 -29 -14.5 -45.5t-40.5 -32.5q-19 -13 -28.5 -22.5t-9.5 -23.5q0 -10 4 -18h-56q-4 12 -4 18z" />
    <glyph glyph-name="uni030A" unicode="&#x30a;" 
d="M-75.5 560.5q-29.5 27.5 -29.5 70.5t29.5 71t75.5 28t75.5 -28t29.5 -71t-29.5 -70.5t-75.5 -27.5t-75.5 27.5zM45.5 585q17.5 18 17.5 46t-17.5 46t-45.5 18t-45.5 -18t-17.5 -46t17.5 -46t45.5 -18t45.5 18z" />
    <glyph glyph-name="uni030B" unicode="&#x30b;" 
d="M27 714q23 26 53 26q15 0 23.5 -7.5t8.5 -18.5q0 -21 -38 -47l-153 -107h-35zM192 714q23 26 53 26q15 0 23.5 -7.5t8.5 -18.5q0 -21 -38 -47l-153 -107h-35z" />
    <glyph glyph-name="uni030C" unicode="&#x30c;" 
d="M-159 713h49l110 -106l110 106h49l-124 -153h-70z" />
    <glyph glyph-name="uni031B" unicode="&#x31b;" 
d="M-73 349q53 11 84 56.5t31 100.5h80q0 -76 -53 -127t-142 -62v32z" />
    <glyph glyph-name="dotbelowcomb" unicode="&#x323;" 
d="M-287.5 -132.5q-14.5 14.5 -14.5 36.5t14.5 36t37.5 14t37.5 -14t14.5 -36t-14.5 -36.5t-37.5 -14.5t-37.5 14.5z" />
    <glyph glyph-name="uni0324" unicode="&#x324;" 
d="M-149.5 -132.5q-14.5 14.5 -14.5 36.5t14.5 36t37.5 14t37.5 -14t14.5 -36t-14.5 -36.5t-37.5 -14.5t-37.5 14.5zM74.5 -132.5q-14.5 14.5 -14.5 36.5t14.5 36t37.5 14t37.5 -14t14.5 -36t-14.5 -36.5t-37.5 -14.5t-37.5 14.5z" />
    <glyph glyph-name="uni0326" unicode="&#x326;" 
d="M-292 -267q21 18 36.5 53.5t16.5 67.5q-12 -5 -23 -5q-22 0 -36 15t-14 38t15 37.5t39 14.5q31 0 47 -19.5t16 -56.5q0 -45 -22.5 -88.5t-57.5 -65.5z" />
    <glyph glyph-name="uni0327" unicode="&#x327;" 
d="M-118 -213l22 32q40 -24 77 -24q27 0 43 12t16 36q0 56 -101 52l-7 22l53 90h52l-44 -77q48 -2 77.5 -24t29.5 -62q0 -45 -32.5 -68.5t-79.5 -23.5q-63 0 -106 35z" />
    <glyph glyph-name="uni0328" unicode="&#x328;" 
d="M-81.5 -180q-27.5 25 -27.5 68q0 34 27 65t74 50h49v-10q-89 -49 -89 -102q0 -27 16.5 -42.5t44.5 -15.5q30 0 66 17l9 -26q-16 -13 -40.5 -21t-51.5 -8q-50 0 -77.5 25z" />
    <glyph glyph-name="uni032E" unicode="&#x32e;" 
d="M-115.5 -152.5q-42.5 37.5 -45.5 102.5h35q5 -44 38.5 -69.5t87.5 -25.5t87.5 25.5t38.5 69.5h35q-3 -65 -45.5 -102.5t-115.5 -37.5t-115.5 37.5z" />
    <glyph glyph-name="uni0331" unicode="&#x331;" 
d="M-154 -80h308v-44h-308v44z" />
    <glyph glyph-name="uni0394" unicode="&#x394;" horiz-adv-x="653" 
d="M308 719l345 -719h-653zM518 61l-228 496l-207 -496h435z" />
    <glyph glyph-name="uni03A9" unicode="&#x3a9;" horiz-adv-x="876" 
d="M46 53h220q-81 52 -129 142t-48 189q0 94 44.5 168t124 115t180.5 41t180.5 -41t124 -115t44.5 -168q0 -99 -48 -189t-129 -142h220l-12 -51h-301l-11 18q96 92 142 181.5t46 184.5q0 82 -32 145t-90 98t-134 35t-134 -35t-90 -98t-32 -145q0 -95 46 -184.5t142 -181.5
l-11 -18h-301z" />
    <glyph glyph-name="uni03BC" unicode="&#x3bc;" horiz-adv-x="617" 
d="M548 490v-490h-92v86q-24 -45 -74 -70.5t-115 -25.5q-69 0 -121 27v-217h-88v690h92v-320q0 -67 35.5 -103t101.5 -36q76 0 122.5 49.5t46.5 130.5v279h92z" />
    <glyph glyph-name="pi" unicode="&#x3c0;" horiz-adv-x="685" 
d="M474 14.5q-23 24.5 -23 83.5v346h-217v-444h-96v444h-116v46h640v-46h-116v-340q0 -31 10 -44t31 -13q16 0 52 15v-50q-43 -22 -86 -22q-56 0 -79 24.5z" />
    <glyph glyph-name="uni0E01" unicode="&#xe01;" horiz-adv-x="661" 
d="M73 222q0 47 21.5 79t62.5 46h-115q3 68 39 118.5t99 77.5t145 27q79 0 139 -24t92.5 -68.5t32.5 -102.5v-375h-96v385q0 70 -45.5 110t-123.5 40q-82 0 -133 -40.5t-57 -111.5h131v-32q-50 -10 -73 -36t-23 -74v-241h-96v222z" />
    <glyph glyph-name="uni0E02" unicode="&#xe02;" horiz-adv-x="655" 
d="M126 208q96 29 143 74.5t47 110.5q0 62 -35.5 100.5t-91.5 38.5q-37 0 -67 -17t-41 -44q11 9 28.5 14.5t35.5 5.5q48 0 79 -30.5t31 -78.5t-32 -79t-82 -31q-58 0 -94 38.5t-36 99.5q0 73 50.5 116.5t135.5 43.5q89 0 142 -47.5t53 -126.5q0 -138 -170 -201v-153h265v518
h96v-560h-457v208zM198.5 326q21.5 22 21.5 56t-22 56t-56 22t-56 -22t-22 -56t22 -56t56 -22q35 0 56.5 22z" />
    <glyph glyph-name="uni0E03" unicode="&#xe03;" horiz-adv-x="689" 
d="M160 208q98 29 150.5 85t52.5 130q0 50 -18 79.5t-48 29.5q-17 0 -30 -11.5t-19 -30.5h-25q-7 19 -23.5 30.5t-37.5 11.5q-29 0 -53.5 -23.5t-31.5 -59.5q10 10 28.5 16t38.5 6q48 0 78.5 -30t30.5 -79t-31.5 -79.5t-81.5 -30.5q-59 0 -94 39t-35 104q0 50 19 90
t52.5 62.5t74.5 22.5q53 0 78 -40q13 19 34 29.5t46 10.5q58 0 92.5 -40t34.5 -105q0 -78 -50.5 -140t-135.5 -90v-153h265v518h96v-560h-457v208zM197.5 306q21.5 22 21.5 56t-22 55.5t-56 21.5t-56 -21.5t-22 -55.5t22 -56t56 -22q35 0 56.5 22z" />
    <glyph glyph-name="uni0E04" unicode="&#xe04;" horiz-adv-x="698" 
d="M493.5 546q63.5 -24 98 -68t34.5 -102v-376h-96v385q0 68 -51 109t-135 41q-90 0 -142 -50t-52 -136q0 -22 5 -90q5 -61 7 -117l63 176q16 45 47 69t74 24q51 0 82.5 -30.5t31.5 -79.5t-31 -79t-81 -30q-31 0 -58 14.5t-40 37.5l-87 -244h-93v53q0 91 -9 182
q-7 70 -7 107q0 69 35.5 120.5t101.5 79.5t154 28q85 0 148.5 -24zM291 357q-22 -22 -22 -56t22 -55.5t56 -21.5q35 0 57 21.5t22 55.5t-22 56t-57 22q-34 0 -56 -22z" />
    <glyph glyph-name="uni0E05" unicode="&#xe05;" horiz-adv-x="700" 
d="M587 529q41 -41 41 -112v-417h-96v414q0 54 -21 84t-58 30q-27 0 -48 -17.5t-34 -50.5h-33q-11 32 -32.5 50t-50.5 18q-47 0 -73.5 -42t-26.5 -118q0 -49 6 -107q7 -69 7 -127l62 157q37 93 121 93q51 0 83 -31t32 -80q0 -48 -31 -78t-81 -30q-32 0 -59 14.5t-39 38.5
l-87 -218h-94v53q0 111 -10 185q-10 76 -10 132q0 92 48.5 146t132.5 54q41 0 73 -16.5t47 -45.5q42 62 120 62q70 0 111 -41zM296 330q-22 -22 -22 -56t22 -56t56 -22t56.5 22t22.5 56t-22 56t-57 22q-34 0 -56 -22z" />
    <glyph glyph-name="uni0E06" unicode="&#xe06;" horiz-adv-x="751" 
d="M679 560v-560h-92l-241 151v-52q0 -51 -36.5 -80t-101.5 -29q-61 0 -96 32.5t-35 88.5q0 59 41.5 96t108.5 37q16 0 34 -3q12 31 43 70q29 37 42.5 66.5t13.5 65.5q0 41 -16 65t-44 24q-17 0 -30.5 -11.5t-20.5 -31.5h-25q-6 19 -23 31t-38 12q-30 0 -54.5 -24t-31.5 -59
q10 10 28.5 16t37.5 6q48 0 78 -29.5t30 -77.5t-31 -77.5t-81 -29.5q-57 0 -91 38t-34 102q0 49 18.5 88.5t51.5 62t73 22.5q25 0 45.5 -10.5t33.5 -29.5q28 40 85 40q58 0 91 -33t33 -92q0 -39 -13 -71t-41 -72q-19 -27 -29 -47.5t-14 -41.5l11 -6l224 -138v491h96z
M85.5 419q-21.5 -21 -21.5 -55t21.5 -55t55.5 -21t55 21t21 55t-21 55t-55 21t-55.5 -21zM250 192q-13 7 -34 7q-41 0 -66.5 -25t-25.5 -66q0 -37 19.5 -60t51.5 -23q26 0 40.5 15.5t14.5 43.5v108z" />
    <glyph glyph-name="uni0E07" unicode="&#xe07;" horiz-adv-x="600" 
d="M138 193q-54 93 -128 149l74 53q69 -45 122 -138.5t77 -214.5h149v330q-10 -10 -27 -15.5t-37 -5.5q-50 0 -81 30t-31 79t35 79.5t93 30.5q68 0 106 -37t38 -104v-429h-320q-16 100 -70 193zM427.5 405q21.5 22 21.5 56t-22 55.5t-56 21.5t-55.5 -21.5t-21.5 -55.5
t21.5 -56t55.5 -22q35 0 56.5 22z" />
    <glyph glyph-name="uni0E08" unicode="&#xe08;" horiz-adv-x="616" 
d="M495 509q77 -61 77 -168q0 -30 -8 -105q-10 -87 -10 -183v-53h-103l-112 204q-12 -29 -38 -45.5t-60 -16.5q-50 0 -82.5 30.5t-32.5 77.5q0 49 34 79.5t88 30.5q85 0 129 -84l88 -164q0 65 6 140q5 72 5 97q0 86 -51.5 136t-140.5 50q-87 0 -139 -44t-55 -119h-90
q1 60 36 105t98.5 69t148.5 24q135 0 212 -61zM298 195q22 22 22 56t-22 56t-57 22q-34 0 -56 -22t-22 -56t22 -56t56 -22q35 0 57 22z" />
    <glyph glyph-name="uni0E09" unicode="&#xe09;" horiz-adv-x="696" 
d="M621.5 158q19.5 -27 19.5 -62q0 -47 -32.5 -76.5t-84.5 -29.5q-51 0 -84 30t-33 76q0 16 5 34q-100 -59 -146 -130h-95v163q-18 -16 -53 -16q-46 0 -74.5 27t-28.5 71q0 45 32.5 73t85.5 28q62 0 98 -33t36 -91v-144q45 48 120 91t140 60v134q0 78 -54.5 124.5
t-146.5 46.5t-149 -43t-60 -114h-90q1 57 39 101t104.5 68t153.5 24q91 0 159 -26t104.5 -75t36.5 -114v-146q-19 -3 -55 -13q33 -11 52.5 -38zM167 197q19 19 19 49t-19 49.5t-49 19.5t-49 -19.5t-19 -49.5t19 -49t49 -19t49 19zM579.5 41.5q21.5 21.5 21.5 55.5
q0 33 -21.5 54t-55.5 21q-33 0 -55 -21t-22 -54q0 -34 22 -55.5t55 -21.5q34 0 55.5 21.5z" />
    <glyph glyph-name="uni0E0A" unicode="&#xe0a;" horiz-adv-x="667" 
d="M126 208q96 29 143 74.5t47 110.5q0 62 -35.5 100.5t-91.5 38.5q-37 0 -67 -17t-41 -44q11 9 28.5 14.5t35.5 5.5q48 0 79 -30.5t31 -78.5t-32 -79t-82 -31q-58 0 -94 38.5t-36 99.5q0 73 50.5 116.5t135.5 43.5q89 0 142 -47.5t53 -126.5q0 -138 -170 -201v-153h277v278
q0 30 -19 52t-51 31v22q36 16 54.5 53t18.5 92h115q-9 -124 -108 -154q41 -13 63.5 -37.5t22.5 -56.5v-322h-469v208zM198.5 326q21.5 22 21.5 56t-22 56t-56 22t-56 -22t-22 -56t22 -56t56 -22q35 0 56.5 22z" />
    <glyph glyph-name="uni0E0B" unicode="&#xe0b;" horiz-adv-x="701" 
d="M160 208q98 29 148.5 83.5t50.5 129.5q0 51 -17.5 81t-46.5 30q-16 0 -30 -11.5t-20 -30.5h-24q-7 19 -23.5 30.5t-36.5 11.5q-28 0 -52 -23.5t-32 -58.5q10 9 29 15t38 6q48 0 78.5 -30t30.5 -79t-31.5 -79.5t-81.5 -30.5q-59 0 -94 39t-35 104q0 50 18.5 90t51.5 62.5
t73 22.5q25 0 45.5 -10.5t33.5 -29.5q14 19 34.5 29.5t45.5 10.5q58 0 91.5 -39.5t33.5 -105.5q0 -79 -49 -141t-133 -89v-153h277v278q0 30 -19 52t-51 31v22q36 16 54.5 53t18.5 92h115q-9 -124 -108 -154q41 -13 63.5 -37.5t22.5 -56.5v-322h-469v208zM197.5 306
q21.5 22 21.5 56t-22 55.5t-56 21.5t-56 -21.5t-22 -55.5t22 -56t56 -22q35 0 56.5 22z" />
    <glyph glyph-name="uni0E0C" unicode="&#xe0c;" horiz-adv-x="957" 
d="M885 560v-560h-97q-19 47 -57 82t-95 65l-8 4q12 -22 12 -52q0 -48 -32 -78.5t-83 -30.5q-50 0 -81.5 30.5t-31.5 78.5q0 47 29.5 77.5t77.5 32.5q-27 17 -37.5 34.5t-10.5 44.5v97q0 68 -43 109t-115 41q-76 0 -125 -41t-54 -111h131v-32q-50 -10 -73 -36t-23 -74v-54
q9 9 27 15.5t36 6.5q50 0 81.5 -30t31.5 -79t-35 -79.5t-91 -30.5q-69 0 -107.5 37t-38.5 104v91q0 47 21.5 79t62.5 46h-115q3 67 38 117.5t95.5 78t138.5 27.5q76 0 133.5 -24t88.5 -68t31 -103v-90q0 -33 25.5 -56t84.5 -48q34 -14 63 -37t49 -50v466h96zM172 156
q-22 -22 -22 -57q0 -34 22.5 -56.5t56.5 -22.5q35 0 57 22t22 57t-22 57t-57 22t-57 -22zM583 42q22 22 22 57t-22 57t-57 22t-57 -22t-22 -57t22 -57t57 -22t57 22z" />
    <glyph glyph-name="uni0E0D" unicode="&#xe0d;" horiz-adv-x="978" 
d="M111 27q-38 37 -38 104v91q0 47 21.5 79t62.5 46h-115q3 68 39 118.5t98 77.5t144 27q78 0 136.5 -24t90.5 -68t32 -103v-333h228v518h96v-560h-420v385q0 69 -45.5 109.5t-122.5 40.5q-79 0 -128.5 -41t-55.5 -111h131v-32q-50 -10 -73 -36t-23 -74v-54q9 9 27 15.5
t37 6.5q50 0 81 -30t31 -79t-35 -79.5t-93 -30.5q-68 0 -106 37zM286 42q22 22 22 57t-22 57t-57 22t-57 -22t-22 -57q0 -34 22.5 -56.5t56.5 -22.5q35 0 57 22zM531.5 -220.5q-46.5 31.5 -46.5 86.5q0 44 29 72t76 28q46 0 74 -27t28 -71q0 -25 -10 -46.5t-28 -34.5
q67 2 117 45.5t56 119.5h79q-7 -93 -74 -148.5t-172 -55.5q-82 0 -128.5 31.5zM640.5 -185q19.5 20 19.5 51t-19.5 51t-50.5 20t-51 -20t-20 -51t20 -51t51 -20t50.5 20z" />
    <glyph glyph-name="uni0E0E" unicode="&#xe0e;" horiz-adv-x="734" 
d="M535.5 545.5q60.5 -24.5 93.5 -68.5t33 -102v-625h-89q-71 74 -133 108q-27 -56 -75 -87t-110 -31q-58 0 -93 25.5t-35 67.5q0 47 44.5 75t119.5 28q55 0 109 -18q4 32 4 53h66q-3 -35 -15 -76q57 -31 111 -79v569q0 69 -46.5 109.5t-125.5 40.5q-83 0 -135 -41t-57 -111
h140v-32q-34 -11 -48.5 -36.5t-14.5 -73.5v-109q0 -68 -39 -105t-109 -37q-57 0 -90.5 29.5t-33.5 80.5q0 48 32 78.5t83 30.5q18 0 34.5 -6t26.5 -16v58q0 75 51 102h-125q4 67 40.5 117.5t99.5 78t146 27.5q80 0 140.5 -24.5zM178.5 43.5q21.5 21.5 21.5 55.5t-21.5 56
t-55.5 22t-56 -21.5t-22 -56.5q0 -34 22 -55.5t56 -21.5t55.5 21.5zM343.5 -195q32.5 26 47.5 75q-48 17 -94 17q-52 0 -82 -17t-30 -46q0 -26 21 -40.5t58 -14.5q47 0 79.5 26z" />
    <glyph glyph-name="uni0E0F" unicode="&#xe0f;" horiz-adv-x="734" 
d="M535.5 545.5q60.5 -24.5 93.5 -68.5t33 -102v-625h-96l-80 81l-70 -85q-38 48 -64 73q-29 -36 -69.5 -57.5t-86.5 -21.5q-56 0 -90.5 26.5t-34.5 69.5q0 45 35.5 72.5t92.5 27.5q37 0 69 -11t64 -35q8 29 8 60h65q0 -45 -29 -97l17 -17l26 -28l68 78l79 -76v575
q0 69 -46.5 109.5t-125.5 40.5q-83 0 -135 -41t-57 -111h140v-32q-34 -11 -48.5 -36.5t-14.5 -73.5v-109q0 -68 -39 -105t-109 -37q-57 0 -90.5 29.5t-33.5 80.5q0 49 32 79t83 30q18 0 34.5 -6t26.5 -16v58q0 75 51 102h-125q4 67 40.5 117.5t99.5 78t146 27.5
q80 0 140.5 -24.5zM178.5 43.5q21.5 21.5 21.5 55.5t-21.5 56t-55.5 22t-56 -21.5t-22 -56.5q0 -34 22 -55.5t56 -21.5t55.5 21.5zM268 -200.5q30 18.5 48 51.5q-57 45 -113 45q-35 0 -57 -16t-22 -43q0 -26 21 -41t56 -15q37 0 67 18.5z" />
    <glyph glyph-name="uni0E10" unicode="&#xe10;" horiz-adv-x="603" 
d="M449 360h-436q1 104 50 157t145 53q35 0 65.5 -7.5t62.5 -25.5q24 -14 40.5 -19t32.5 -5q26 0 41 14t16 39h87q-3 -48 -34.5 -75t-84.5 -27q-27 0 -52 6.5t-55 22.5q-32 17 -54.5 22.5t-48.5 5.5q-55 0 -83 -28.5t-30 -90.5h434v-16q0 -73 -19 -187q-18 -109 -18 -199
h-97l-120 172q-10 -30 -38.5 -49t-63.5 -19q-50 0 -81.5 30.5t-31.5 77.5q0 49 33 80t85 31q76 0 131 -81l98 -143q2 61 13 126q13 77 13 135zM247.5 157.5q21.5 21.5 21.5 55.5q0 35 -21.5 56.5t-56.5 21.5t-57 -21.5t-22 -56.5q0 -34 22 -55.5t57 -21.5t56.5 21.5z
M527 -59.5q25 -25.5 25 -66.5q0 -53 -37 -87t-95 -34q-38 0 -68.5 16.5t-49.5 43.5q-19 -36 -36 -55h-40q-7 27 -20 53q-21 -25 -48 -39.5t-58 -14.5q-44 0 -71.5 21t-27.5 55q0 35 26.5 57t69.5 22q56 0 100 -41q13 33 13 77h42q0 -59 -28 -109q14 -20 25 -46q20 24 41 76
h19q36 -82 109 -82q28 0 47 13q-3 -1 -10 -1q-40 0 -63.5 23t-23.5 61q0 37 25 60t67 23t67 -25.5zM498.5 -157q15.5 15 15.5 40t-15.5 40t-40.5 15q-26 0 -41.5 -15t-15.5 -40t15.5 -40t41.5 -15q25 0 40.5 15zM184 -158q-36 39 -81 39q-25 0 -40 -13t-15 -33t15.5 -32.5
t40.5 -12.5q50 0 80 52z" />
    <glyph glyph-name="uni0E11" unicode="&#xe11;" horiz-adv-x="803" 
d="M705.5 535q25.5 -25 25.5 -71v-464h-96v468q0 32 -30 32h-16l-270 -500h-95v185q0 34 13 62t45 60q39 40 54.5 70.5t15.5 66.5q0 45 -13.5 66.5t-40.5 21.5q-16 0 -29.5 -12t-19.5 -31h-25q-6 19 -23 31t-38 12q-30 0 -54.5 -24t-31.5 -59q10 10 28.5 16t37.5 6
q48 0 78 -29.5t30 -77.5t-31 -77.5t-81 -29.5q-57 0 -91 38t-34 102q0 49 18.5 88.5t51.5 62t73 22.5q25 0 45.5 -10.5t33.5 -29.5q13 19 35 29.5t48 10.5q57 0 87 -31.5t30 -91.5q0 -41 -16 -75t-55 -76q-25 -28 -35.5 -49.5t-10.5 -47.5v-95l252 456h63q46 0 71.5 -25z
M85.5 419q-21.5 -21 -21.5 -55t21.5 -55t55.5 -21t55 21t21 55t-21 55t-55 21t-55.5 -21z" />
    <glyph glyph-name="uni0E12" unicode="&#xe12;" horiz-adv-x="1002" 
d="M930 560v-560h-97q-18 45 -55.5 79.5t-95.5 67.5l-10 5q13 -24 13 -53q0 -47 -32.5 -78t-81.5 -31t-81.5 31t-32.5 78t31.5 78t80.5 32q-29 18 -40.5 35t-11.5 44v126q0 52 -21.5 83t-57.5 31q-53 0 -71 -61h-34q-18 61 -74 61q-50 0 -77 -45t-27 -128q0 -41 5 -113
q6 -78 6 -195q146 58 208 137q-20 -10 -40 -10q-50 0 -82 30.5t-32 79.5t31.5 79t82.5 30q52 0 83.5 -32.5t31.5 -85.5q0 -80 -76 -152t-216 -123h-83v53q0 98 -8 180q-8 78 -8 117q0 100 49 160t131 60q38 0 68 -15t44 -41q33 56 112 56q72 0 111 -40t39 -113v-129
q0 -33 23.5 -55t87.5 -51q72 -34 111 -88v466h96zM390.5 228q22.5 22 22.5 56t-22.5 56t-56.5 22t-56.5 -22t-22.5 -56t22 -56t57 -22q34 0 56.5 22zM628 42q22 22 22 57t-22 57t-57 22t-57.5 -22t-22.5 -57q0 -34 22.5 -56.5t57.5 -22.5t57 22z" />
    <glyph glyph-name="uni0E13" unicode="&#xe13;" horiz-adv-x="987" 
d="M917 165.5q20 -28.5 20 -65.5q0 -48 -32 -79t-82 -31t-82 31t-32 79q0 15 3 28q-81 -56 -138 -128h-97v385q0 68 -44 109t-119 41q-77 0 -125.5 -41t-54.5 -111h131v-32q-50 -10 -73 -36t-23 -74v-54q9 9 26.5 15.5t36.5 6.5q50 0 81.5 -30.5t31.5 -78.5q0 -49 -35 -79.5
t-91 -30.5q-68 0 -107 38t-39 103v91q0 47 21.5 79t62.5 46h-115q3 67 38 117.5t96 78t141 27.5q78 0 135.5 -24t89 -68t31.5 -103v-295q45 49 112.5 92t133.5 64v324h96v-342q-30 -5 -52 -13q34 -11 54 -39.5zM172 156q-22 -22 -22 -57t22 -57t57 -22t57 22t22 57t-22 57
t-57 22t-57 -22zM880 45q22 22 22 56t-22 55.5t-57 21.5t-57 -21.5t-22 -55.5t22 -56t57 -22t57 22z" />
    <glyph glyph-name="uni0E14" unicode="&#xe14;" horiz-adv-x="699" 
d="M74 53q0 103 -9 181q-7 60 -7 108q0 69 35.5 120.5t100.5 79.5t153 28q84 0 147.5 -24t98 -68t34.5 -102v-376h-96v385q0 68 -50.5 109t-134.5 41q-91 0 -141.5 -49t-50.5 -137q0 -34 5 -107q7 -97 7 -194q75 31 133 74t88 90q-20 -11 -43 -11q-51 0 -83.5 30.5
t-32.5 78.5q0 49 32.5 79.5t82.5 30.5q51 0 84 -33.5t33 -85.5q0 -55 -39 -112.5t-108 -107t-156 -81.5h-83v53zM400 254q22 22 22 56t-22 56t-57 22t-57 -22t-22 -56t22 -56t57 -22t57 22z" />
    <glyph glyph-name="uni0E15" unicode="&#xe15;" horiz-adv-x="699" 
d="M74 53q0 91 -9 181q-7 71 -7 115q0 66 23 116t64.5 77.5t96.5 27.5q38 0 69.5 -15t46.5 -41q16 27 45.5 41.5t69.5 14.5q73 0 113.5 -40t40.5 -113v-417h-96v414q0 55 -21.5 84.5t-61.5 29.5q-26 0 -45.5 -16t-28.5 -45h-34q-8 29 -28.5 45t-48.5 16q-51 0 -80 -46
t-29 -128q0 -37 5 -112q6 -98 7 -195q163 64 220 137q-22 -10 -40 -10q-51 0 -83.5 31t-32.5 79t32 78.5t83 30.5t84 -32.5t33 -84.5q0 -79 -79 -150.5t-226 -125.5h-83v53zM402 228q22 22 22 56t-22 56t-57 22t-57 -22t-22 -56t22 -56t57 -22t57 22z" />
    <glyph glyph-name="uni0E16" unicode="&#xe16;" horiz-adv-x="666" 
d="M111 27q-38 37 -38 104v91q0 47 21.5 79t62.5 46h-115q3 67 39.5 117.5t100 78t145.5 27.5q80 0 140.5 -24.5t93.5 -68.5t33 -102v-375h-96v385q0 70 -46 110t-126 40q-83 0 -134.5 -41t-57.5 -111h131v-32q-50 -10 -73 -36t-23 -74v-54q9 9 27 15.5t36 6.5
q50 0 81.5 -30t31.5 -79t-35.5 -79.5t-92.5 -30.5q-68 0 -106 37zM286 42q22 22 22 57t-22 57t-57 22t-57 -22t-22 -57q0 -34 22.5 -56.5t56.5 -22.5q35 0 57 22z" />
    <glyph glyph-name="uni0E17" unicode="&#xe17;" horiz-adv-x="748" 
d="M650.5 537q25.5 -23 25.5 -67v-470h-96v478q0 16 -9 25t-26 9h-39l-224 -512h-97v372q-9 -10 -26 -15.5t-37 -5.5q-50 0 -81 30t-31 79t35 79.5t92 30.5q68 0 106 -37t38 -104v-319l196 450h99q49 0 74.5 -23zM181.5 405q21.5 22 21.5 56t-22 55.5t-56 21.5t-56 -21.5
t-22 -55.5t22 -56t56 -22q35 0 56.5 22z" />
    <glyph glyph-name="uni0E18" unicode="&#xe18;" horiz-adv-x="640" 
d="M79 273h96v-231h289v300h-422q2 109 52.5 168.5t143.5 59.5q33 0 62.5 -7.5t64.5 -25.5q26 -14 42 -19t32 -5q25 0 40 14t17 39h86q-2 -48 -33.5 -75t-84.5 -27q-25 0 -50 6.5t-59 22.5t-55 22t-45 6q-54 0 -83.5 -34.5t-31.5 -102.5h420v-384h-481v273z" />
    <glyph glyph-name="uni0E19" unicode="&#xe19;" horiz-adv-x="738" 
d="M668.5 166q20.5 -28 20.5 -66q0 -49 -32.5 -79.5t-83.5 -30.5q-50 0 -82.5 30.5t-32.5 79.5q0 28 10 48q-57 -30 -104.5 -68t-79.5 -80h-99v372q-9 -10 -26 -15.5t-37 -5.5q-49 0 -80.5 30.5t-31.5 78.5q0 49 34.5 79.5t91.5 30.5q68 0 106.5 -37.5t38.5 -103.5v-353
q47 49 129 94.5t160 65.5v324h96v-345q-19 -2 -52 -10q34 -11 54.5 -39zM181.5 405q21.5 22 21.5 56t-22 55.5t-56 21.5t-56 -21.5t-22 -55.5t22 -56t56 -22q35 0 56.5 22zM630 45q22 22 22 56t-22 55.5t-57 21.5q-34 0 -56 -21.5t-22 -55.5t22 -56t56 -22q35 0 57 22z" />
    <glyph glyph-name="uni0E1A" unicode="&#xe1a;" horiz-adv-x="733" 
d="M185 373q-9 -9 -26.5 -15.5t-36.5 -6.5q-50 0 -81 30t-31 79t35 79.5t92 30.5q68 0 106 -37t38 -104v-391h284v522h96v-560h-476v373zM181.5 405q21.5 22 21.5 56t-22 55.5t-56 21.5t-56 -21.5t-22 -55.5t22 -56t56 -22q35 0 56.5 22z" />
    <glyph glyph-name="uni0E1B" unicode="&#xe1b;" horiz-adv-x="737" 
d="M185 373q-9 -9 -26.5 -15.5t-36.5 -6.5q-50 0 -81 30t-31 79t35 79.5t92 30.5q68 0 106 -37t38 -104v-391h288v712h96v-750h-480v373zM181.5 405q21.5 22 21.5 56t-22 55.5t-56 21.5t-56 -21.5t-22 -55.5t22 -56t56 -22q35 0 56.5 22z" />
    <glyph glyph-name="uni0E1C" unicode="&#xe1c;" horiz-adv-x="691" 
d="M67 209q-9 119 -9 176q0 90 37 137.5t121 47.5q53 0 86.5 -30.5t33.5 -78.5q0 -49 -33 -79.5t-85 -30.5q-16 0 -33.5 4.5t-30.5 14.5v-28q1 -48 6 -110q5 -56 6 -132l156 205h52l149 -195v450h96v-560h-96l-175 229l-174 -229h-97q0 89 -10 209zM277.5 405
q21.5 22 21.5 56t-21.5 55.5t-55.5 21.5t-56 -21.5t-22 -55.5t22 -56t56 -22t55.5 22z" />
    <glyph glyph-name="uni0E1D" unicode="&#xe1d;" horiz-adv-x="691" 
d="M67 208q-9 119 -9 177q0 90 37 137.5t121 47.5q53 0 86.5 -30.5t33.5 -78.5q0 -49 -33 -79.5t-85 -30.5q-16 0 -33.5 4.5t-30.5 14.5v-28q1 -48 6 -111q5 -54 6 -131l156 205h52l149 -195v640h96v-750h-96l-175 229l-174 -229h-97q0 86 -10 208zM277.5 405
q21.5 22 21.5 56t-21.5 55.5t-55.5 21.5t-56 -21.5t-22 -55.5t22 -56t56 -22t55.5 22z" />
    <glyph glyph-name="uni0E1E" unicode="&#xe1e;" horiz-adv-x="804" 
d="M732 560v-560h-116l-157 448l-158 -448h-116v373q-9 -9 -26.5 -15.5t-36.5 -6.5q-50 0 -81 30t-31 79t35 79.5t92 30.5q68 0 106 -37t38 -104v-326l159 440h38l158 -431v448h96zM181.5 405q21.5 22 21.5 56t-22 55.5t-56 21.5t-56 -21.5t-22 -55.5t22 -56t56 -22
q35 0 56.5 22z" />
    <glyph glyph-name="uni0E1F" unicode="&#xe1f;" horiz-adv-x="804" 
d="M732 750v-750h-116l-157 448l-158 -448h-116v373q-9 -9 -26.5 -15.5t-36.5 -6.5q-50 0 -81 30t-31 79t35 79.5t92 30.5q68 0 105.5 -37t37.5 -104v-328l160 442h38l158 -431v638h96zM181.5 405q21.5 22 21.5 56t-22 55.5t-56 21.5t-56 -21.5t-22 -55.5t22 -56t56 -22
q35 0 56.5 22z" />
    <glyph glyph-name="uni0E20" unicode="&#xe20;" horiz-adv-x="734" 
d="M41 20q-34 30 -34 81q0 48 32 78t83 30q18 0 34.5 -6t26.5 -16v58q0 75 51 102h-125q4 67 40.5 117.5t99.5 78t146 27.5q80 0 140.5 -24.5t93.5 -68.5t33 -102v-375h-96v385q0 69 -46.5 109.5t-125.5 40.5q-83 0 -135 -41t-57 -111h140v-32q-34 -11 -48.5 -36.5
t-14.5 -73.5v-109q0 -67 -38.5 -104.5t-108.5 -37.5q-57 0 -91 30zM178.5 43.5q21.5 21.5 21.5 55.5t-21.5 56t-55.5 22t-56 -21.5t-22 -56.5q0 -34 22 -55.5t56 -21.5t55.5 21.5z" />
    <glyph glyph-name="uni0E21" unicode="&#xe21;" horiz-adv-x="741" 
d="M669 560v-560h-90l-258 152v-46q0 -54 -36 -85t-99 -31q-59 0 -94 32.5t-35 88.5q0 61 39 96.5t106 35.5q15 0 23 -1v131q-10 -9 -27.5 -15.5t-35.5 -6.5q-50 0 -81.5 30t-31.5 79t35 79.5t92 30.5q68 0 106.5 -37t38.5 -104v-216q11 -5 13 -7l239 -140v494h96z
M220.5 405q21.5 22 21.5 56t-22 55.5t-56 21.5t-56 -21.5t-22 -55.5t22 -56t56 -22q35 0 56.5 22zM225 195q-18 8 -39 8q-38 0 -61.5 -26t-23.5 -67q0 -39 18 -61.5t50 -22.5q56 0 56 63v106z" />
    <glyph glyph-name="uni0E22" unicode="&#xe22;" horiz-adv-x="673" 
d="M601 560v-560h-511v130q0 38 29 68t78 44q-68 17 -105.5 60t-37.5 105q0 73 52 118t136 45q68 0 111 -34t43 -89q0 -50 -32.5 -81t-84.5 -31t-85 30.5t-33 79.5q0 31 23 54q-41 -30 -41 -92q0 -138 187 -138h9v-41h-8q-70 0 -107.5 -26.5t-37.5 -76.5v-83h319v518h96z
M222 501q-22 -22 -22 -56t22 -56t56 -22q35 0 57 22t22 56t-22 56t-57 22q-34 0 -56 -22z" />
    <glyph glyph-name="uni0E23" unicode="&#xe23;" horiz-adv-x="594" 
d="M284 20q-34 30 -34 80q0 49 31.5 79t82.5 30q18 0 34.5 -6t26.5 -15v154h-406q2 109 52.5 168.5t144.5 59.5q32 0 61 -7.5t65 -25.5q27 -14 43 -19t31 -5q25 0 40.5 15.5t16.5 41.5h86q-2 -49 -34 -77.5t-84 -28.5q-26 0 -50.5 6.5t-57.5 22.5q-34 17 -55 22.5t-46 5.5
q-109 0 -115 -137h405v-252q0 -68 -39 -105t-109 -37q-56 0 -90 30zM421 43.5q22 21.5 22 55.5q0 35 -21.5 56.5t-56.5 21.5q-34 0 -56 -21.5t-22 -56.5q0 -34 22 -55.5t56 -21.5t56 21.5z" />
    <glyph glyph-name="uni0E24" unicode="&#xe24;" horiz-adv-x="666" 
d="M498 385q0 70 -46 110t-126 40q-83 0 -134.5 -41t-57.5 -111h131v-32q-50 -10 -73 -36t-23 -74v-54q9 9 26.5 15.5t37.5 6.5q50 0 81 -30t31 -79t-35.5 -79.5t-92.5 -30.5q-68 0 -106 37t-38 104v91q0 47 21.5 79t62.5 46h-115q3 67 39.5 117.5t100 78t145.5 27.5
q80 0 140.5 -24.5t93.5 -68.5t33 -102v-575h-96v585zM286 42q22 22 22 57t-22 57t-57 22t-57 -22t-22 -57q0 -34 22.5 -56.5t56.5 -22.5q35 0 57 22z" />
    <glyph glyph-name="uni0E25" unicode="&#xe25;" horiz-adv-x="694" 
d="M113 37q-42 47 -42 124q0 68 30.5 120t86.5 80.5t129 28.5q72 0 127 -37.5t82 -105.5v137q0 69 -49 109.5t-132 40.5q-80 0 -134 -36.5t-65 -97.5h-91q14 77 93 123.5t197 46.5q84 0 146.5 -24t96.5 -67.5t34 -102.5v-376h-96v10q0 162 -54 252.5t-151 90.5
q-65 0 -108.5 -46t-47.5 -122q8 10 28 17t40 7q50 0 82.5 -31t32.5 -79t-34.5 -78.5t-88.5 -30.5q-70 0 -112 47zM288.5 43q21.5 21 21.5 56t-21.5 56.5t-56.5 21.5t-56 -21.5t-21 -56.5q0 -34 21.5 -55.5t55.5 -21.5q35 0 56.5 21z" />
    <glyph glyph-name="uni0E26" unicode="&#xe26;" horiz-adv-x="734" 
d="M566 385q0 69 -46.5 109.5t-125.5 40.5q-83 0 -135 -41t-57 -111h140v-32q-34 -11 -48.5 -36.5t-14.5 -73.5v-109q0 -68 -38.5 -105t-109.5 -37q-56 0 -90 30.5t-34 79.5t32 79t83 30q18 0 34.5 -6t26.5 -16v58q0 75 51 102h-125q4 67 40.5 117.5t99.5 78t146 27.5
q80 0 140.5 -24.5t93.5 -68.5t33 -102v-575h-96v585zM178.5 43.5q21.5 21.5 21.5 55.5t-21.5 56t-55.5 22t-56 -21.5t-22 -56.5q0 -34 22 -55.5t56 -21.5t55.5 21.5z" />
    <glyph glyph-name="uni0E27" unicode="&#xe27;" horiz-adv-x="580" 
d="M270 20.5q-34 30.5 -34 79.5t32 79t82 30q18 0 35 -6.5t27 -15.5v197q0 70 -41.5 110t-113.5 40t-115.5 -42t-46.5 -115h-91q5 91 73.5 142t184.5 51q118 0 182 -50.5t64 -143.5v-244q0 -68 -39 -105t-109 -37q-56 0 -90 30.5zM407 43.5q22 21.5 22 55.5q0 35 -21.5 56.5
t-56.5 21.5q-34 0 -55.5 -22t-21.5 -56t21.5 -55.5t55.5 -21.5t56 21.5z" />
    <glyph glyph-name="uni0E28" unicode="&#xe28;" horiz-adv-x="698" 
d="M608.5 451.5q17.5 -34.5 17.5 -75.5v-376h-96v385q0 47 -26 82q-43 -32 -107 -66q30 -13 46.5 -39t16.5 -61q0 -49 -31 -79t-81 -30q-31 0 -58 14.5t-40 37.5l-87 -244h-93v53q0 113 -9 182q-7 58 -7 107q0 69 35.5 120.5t101.5 79.5t154 28q79 0 142 -22q22 32 30 64
h112q-8 -42 -71 -101q33 -25 50.5 -59.5zM457 509q-46 26 -113 26q-90 0 -142 -50t-52 -136q0 -39 5 -90q7 -78 8 -116l62 175q16 44 46 68t72 25q69 45 114 98zM404 357q-22 22 -57 22q-34 0 -56 -22t-22 -56t22 -55.5t56 -21.5q35 0 57 21.5t22 55.5t-22 56z" />
    <glyph glyph-name="uni0E29" unicode="&#xe29;" horiz-adv-x="788" 
d="M763 292.5q-30 -44.5 -81 -71.5v-221h-497v373q-9 -9 -27 -15.5t-36 -6.5q-50 0 -81 30t-31 79t35 79.5t92 30.5q68 0 106.5 -37t38.5 -104v-391h304v151q-33 -5 -64 -5q-85 0 -136 32t-51 85q0 43 28.5 71t72.5 28t73 -27.5t29 -70.5q0 -24 -11.5 -45.5t-31.5 -34.5
q49 1 91 14v324h96v-266q37 42 37 98h76q-2 -55 -32 -99.5zM181.5 405q21.5 22 21.5 56t-22 55.5t-56 21.5t-56 -21.5t-22 -55.5t22 -56t56 -22q35 0 56.5 22zM484 254.5q19 18.5 19 47.5t-19 47.5t-48 18.5t-48 -18.5t-19 -47.5t19 -47.5t48 -18.5t48 18.5z" />
    <glyph glyph-name="uni0E2A" unicode="&#xe2a;" horiz-adv-x="694" 
d="M604.5 451.5q17.5 -34.5 17.5 -75.5v-376h-96v10q0 162 -54 252.5t-151 90.5q-65 0 -108.5 -46t-47.5 -122q8 10 28 17t40 7q50 0 82.5 -31t32.5 -79t-34.5 -78.5t-88.5 -30.5q-70 0 -112 47t-42 124q0 67 29.5 118.5t84 80.5t125.5 30q85 52 147 117q-45 27 -112 27
q-80 0 -134 -36.5t-65 -97.5h-91q14 77 93 123.5t197 46.5q83 0 144 -23q25 34 33 65h108q-7 -38 -75 -101q32 -25 49.5 -59.5zM526 384q0 48 -24 82q-65 -51 -134 -81q54 -12 95 -47.5t63 -90.5v137zM176 155.5q-21 -21.5 -21 -56.5q0 -34 21.5 -55.5t55.5 -21.5
q35 0 56.5 21t21.5 56t-21.5 56.5t-56.5 21.5t-56 -21.5z" />
    <glyph glyph-name="uni0E2B" unicode="&#xe2b;" horiz-adv-x="746" 
d="M656.5 324.5q14.5 -23.5 14.5 -53.5v-271h-96v288q0 27 -22 45t-54 18q-52 0 -102.5 -31t-83 -80t-32.5 -99v-141h-96v373q-9 -9 -26.5 -15.5t-36.5 -6.5q-50 0 -81 30t-31 79t35 79.5t92 30.5q68 0 106 -37t38 -104v-175q25 49 83 85.5t123 44.5q-35 30 -35 79
q0 47 33 77t86 30t86 -30t33 -77q0 -36 -20 -62.5t-54 -37.5q26 -15 40.5 -38.5zM514.5 518q-21.5 -21 -21.5 -55t21.5 -55t56.5 -21t56.5 21t21.5 55t-21.5 55t-56.5 21t-56.5 -21zM181.5 405q21.5 22 21.5 56t-22 55.5t-56 21.5t-56 -21.5t-22 -55.5t22 -56t56 -22
q35 0 56.5 22z" />
    <glyph glyph-name="uni0E2C" unicode="&#xe2c;" horiz-adv-x="814" 
d="M732 528v-528h-110l-163 346l-164 -346h-110v373q-9 -9 -26.5 -15.5t-36.5 -6.5q-50 0 -81 30t-31 79t35 79.5t92 30.5q68 0 106 -37t38 -104v-334l160 336h35l160 -330v395q-40 -8 -77 -8q-72 0 -114 23.5t-42 64.5t42 66.5t110 25.5q69 0 115.5 -24t57.5 -65
q38 26 66 61l32 -36q-35 -46 -94 -76zM636 537v12q0 39 -24.5 61t-67.5 22q-41 0 -66 -15t-25 -40q0 -24 27.5 -37.5t74.5 -13.5q40 0 81 11zM181.5 405q21.5 22 21.5 56t-22 55.5t-56 21.5t-56 -21.5t-22 -55.5t22 -56t56 -22q35 0 56.5 22z" />
    <glyph glyph-name="uni0E2D" unicode="&#xe2d;" horiz-adv-x="681" 
d="M74 215q0 67 38 104t106 37q57 0 92.5 -31t35.5 -80q0 -48 -31 -78t-81 -30q-20 0 -38 6.5t-27 16.5v-119h344v322q0 79 -53.5 125.5t-142.5 46.5q-86 0 -140 -43t-59 -115h-90q4 58 40.5 102t100 67.5t146.5 23.5q89 0 155.5 -27t102.5 -76.5t36 -115.5v-351h-535v215z
M286 190.5q22 21.5 22 55.5q0 35 -21.5 56.5t-56.5 21.5q-34 0 -55.5 -22t-21.5 -56t21.5 -55.5t55.5 -21.5t56 21.5z" />
    <glyph glyph-name="uni0E2E" unicode="&#xe2e;" horiz-adv-x="681" 
d="M576 462q33 -48 33 -111v-351h-535v196q0 67 38 104t106 37q57 0 92.5 -30.5t35.5 -79.5t-31 -79t-81 -30q-20 0 -38 6.5t-27 17.5v-101h344v322q0 34 -10 60q-102 -44 -219 -44q-104 0 -166.5 25t-62.5 67q0 29 31.5 51.5t87 35t126.5 12.5q78 0 140.5 -18t101.5 -52
q33 23 67 59l41 -40q-41 -37 -74 -57zM179.5 433q42.5 -16 109.5 -16q105 0 196 48q-30 34 -80 52t-116 18t-109 -17.5t-43 -43.5q0 -25 42.5 -41zM174.5 283.5q-21.5 -21.5 -21.5 -55.5t21.5 -56t55.5 -22q35 0 56.5 22t21.5 56t-22 55.5t-56 21.5t-55.5 -21.5z" />
    <glyph glyph-name="uni0E2F" unicode="&#xe2f;" horiz-adv-x="596" 
d="M428 432q-58 -117 -201 -117q-92 0 -143.5 38t-51.5 105q0 49 33 80.5t85 31.5t84 -30t32 -79q0 -37 -19.5 -64.5t-54.5 -37.5q15 -4 40 -4q82 0 135 52.5t71 152.5h36q24 0 37 -11t13 -33v-516h-96v432zM208 399.5q22 22.5 22 58.5q0 35 -22 57t-58 22q-35 0 -57.5 -22
t-22.5 -57q0 -36 22.5 -58.5t57.5 -22.5q36 0 58 22.5z" />
    <glyph glyph-name="uni0E30" unicode="&#xe30;" horiz-adv-x="551" 
d="M110.5 335q-56.5 35 -56.5 102q0 45 29 74t75 29q44 0 72 -28t28 -71q0 -34 -21 -60.5t-55 -33.5q27 -8 65 -8q79 0 125 54t46 154h80v-20q0 -67 -30 -118t-86.5 -80t-133.5 -29q-81 0 -137.5 35zM204 396.5q19 18.5 19 46.5t-19 46.5t-48 18.5t-47.5 -18.5t-18.5 -46.5
t18.5 -46.5t47.5 -18.5t48 18.5zM110.5 47q-56.5 35 -56.5 102q0 45 29 74t75 29q44 0 72 -28t28 -71q0 -34 -21 -60.5t-55 -33.5q27 -8 65 -8q77 0 124 54.5t47 153.5h80v-20q0 -66 -31 -117.5t-87.5 -80.5t-131.5 -29q-81 0 -137.5 35zM204 108.5q19 18.5 19 46.5
t-19 46.5t-48 18.5t-47.5 -18.5t-18.5 -46.5t18.5 -46.5t47.5 -18.5t48 18.5z" />
    <glyph glyph-name="uni0E31" unicode="&#xe31;" 
d="M-352.5 683q-54.5 33 -54.5 90q0 43 28.5 70.5t72.5 27.5q46 0 75 -27.5t29 -70.5q0 -31 -18.5 -55.5t-47.5 -32.5q23 -4 52 -4q56 0 101 24t70.5 66.5t25.5 97.5h90q0 -64 -36 -114t-98.5 -77.5t-141.5 -27.5q-93 0 -147.5 33zM-256 725.5q19 18.5 19 47.5q0 30 -19 48
t-50 18q-29 0 -47.5 -18t-18.5 -48q0 -29 18.5 -47.5t47.5 -18.5q31 0 50 18.5z" />
    <glyph glyph-name="uni0E32" unicode="&#xe32;" horiz-adv-x="564" 
d="M396 389q0 66 -38.5 106t-105.5 40q-62 0 -102.5 -37.5t-47.5 -103.5h-91q7 80 71.5 128t169.5 48q109 0 174.5 -52t65.5 -142v-376h-96v389z" />
    <glyph glyph-name="uni0E33" unicode="&#xe33;" horiz-adv-x="564" 
d="M-219 670q-36 28 -36 74t35.5 73.5t94.5 27.5q58 0 93.5 -27.5t35.5 -73.5t-35.5 -74t-93.5 -28t-94 28zM-73.5 692q19.5 20 19.5 52t-20 52t-51 20q-32 0 -52 -20t-20 -52t20 -52t52 -20t51.5 20zM396 389q0 66 -38.5 106t-105.5 40q-62 0 -102.5 -37.5t-47.5 -103.5
h-91q7 80 71.5 128t169.5 48q109 0 174.5 -52t65.5 -142v-376h-96v389z" />
    <glyph glyph-name="uni0E34" unicode="&#xe34;" 
d="M-552.5 756.5q33.5 41.5 90 64.5t127.5 23q73 0 131.5 -23t93 -64.5t38.5 -94.5h-518q4 53 37.5 94.5zM-155 695q-7 49 -57 80t-123 31q-74 0 -123 -30.5t-56 -80.5h359z" />
    <glyph glyph-name="uni0E35" unicode="&#xe35;" 
d="M-72 881v-219h-518q4 53 37.5 94.5t90.5 64.5t127 23q97 0 171 -45v82h92zM-155 695q-7 49 -57 80t-123 31q-74 0 -123 -30.5t-56 -80.5h359z" />
    <glyph glyph-name="uni0E36" unicode="&#xe36;" 
d="M-38 746q-18 -23 -48 -30q13 -27 14 -54h-518q4 53 37.5 94.5t90 64.5t127.5 23q80 0 142 -28q5 33 28 53t58 20q38 0 62.5 -24.5t24.5 -62.5q0 -33 -18 -56zM-69 763.5q15 15.5 15 38.5t-15 38t-38 15t-38.5 -15t-15.5 -38t15.5 -38.5t38.5 -15.5t38 15.5zM-155 695
q-7 49 -57 80t-123 31q-74 0 -123 -30.5t-56 -80.5h359z" />
    <glyph glyph-name="uni0E37" unicode="&#xe37;" 
d="M-72 881v-219h-518q4 53 37.5 94.5t90.5 64.5t127 23q30 0 51 -4v41h74v-60q30 -12 61 -34v94h77zM-155 695q-7 49 -57 80t-123 31q-74 0 -123 -30.5t-56 -80.5h359z" />
    <glyph glyph-name="uni0E38" unicode="&#xe38;" 
d="M-159 -212q-18 -15 -50 -15q-40 0 -65.5 24.5t-25.5 63.5q0 40 29.5 64.5t76.5 24.5q56 0 89 -27.5t33 -71.5v-161h-87v98zM-166.5 -181q16.5 16 16.5 42q0 25 -16.5 41.5t-41.5 16.5t-41.5 -16.5t-16.5 -41.5t16.5 -41.5t41.5 -16.5t41.5 16z" />
    <glyph glyph-name="uni0E39" unicode="&#xe39;" 
d="M-342 -212q-18 -15 -50 -15q-40 0 -65 24.5t-25 63.5q0 40 29 64.5t76 24.5q56 0 89 -27.5t33 -71.5v-117h96v216h87v-250h-270v88zM-348.5 -180.5q16.5 16.5 16.5 41.5t-16.5 41.5t-41.5 16.5t-41.5 -16.5t-16.5 -41.5q0 -26 16 -42t42 -16q25 0 41.5 16.5z" />
    <glyph glyph-name="uni0E3A" unicode="&#xe3a;" 
d="M-174.5 -170q-20.5 19 -20.5 50t20.5 50.5t52.5 19.5t52.5 -19.5t20.5 -50.5t-20.5 -50t-52.5 -19t-52.5 19z" />
    <glyph glyph-name="uni0E3F" unicode="&#xe3f;" horiz-adv-x="750" 
d="M646 52q-70 -48 -202 -52v-103h-52v103h-83v-103h-52v103h-183v700h183v82h52v-82h83v82h52v-84q107 -8 168.5 -50.5t61.5 -111.5q0 -65 -53 -111.5t-139 -59.5q114 -11 174 -52.5t60 -124.5q0 -88 -70 -136zM178 387h79v265h-79v-265zM309 652v-265h53q20 0 30 1v263
q-9 1 -27 1h-56zM444 647v-252q62 13 94.5 47t32.5 88q0 96 -127 117zM257 48v291h-79v-291h79zM392 48v290q-12 1 -36 1h-47v-291h83zM568 88q44 38 44 105q0 117 -168 141v-286q80 2 124 40z" />
    <glyph glyph-name="uni0E40" unicode="&#xe40;" horiz-adv-x="405" 
d="M141 26q-39 36 -39 105v429h96v-373q10 10 27 16t37 6q50 0 80.5 -30t30.5 -79q0 -50 -35 -80t-92 -30q-66 0 -105 36zM314 43.5q22 21.5 22 55.5q0 35 -21.5 56.5t-56.5 21.5q-34 0 -55.5 -22t-21.5 -56t21.5 -55.5t55.5 -21.5t56 21.5z" />
    <glyph glyph-name="uni0E41" unicode="&#xe41;" horiz-adv-x="733" 
d="M141 26q-39 36 -39 105v429h96v-373q10 10 27 16t37 6q50 0 80.5 -30t30.5 -79q0 -50 -35 -80t-92 -30q-66 0 -105 36zM468 26q-39 36 -39 105v429h97v-373q9 9 26 15.5t37 6.5q50 0 80.5 -30t30.5 -79q0 -50 -34.5 -80t-91.5 -30q-67 0 -106 36zM314 43.5
q22 21.5 22 55.5q0 35 -21.5 56.5t-56.5 21.5q-34 0 -55.5 -22t-21.5 -56t21.5 -55.5t55.5 -21.5t56 21.5zM642 43.5q22 21.5 22 55.5q0 35 -21.5 56.5t-56.5 21.5q-34 0 -56 -22t-22 -56t22 -55.5t56 -21.5t56 21.5z" />
    <glyph glyph-name="uni0E42" unicode="&#xe42;" horiz-adv-x="429" 
d="M168 26q-39 36 -39 105v622h-204q2 88 44.5 141.5t116.5 53.5q51 0 100 -30q27 -17 47 -17q19 0 31.5 12.5t14.5 34.5h76q-4 -43 -33 -70t-73 -27q-22 0 -39.5 5.5t-36.5 17.5q-18 11 -32 15.5t-32 4.5q-37 0 -59.5 -25t-27.5 -73h203v-609q10 9 27 15.5t37 6.5
q50 0 80.5 -30t30.5 -79q0 -50 -35 -80t-92 -30q-66 0 -105 36zM342 42q22 22 22 57t-22 57t-57 22t-57 -22t-22 -57q0 -34 22.5 -56.5t56.5 -22.5q35 0 57 22z" />
    <glyph glyph-name="uni0E43" unicode="&#xe43;" horiz-adv-x="412" 
d="M151.5 26q-39.5 36 -39.5 105v408q0 36 19 70.5t56 74.5q37 42 54.5 72.5t17.5 66.5q0 50 -37 81t-97 31q-48 0 -84 -22.5t-50 -60.5q13 16 36.5 25.5t50.5 9.5q49 0 80 -30.5t31 -77.5q0 -49 -34 -79.5t-87 -30.5q-60 0 -96.5 37t-36.5 98q0 48 25.5 86t71 59.5
t103.5 21.5q61 0 107.5 -18.5t72.5 -52t26 -77.5q0 -42 -17 -76.5t-53 -76.5q-32 -36 -47.5 -67.5t-15.5 -64.5v-351q9 9 26.5 15.5t37.5 6.5q50 0 80.5 -30t30.5 -79q0 -50 -34.5 -80t-91.5 -30q-66 0 -105.5 36zM132 722.5q22 22.5 22 56.5q0 35 -22 57t-57 22
q-34 0 -56.5 -22t-22.5 -57q0 -34 22.5 -56.5t56.5 -22.5q35 0 57 22.5zM326 42.5q22 22.5 22 56.5q0 35 -22 57t-57 22t-57 -22t-22 -57q0 -34 22.5 -56.5t56.5 -22.5q35 0 57 22.5z" />
    <glyph glyph-name="uni0E44" unicode="&#xe44;" horiz-adv-x="436" 
d="M175.5 26q-39.5 36 -39.5 105v697l-92 -83q-27 58 -76.5 104.5t-104.5 62.5l62 47q42 -17 77.5 -52t55.5 -79l86 78h88v-719q10 9 27 15.5t37 6.5q50 0 80.5 -30t30.5 -79q0 -50 -35 -80t-92 -30q-65 0 -104.5 36zM350 42.5q22 22.5 22 56.5q0 35 -22 57t-57 22t-57 -22
t-22 -57t22 -57t57 -22t57 22.5z" />
    <glyph glyph-name="uni0E45" unicode="&#xe45;" horiz-adv-x="564" 
d="M396 389q0 66 -38.5 106t-105.5 40q-62 0 -102.5 -37.5t-47.5 -103.5h-91q7 80 71.5 128t169.5 48q109 0 174.5 -52t65.5 -142v-576h-96v589z" />
    <glyph glyph-name="uni0E46" unicode="&#xe46;" horiz-adv-x="628" 
d="M458 423q0 108 -70 108q-48 0 -68 -59h-28q-21 59 -76 59q-37 0 -59.5 -26.5t-27.5 -77.5q8 7 22.5 11.5t30.5 4.5q50 0 81.5 -31t31.5 -80t-33 -80t-86 -31q-62 0 -99.5 40t-37.5 105q0 98 42.5 153t117.5 55q73 0 107 -56q17 28 45.5 42t58.5 14q71 0 108.5 -38.5
t37.5 -108.5v-613h-98v609zM235 275q22 22 22 57t-22 57t-57 22t-57.5 -22t-22.5 -57t22.5 -57t57.5 -22t57 22z" />
    <glyph glyph-name="uni0E47" unicode="&#xe47;" 
d="M-117 811q22 -22 22 -57q0 -47 -32.5 -76.5t-87.5 -29.5q-40 0 -69.5 13.5t-43.5 38.5q-15 -25 -40.5 -38.5t-59.5 -13.5q-54 0 -84 30.5t-30 77.5q0 55 30 82t75 34.5t112 7.5q80 0 119.5 13.5t39.5 58.5h79q-1 -44 -28.5 -66t-67.5 -28.5t-103 -7.5q-59 -1 -95.5 -7
t-59.5 -25.5t-23 -59.5q0 -31 17 -49.5t44 -18.5q22 0 37 12.5t19 33.5h39q5 -25 29.5 -40.5t60.5 -15.5q44 0 67 20q-12 -3 -24 -3q-31 0 -50.5 19t-19.5 50q0 29 20 48t51 19q35 0 57 -22zM-206 734.5q12 -12.5 31 -12.5t31.5 12.5t12.5 31.5t-12.5 31t-31.5 12t-31 -12
t-12 -31t12 -31.5z" />
    <glyph glyph-name="uni0E48" unicode="&#xe48;" 
d="M-164 874h88v-212h-88v212z" />
    <glyph glyph-name="uni0E49" unicode="&#xe49;" 
d="M-340 674q57 40 82 86q-8 -5 -20 -8t-23 -3q-37 0 -60.5 22.5t-23.5 57.5q0 38 24.5 61t64.5 23q44 0 69 -22.5t25 -61.5q0 -70 -56 -132q86 28 137.5 77.5t66.5 113.5h81q-11 -61 -63.5 -113t-130.5 -84.5t-165 -38.5zM-264 793q14 14 14 36q0 23 -14.5 37.5t-36.5 14.5
t-36.5 -14.5t-14.5 -37.5q0 -22 14 -36t37 -14t37 14z" />
    <glyph glyph-name="uni0E4A" unicode="&#xe4a;" 
d="M-506.5 687.5q-27.5 33.5 -27.5 88.5q0 54 31.5 85.5t83.5 31.5q47 0 73 -35q31 35 83 35q48 0 75.5 -29.5t27.5 -81.5q0 -25 -7 -51t-18 -43q41 10 54 49.5t13 99.5q0 23 4.5 33.5t14.5 18.5h74q-14 -10 -19.5 -30.5t-5.5 -49.5q-1 -80 -47.5 -113.5t-145.5 -33.5
l-14 11q15 22 24.5 51.5t9.5 55.5q0 35 -15.5 55t-42.5 20q-17 0 -32.5 -10t-21.5 -28h-21q-7 18 -23.5 28t-37.5 10q-32 0 -52.5 -20t-20.5 -51q9 13 27 22t37 9q36 0 58.5 -22.5t22.5 -58.5q0 -35 -23.5 -57.5t-61.5 -22.5q-49 0 -76.5 33.5zM-392.5 698.5
q13.5 13.5 13.5 35.5t-13.5 36t-35.5 14t-36 -14t-14 -36t14 -35.5t36 -13.5t35.5 13.5z" />
    <glyph glyph-name="uni0E4B" unicode="&#xe4b;" 
d="M37 750h-111v-88h-91v88h-112v52h112v88h91v-88h111v-52z" />
    <glyph glyph-name="uni0E4C" unicode="&#xe4c;" 
d="M-281 677.5q-28 25.5 -28 67.5q0 38 16.5 62t40 37t60.5 26q47 18 68.5 35t21.5 51h93q0 -44 -39.5 -69t-100.5 -43q-11 -3 -34 -12q32 -4 52 -28t20 -59q0 -41 -26.5 -67t-69.5 -26q-46 0 -74 25.5zM-162.5 702q16.5 17 16.5 43t-16.5 42.5t-42.5 16.5t-42.5 -16.5
t-16.5 -42.5t16.5 -43t42.5 -17t42.5 17z" />
    <glyph glyph-name="uni0E4D" unicode="&#xe4d;" 
d="M-219 670q-36 28 -36 74t35.5 73.5t94.5 27.5q58 0 93.5 -27.5t35.5 -73.5t-35.5 -74t-93.5 -28t-94 28zM-73.5 692q19.5 20 19.5 52t-20 52t-51 20q-32 0 -52 -20t-20 -52t20 -52t52 -20t51.5 20z" />
    <glyph glyph-name="uni0E4E" unicode="&#xe4e;" 
d="M-343 654.5q-37 21.5 -37 59.5q0 79 150 93q-31 8 -49.5 25t-18.5 38q0 41 46 64t112 23q35 0 67 -5v-36q-28 4 -54 4q-46 0 -74 -15t-28 -41q0 -21 25.5 -34t65.5 -14l-15 -33q-73 -3 -112.5 -17.5t-39.5 -45.5q0 -22 21.5 -33.5t60.5 -11.5q34 0 63 8v-37
q-35 -13 -89 -13q-57 0 -94 21.5z" />
    <glyph glyph-name="uni0E4F" unicode="&#xe4f;" horiz-adv-x="718" 
d="M198.5 31.5q-69.5 38.5 -108.5 108.5t-39 160t39 160t108.5 108.5t160.5 38.5t160.5 -38.5t108.5 -108.5t39 -160t-39 -160t-108.5 -108.5t-160.5 -38.5t-160.5 38.5zM493 73.5q58 32.5 90.5 91.5t32.5 135t-32.5 135t-90.5 91.5t-134 32.5t-134 -32.5t-90.5 -91.5
t-32.5 -135t32.5 -135t90.5 -91.5t134 -32.5t134 32.5zM231.5 172.5q-48.5 48.5 -48.5 127.5t48.5 127.5t127.5 48.5t127.5 -48.5t48.5 -127.5t-48.5 -127.5t-127.5 -48.5t-127.5 48.5zM455 202.5q37 37.5 37 97.5t-37 97.5t-96 37.5t-96 -37.5t-37 -97.5t37 -97.5t96 -37.5
t96 37.5z" />
    <glyph glyph-name="uni0E50" unicode="&#xe50;" horiz-adv-x="672" 
d="M186.5 18q-64.5 28 -99.5 80t-35 120t35 120t99.5 80t149.5 28t149 -28t99.5 -80t35.5 -120t-35.5 -120t-99.5 -80t-149 -28t-149.5 28zM473 81q51 51 51 137t-51 137t-137 51q-87 0 -138 -51t-51 -137t51 -137t138 -51q86 0 137 51z" />
    <glyph glyph-name="uni0E51" unicode="&#xe51;" horiz-adv-x="678" 
d="M314 -21q62 9 111 43t76.5 86.5t27.5 114.5q0 85 -51 134t-140 49t-139.5 -49t-50.5 -134q0 -73 36 -119.5t93 -46.5q27 0 45.5 8.5t26.5 22.5q-22 -10 -38 -10q-46 0 -74 28t-28 74q0 45 30.5 74t78.5 29q50 0 80 -31t30 -84q0 -67 -45.5 -108.5t-119.5 -41.5
q-62 0 -110 26t-74.5 73t-26.5 107q0 67 35.5 117t100 77.5t150.5 27.5t151 -27t100.5 -76.5t35.5 -115.5q0 -67 -33 -124t-92.5 -96.5t-138.5 -55.5zM368 129.5q20 19.5 20 49.5q0 32 -19.5 51.5t-51.5 19.5t-52 -19.5t-20 -51.5q0 -30 20 -49.5t52 -19.5q31 0 51 19.5z
" />
    <glyph glyph-name="uni0E52" unicode="&#xe52;" horiz-adv-x="708" 
d="M632 409.5q32 -36.5 32 -103.5v-306h-576v442q0 29 -19 51.5t-50 29.5l88 52q38 -8 57.5 -30.5t19.5 -59.5v-443h385v270q0 48 -13.5 69.5t-43.5 21.5q-38 0 -55 -52h-25q-7 23 -23.5 37.5t-37.5 14.5q-37 0 -59 -26.5t-22 -71.5v-3q27 24 68 24q50 0 81.5 -31t31.5 -80
t-31.5 -79.5t-83.5 -30.5q-62 0 -100 45t-38 118q0 82 37.5 130t100.5 48q28 0 52.5 -15t35.5 -38q13 25 39 39t58 14q59 0 91 -36.5zM303 269.5q-21 -21.5 -21 -54.5q0 -34 21 -55.5t55 -21.5t55.5 21.5t21.5 55.5t-21.5 55t-55.5 21t-55 -21.5z" />
    <glyph glyph-name="uni0E53" unicode="&#xe53;" horiz-adv-x="672" 
d="M108 48q-44 58 -44 160q0 110 48 174t130 64q71 0 101 -47q33 47 107 47t116.5 -40.5t42.5 -110.5v-295h-96v287q0 55 -22 86t-61 31q-49 0 -75 -55h-26q-17 55 -66 55q-46 0 -73 -48t-29 -132v-27q12 12 31.5 19.5t39.5 7.5q53 0 87 -32.5t34 -84.5t-35 -84.5t-91 -32.5
q-75 0 -119 58zM290 47.5q23 22.5 23 58.5q0 37 -23 60t-60 23q-36 0 -58.5 -23t-22.5 -60q0 -36 22.5 -58.5t58.5 -22.5q37 0 60 22.5z" />
    <glyph glyph-name="uni0E54" unicode="&#xe54;" horiz-adv-x="686" 
d="M256.5 367.5q-49.5 -14.5 -82.5 -52.5t-33 -112q0 -77 43.5 -123t118.5 -46q24 0 49 4t47 9l24 5q-53 23 -80.5 58t-27.5 86q0 54 35.5 88t91.5 34q52 0 84.5 -29.5t32.5 -77.5q0 -50 -32 -81.5t-82 -31.5q-17 0 -33 4q35 -29 92 -41t141 -18l-33 -51q-65 28 -122 28
q-33 0 -91 -13q-37 -8 -63.5 -12.5t-59.5 -4.5q-106 0 -168 56.5t-62 154.5q0 88 45 135t107 64.5t159 29.5q79 9 124 21.5t71 40.5t26 79v25h86v-25q0 -67 -38 -103t-92.5 -50t-140.5 -25q-87 -11 -136.5 -25.5zM389 263q-21 -21 -21 -55q0 -33 21 -54.5t54 -21.5
q34 0 55 21.5t21 54.5q0 34 -21 55t-55 21q-33 0 -54 -21z" />
    <glyph glyph-name="uni0E55" unicode="&#xe55;" horiz-adv-x="686" 
d="M256.5 367.5q-49.5 -14.5 -82.5 -52.5t-33 -112q0 -77 43.5 -123t118.5 -46q24 0 49 4t47 9l24 5q-53 23 -80.5 58t-27.5 86q0 54 35.5 88t91.5 34q52 0 84.5 -29.5t32.5 -77.5q0 -50 -32 -81.5t-82 -31.5q-17 0 -33 4q35 -29 92 -41t141 -18l-33 -51q-65 28 -122 28
q-33 0 -91 -13q-37 -8 -63.5 -12.5t-59.5 -4.5q-106 0 -168 56.5t-62 154.5q0 102 59 149t161 67q-25 12 -39 33t-14 47q0 42 33.5 68.5t86.5 26.5t87 -26.5t34 -68.5q0 -32 -22 -56q74 13 110 41.5t36 88.5v25h86v-25q0 -67 -38 -103t-92.5 -50t-140.5 -25
q-87 -11 -136.5 -25.5zM279.5 544q-20.5 -18 -20.5 -47t20.5 -47t53.5 -18q32 0 52.5 18t20.5 47t-20.5 47t-52.5 18q-33 0 -53.5 -18zM389 263q-21 -21 -21 -55q0 -33 21 -54.5t54 -21.5q34 0 55 21.5t21 54.5q0 34 -21 55t-55 21q-33 0 -54 -21z" />
    <glyph glyph-name="uni0E56" unicode="&#xe56;" horiz-adv-x="672" 
d="M215 12.5q-56 22.5 -87 62.5t-31 91q0 49 32 80t82 31q51 0 83 -30.5t32 -78.5q0 -47 -31 -75.5t-80 -25.5q23 -18 56.5 -27.5t70.5 -9.5q85 0 135.5 51t50.5 137t-51.5 137t-138.5 51q-56 0 -102 -21t-76 -60h-41q-15 74 -53.5 136.5t-86.5 90.5l70 38
q46 -30 77.5 -85.5t41.5 -122.5q28 29 77.5 46.5t107.5 17.5q81 0 142 -28t94.5 -79t33.5 -118q0 -69 -35 -121.5t-98.5 -81t-147.5 -28.5q-71 0 -127 22.5zM265.5 114.5q20.5 20.5 20.5 53.5t-20.5 53.5t-53.5 20.5t-53.5 -20.5t-20.5 -53.5t20.5 -53.5t53.5 -20.5
t53.5 20.5z" />
    <glyph glyph-name="uni0E57" unicode="&#xe57;" horiz-adv-x="714" 
d="M56.5 48.5q-44.5 58.5 -44.5 162.5q0 112 46 173.5t129 61.5q65 0 96 -47q14 22 39.5 34.5t59.5 12.5q69 0 108.5 -61t39.5 -157q0 -109 -49 -191q63 14 90 70t27 136q0 38 -6 114q-5 57 -5 94q0 53 18 91t69 46l49 -44q-58 -14 -58 -110q0 -40 5 -90q1 -10 3 -39.5
t2 -54.5q0 -119 -46 -184.5t-130 -65.5h-91l-11 15q24 40 37.5 91t13.5 106q0 88 -24.5 140.5t-65.5 52.5q-40 0 -62 -56h-26q-12 28 -26.5 42t-35.5 14q-45 0 -72.5 -48t-27.5 -123q0 -17 2 -41q11 14 32.5 23t44.5 9q53 0 86.5 -33t33.5 -85t-36 -84.5t-92 -32.5
q-78 0 -122.5 58.5zM244 48q23 23 23 59q0 37 -22.5 60t-59.5 23t-60 -23t-23 -60q0 -36 23 -59t59 -23q37 0 60 23z" />
    <glyph glyph-name="uni0E58" unicode="&#xe58;" horiz-adv-x="685" 
d="M92.5 45q-44.5 55 -44.5 156q0 84 32 136.5t101.5 78.5t183.5 30q77 3 116.5 13t55.5 31.5t16 62.5v17h86v-17q0 -50 -23.5 -80t-75.5 -45t-142 -19q-98 -5 -152.5 -25t-78 -63t-23.5 -119q0 -81 25.5 -126t71.5 -45q56 0 82 65h27q29 -65 112 -65q34 0 57 16t33 45
q-8 -7 -23 -11.5t-31 -4.5q-50 0 -82 31.5t-32 82.5q0 49 34 80.5t87 31.5q59 0 95.5 -35t36.5 -93q0 -86 -45.5 -135t-123.5 -49q-43 0 -78 16.5t-53 44.5q-37 -61 -117 -61q-83 0 -127.5 55zM560.5 130.5q22.5 22.5 22.5 57.5t-22.5 57t-58.5 22q-35 0 -56.5 -22
t-21.5 -57t22 -57.5t56 -22.5q36 0 58.5 22.5z" />
    <glyph glyph-name="uni0E59" unicode="&#xe59;" horiz-adv-x="750" 
d="M770 570v-17q0 -91 -24 -145t-73 -75q-26 53 -74 53q-32 0 -48.5 -30t-16.5 -87q0 -59 35 -142.5t77 -126.5h-90q-16 19 -32.5 53t-39.5 99q-37 102 -65.5 156t-59 76t-73.5 22q-73 0 -114.5 -51t-41.5 -140q0 -86 34.5 -136.5t93.5 -50.5q70 0 94 42q-26 -12 -52 -12
q-47 0 -77 29.5t-30 75.5t31.5 75.5t81.5 29.5t80.5 -30.5t30.5 -80.5q0 -79 -45 -123t-125 -44q-101 0 -155.5 58.5t-54.5 166.5q0 109 65 170t181 61q69 0 118 -28.5t83 -89.5q6 50 33.5 78.5t69.5 28.5q54 0 89 -44q24 35 24 99q0 42 -9 80h79zM358.5 108.5
q20.5 20.5 20.5 52.5q0 33 -20.5 53.5t-53.5 20.5t-53.5 -20.5t-20.5 -53.5q0 -32 20.5 -52.5t53.5 -20.5t53.5 20.5z" />
    <glyph glyph-name="uni0E5A" unicode="&#xe5a;" horiz-adv-x="791" 
d="M406 432q-29 -58 -77.5 -87.5t-123.5 -29.5q-92 0 -143 38t-51 105q0 50 33 81t85 31t83.5 -30t31.5 -79q0 -37 -19 -64.5t-54 -37.5q15 -4 39 -4q83 0 135.5 52.5t70.5 152.5h36q51 0 51 -44v-133q51 21 84.5 67.5t44.5 109.5h36q51 0 51 -44v-516h-97v437
q-17 -34 -48.5 -60.5t-70.5 -39.5v-337h-97v432zM186.5 399.5q22.5 22.5 22.5 58.5q0 35 -22.5 57t-57.5 22q-36 0 -58 -22t-22 -57q0 -36 22 -58.5t58 -22.5q35 0 57.5 22.5z" />
    <glyph glyph-name="uni0E5B" unicode="&#xe5b;" horiz-adv-x="1257" 
d="M125 84.5q-77 73.5 -77 203.5q0 134 65.5 209.5t185.5 75.5q103 0 159.5 -61.5t56.5 -177.5q0 -81 -43.5 -127t-121.5 -46q-59 0 -96 35t-37 92t37 92t96 35q64 0 97 -45q-3 79 -39.5 123t-104.5 44q-80 0 -124.5 -66t-44.5 -183q0 -113 55 -177t153 -64
q126 0 184.5 105.5t58.5 319.5h56q63 0 92.5 -24t40 -86.5t10.5 -194.5q38 6 50.5 64.5t12.5 185.5h54q46 0 69.5 -18.5t32 -61t8.5 -122.5q24 7 32.5 47t8.5 105h46q41 0 61 -25t20 -80q37 2 62 37v-38q-7 -17 -26.5 -28.5t-43.5 -11.5h-27q-1 46 -9.5 72t-28.5 37
q-11 -157 -112 -157h-33q0 96 -10.5 145.5t-39.5 57.5q0 -103 -34.5 -175.5t-107.5 -72.5h-40q0 119 -6.5 182.5t-22 92t-45.5 31.5q0 -131 -39 -226.5t-110.5 -146t-167.5 -50.5q-136 0 -213 73.5zM420.5 219q26.5 26 26.5 69t-26.5 69t-70.5 26t-70.5 -26t-26.5 -69
t26.5 -69t70.5 -26t70.5 26z" />
    <glyph glyph-name="uni1E0C" unicode="&#x1e0c;" horiz-adv-x="803" 
d="M75 700h272q196 0 298 -86t102 -252q0 -173 -102.5 -267.5t-291.5 -94.5h-278v700zM367 48q133 0 204.5 81t71.5 233q0 143 -70 216.5t-206 73.5h-188v-604h188zM306.5 -132.5q-14.5 14.5 -14.5 36.5t14.5 36t37.5 14t37.5 -14t14.5 -36t-14.5 -36.5t-37.5 -14.5
t-37.5 14.5z" />
    <glyph glyph-name="uni1E0D" unicode="&#x1e0d;" horiz-adv-x="659" 
d="M172.5 22.5q-58.5 32.5 -91 90.5t-32.5 132q0 76 31 133.5t87.5 89.5t130.5 32q67 0 119 -26.5t81 -74.5v284h92v-683h-92v89q-28 -48 -77.5 -73.5t-114.5 -25.5q-75 0 -133.5 32.5zM412.5 56.5q40.5 26.5 63 75t22.5 111.5q0 65 -22.5 114.5t-64 76t-95.5 26.5
q-80 0 -127.5 -57.5t-47.5 -155.5q0 -65 22 -114t62.5 -76t93.5 -27t93.5 26.5zM291.5 -132.5q-14.5 14.5 -14.5 36.5t14.5 36t37.5 14t37.5 -14t14.5 -36t-14.5 -36.5t-37.5 -14.5t-37.5 14.5z" />
    <glyph glyph-name="uni1E0E" unicode="&#x1e0e;" horiz-adv-x="803" 
d="M75 700h272q196 0 298 -86t102 -252q0 -173 -102.5 -267.5t-291.5 -94.5h-278v700zM367 48q133 0 204.5 81t71.5 233q0 143 -70 216.5t-206 73.5h-188v-604h188zM190 -80h308v-44h-308v44z" />
    <glyph glyph-name="uni1E0F" unicode="&#x1e0f;" horiz-adv-x="659" 
d="M172.5 22.5q-58.5 32.5 -91 90.5t-32.5 132q0 76 31 133.5t87.5 89.5t130.5 32q67 0 119 -26.5t81 -74.5v284h92v-683h-92v89q-28 -48 -77.5 -73.5t-114.5 -25.5q-75 0 -133.5 32.5zM412.5 56.5q40.5 26.5 63 75t22.5 111.5q0 65 -22.5 114.5t-64 76t-95.5 26.5
q-80 0 -127.5 -57.5t-47.5 -155.5q0 -65 22 -114t62.5 -76t93.5 -27t93.5 26.5zM175 -80h308v-44h-308v44z" />
    <glyph glyph-name="uni1E20" unicode="&#x1e20;" horiz-adv-x="831" 
d="M234 32.5q-87 42.5 -133 123.5t-46 193t45 193t130 124.5t202 43.5q142 0 233.5 -61.5t110.5 -169.5h-90q-18 88 -83 135.5t-168 47.5q-129 0 -202 -82.5t-73 -229.5q0 -149 74.5 -230.5t209.5 -81.5q63 0 115 13.5t99 42.5v227h-245v45h349v-279q-59 -47 -140.5 -72
t-178.5 -25q-122 0 -209 42.5zM283 834h308v-44h-308v44z" />
    <glyph glyph-name="uni1E21" unicode="&#x1e21;" horiz-adv-x="644" 
d="M519 493q-47 0 -80 -13q52 -20 80 -57t28 -89q0 -72 -57.5 -120.5t-173.5 -52.5q-44 -2 -74 -12.5t-30 -25.5q0 -13 19.5 -19.5t49.5 -6.5h43q124 0 191.5 -34.5t67.5 -98.5q0 -48 -34.5 -83.5t-98 -55t-147.5 -19.5q-80 0 -139.5 16.5t-92 46t-32.5 68.5q0 42 40 70.5
t124 39.5q-46 6 -68 23.5t-22 41.5t27 43t71 24q-67 18 -99.5 58t-32.5 98q0 75 64 120t170 45q46 0 80 -7q27 25 62 38t74 13q40 0 66 -9v-57q-33 15 -76 15zM419 235.5q37 32.5 37 95.5q0 62 -37 95t-106 33q-68 0 -105 -33t-37 -95q0 -63 36.5 -95.5t105.5 -32.5
t106 32.5zM169 14.5q-59 -26.5 -59 -72.5q0 -44 53 -71.5t141 -27.5q92 0 147.5 32t55.5 82q0 42 -47.5 63t-126.5 21q-105 0 -164 -26.5zM167 624h308v-44h-308v44z" />
    <glyph glyph-name="uni1E24" unicode="&#x1e24;" horiz-adv-x="805" 
d="M74 700h104v-301h449v301h104v-700h-104v352h-449v-352h-104v700zM365.5 -132.5q-14.5 14.5 -14.5 36.5t14.5 36t37.5 14t37.5 -14t14.5 -36t-14.5 -36.5t-37.5 -14.5t-37.5 14.5z" />
    <glyph glyph-name="uni1E25" unicode="&#x1e25;" horiz-adv-x="617" 
d="M69 683h92v-287q26 49 77.5 76.5t116.5 27.5q96 0 149.5 -47.5t53.5 -132.5v-320h-92v329q0 62 -34 96t-97 34q-79 0 -126.5 -52t-47.5 -137v-270h-92v683zM271.5 -132.5q-14.5 14.5 -14.5 36.5t14.5 36t37.5 14t37.5 -14t14.5 -36t-14.5 -36.5t-37.5 -14.5t-37.5 14.5z
" />
    <glyph glyph-name="uni1E2A" unicode="&#x1e2a;" horiz-adv-x="805" 
d="M74 700h104v-301h449v301h104v-700h-104v352h-449v-352h-104v700zM287.5 -152.5q-42.5 37.5 -45.5 102.5h35q5 -44 38.5 -69.5t87.5 -25.5t87.5 25.5t38.5 69.5h35q-3 -65 -45.5 -102.5t-115.5 -37.5t-115.5 37.5z" />
    <glyph glyph-name="uni1E2B" unicode="&#x1e2b;" horiz-adv-x="617" 
d="M69 683h92v-287q26 49 77.5 76.5t116.5 27.5q96 0 149.5 -47.5t53.5 -132.5v-320h-92v329q0 62 -34 96t-97 34q-79 0 -126.5 -52t-47.5 -137v-270h-92v683zM193.5 -152.5q-42.5 37.5 -45.5 102.5h35q5 -44 38.5 -69.5t87.5 -25.5t87.5 25.5t38.5 69.5h35
q-3 -65 -45.5 -102.5t-115.5 -37.5t-115.5 37.5z" />
    <glyph glyph-name="uni1E36" unicode="&#x1e36;" horiz-adv-x="636" 
d="M74 700h104v-652h440v-48h-544v700zM299.5 -132.5q-14.5 14.5 -14.5 36.5t14.5 36t37.5 14t37.5 -14t14.5 -36t-14.5 -36.5t-37.5 -14.5t-37.5 14.5z" />
    <glyph glyph-name="uni1E37" unicode="&#x1e37;" horiz-adv-x="284" 
d="M96 683h92v-683h-92v683zM104.5 -132.5q-14.5 14.5 -14.5 36.5t14.5 36t37.5 14t37.5 -14t14.5 -36t-14.5 -36.5t-37.5 -14.5t-37.5 14.5z" />
    <glyph glyph-name="uni1E38" unicode="&#x1e38;" horiz-adv-x="636" 
d="M74 700h104v-652h440v-48h-544v700zM299.5 -132.5q-14.5 14.5 -14.5 36.5t14.5 36t37.5 14t37.5 -14t14.5 -36t-14.5 -36.5t-37.5 -14.5t-37.5 14.5zM51 834h308v-44h-308v44z" />
    <glyph glyph-name="uni1E39" unicode="&#x1e39;" horiz-adv-x="284" 
d="M96 683h92v-683h-92v683zM104.5 -132.5q-14.5 14.5 -14.5 36.5t14.5 36t37.5 14t37.5 -14t14.5 -36t-14.5 -36.5t-37.5 -14.5t-37.5 14.5zM-12 817h308v-44h-308v44z" />
    <glyph glyph-name="uni1E3A" unicode="&#x1e3a;" horiz-adv-x="636" 
d="M74 700h104v-652h440v-48h-544v700zM183 -80h308v-44h-308v44z" />
    <glyph glyph-name="uni1E3B" unicode="&#x1e3b;" horiz-adv-x="284" 
d="M96 683h92v-683h-92v683zM-12 -80h308v-44h-308v44z" />
    <glyph glyph-name="uni1E42" unicode="&#x1e42;" horiz-adv-x="928" 
d="M853 700v-700h-104v588l-272 -588h-49l-292 596v-596h-62v700h119l279 -576l267 576h114zM414.5 -132.5q-14.5 14.5 -14.5 36.5t14.5 36t37.5 14t37.5 -14t14.5 -36t-14.5 -36.5t-37.5 -14.5t-37.5 14.5z" />
    <glyph glyph-name="uni1E43" unicode="&#x1e43;" horiz-adv-x="954" 
d="M70 490h90v-83q22 44 67.5 68.5t104.5 24.5q71 0 117.5 -30t65.5 -87q23 59 69.5 88t111.5 29q96 0 147 -47.5t51 -135.5v-317h-92v326q0 61 -34.5 97t-92.5 36q-68 0 -108 -56.5t-40 -155.5v-247h-90v283q0 85 -34.5 130.5t-98.5 45.5q-65 0 -103.5 -48.5t-38.5 -131.5
v-279h-92v490zM439.5 -132.5q-14.5 14.5 -14.5 36.5t14.5 36t37.5 14t37.5 -14t14.5 -36t-14.5 -36.5t-37.5 -14.5t-37.5 14.5z" />
    <glyph glyph-name="uni1E44" unicode="&#x1e44;" horiz-adv-x="767" 
d="M74 700h105l426 -543v543h88v-700h-52l-479 609v-609h-88v700zM346.5 784q-14.5 14 -14.5 36t15 36.5t37 14.5t37 -14.5t15 -36.5t-14.5 -36t-37.5 -14t-37.5 14z" />
    <glyph glyph-name="uni1E45" unicode="&#x1e45;" horiz-adv-x="619" 
d="M70 490h92v-86q24 44 74.5 70t113.5 26q97 0 153 -50.5t56 -136.5v-313h-92v323q0 65 -36 100.5t-102 35.5q-76 0 -121.5 -49.5t-45.5 -130.5v-279h-92v490zM271.5 574q-14.5 14 -14.5 36t15 36.5t37 14.5t37 -14.5t15 -36.5t-14.5 -36t-37.5 -14t-37.5 14z" />
    <glyph glyph-name="uni1E46" unicode="&#x1e46;" horiz-adv-x="767" 
d="M74 700h105l426 -543v543h88v-700h-52l-479 609v-609h-88v700zM346.5 -132.5q-14.5 14.5 -14.5 36.5t14.5 36t37.5 14t37.5 -14t14.5 -36t-14.5 -36.5t-37.5 -14.5t-37.5 14.5z" />
    <glyph glyph-name="uni1E47" unicode="&#x1e47;" horiz-adv-x="619" 
d="M70 490h92v-86q24 44 74.5 70t113.5 26q97 0 153 -50.5t56 -136.5v-313h-92v323q0 65 -36 100.5t-102 35.5q-76 0 -121.5 -49.5t-45.5 -130.5v-279h-92v490zM271.5 -132.5q-14.5 14.5 -14.5 36.5t14.5 36t37.5 14t37.5 -14t14.5 -36t-14.5 -36.5t-37.5 -14.5t-37.5 14.5z
" />
    <glyph glyph-name="uni1E48" unicode="&#x1e48;" horiz-adv-x="767" 
d="M74 700h105l426 -543v543h88v-700h-52l-479 609v-609h-88v700zM230 -80h308v-44h-308v44z" />
    <glyph glyph-name="uni1E49" unicode="&#x1e49;" horiz-adv-x="619" 
d="M70 490h92v-86q24 44 74.5 70t113.5 26q97 0 153 -50.5t56 -136.5v-313h-92v323q0 65 -36 100.5t-102 35.5q-76 0 -121.5 -49.5t-45.5 -130.5v-279h-92v490zM155 -80h308v-44h-308v44z" />
    <glyph glyph-name="uni1E5A" unicode="&#x1e5a;" horiz-adv-x="701" 
d="M650.5 54.5q19.5 -34.5 38.5 -46.5v-8h-109q-17 19 -31.5 48t-31.5 74q-28 74 -57 114.5t-71 53.5h-26h-185v-290h-104v700h289q144 0 222.5 -50.5t78.5 -154.5q0 -155 -175 -193q38 -19 66 -55.5t53 -99.5q23 -58 42.5 -92.5zM365 337q196 0 196 158q0 157 -196 157
h-187v-315h187zM313.5 -132.5q-14.5 14.5 -14.5 36.5t14.5 36t37.5 14t37.5 -14t14.5 -36t-14.5 -36.5t-37.5 -14.5t-37.5 14.5z" />
    <glyph glyph-name="uni1E5B" unicode="&#x1e5b;" horiz-adv-x="363" 
d="M67 490h92v-105q19 55 60.5 85t100.5 30q23 0 34 -4l-9 -64q-15 8 -42 8q-68 0 -106 -57t-38 -144v-239h-92v490zM78.5 -132.5q-14.5 14.5 -14.5 36.5t14.5 36t37.5 14t37.5 -14t14.5 -36t-14.5 -36.5t-37.5 -14.5t-37.5 14.5z" />
    <glyph glyph-name="uni1E5C" unicode="&#x1e5c;" horiz-adv-x="701" 
d="M650.5 54.5q19.5 -34.5 38.5 -46.5v-8h-109q-17 19 -31.5 48t-31.5 74q-28 74 -57 114.5t-71 53.5h-26h-185v-290h-104v700h289q144 0 222.5 -50.5t78.5 -154.5q0 -155 -175 -193q38 -19 66 -55.5t53 -99.5q23 -58 42.5 -92.5zM365 337q196 0 196 158q0 157 -196 157
h-187v-315h187zM313.5 -132.5q-14.5 14.5 -14.5 36.5t14.5 36t37.5 14t37.5 -14t14.5 -36t-14.5 -36.5t-37.5 -14.5t-37.5 14.5zM197 834h308v-44h-308v44z" />
    <glyph glyph-name="uni1E5D" unicode="&#x1e5d;" horiz-adv-x="363" 
d="M67 490h92v-105q19 55 60.5 85t100.5 30q23 0 34 -4l-9 -64q-15 8 -42 8q-68 0 -106 -57t-38 -144v-239h-92v490zM78.5 -132.5q-14.5 14.5 -14.5 36.5t14.5 36t37.5 14t37.5 -14t14.5 -36t-14.5 -36.5t-37.5 -14.5t-37.5 14.5zM51 624h308v-44h-308v44z" />
    <glyph glyph-name="uni1E5E" unicode="&#x1e5e;" horiz-adv-x="701" 
d="M650.5 54.5q19.5 -34.5 38.5 -46.5v-8h-109q-17 19 -31.5 48t-31.5 74q-28 74 -57 114.5t-71 53.5h-26h-185v-290h-104v700h289q144 0 222.5 -50.5t78.5 -154.5q0 -155 -175 -193q38 -19 66 -55.5t53 -99.5q23 -58 42.5 -92.5zM365 337q196 0 196 158q0 157 -196 157
h-187v-315h187zM197 -80h308v-44h-308v44z" />
    <glyph glyph-name="uni1E5F" unicode="&#x1e5f;" horiz-adv-x="363" 
d="M67 490h92v-105q19 55 60.5 85t100.5 30q23 0 34 -4l-9 -64q-15 8 -42 8q-68 0 -106 -57t-38 -144v-239h-92v490zM-38 -80h308v-44h-308v44z" />
    <glyph glyph-name="uni1E60" unicode="&#x1e60;" horiz-adv-x="764" 
d="M154 49q-87 59 -96 168h90q7 -92 66.5 -135.5t175.5 -43.5q103 0 157.5 36t54.5 103q0 40 -21 67t-71.5 48t-141.5 39q-145 28 -218.5 72.5t-73.5 125.5q0 90 84 135.5t221 45.5q139 0 216.5 -49.5t89.5 -137.5h-89q-15 73 -70.5 106t-153.5 33q-95 0 -144.5 -31
t-49.5 -86q0 -33 19 -56t66.5 -42t135.5 -37q108 -22 173.5 -48t98.5 -67.5t33 -105.5q0 -94 -84.5 -146.5t-229.5 -52.5q-151 0 -238 59zM345.5 784q-14.5 14 -14.5 36t15 36.5t37 14.5t37 -14.5t15 -36.5t-14.5 -36t-37.5 -14t-37.5 14z" />
    <glyph glyph-name="uni1E61" unicode="&#x1e61;" horiz-adv-x="590" 
d="M126.5 30q-63.5 40 -76.5 112h76q8 -52 52.5 -81.5t117.5 -29.5q69 0 110.5 28t41.5 74q0 37 -36 58.5t-120 35.5t-133.5 31.5t-71.5 43t-22 63.5q0 62 59.5 98.5t166.5 36.5q104 0 168.5 -39.5t74.5 -110.5h-76q-9 51 -52 80t-109 29q-63 0 -101.5 -22.5t-38.5 -60.5
q0 -23 13 -37t47.5 -25t102.5 -23q116 -20 168 -55.5t52 -96.5q0 -70 -65.5 -109.5t-181.5 -39.5q-103 0 -166.5 40zM254.5 574q-14.5 14 -14.5 36t15 36.5t37 14.5t37 -14.5t15 -36.5t-14.5 -36t-37.5 -14t-37.5 14z" />
    <glyph glyph-name="uni1E62" unicode="&#x1e62;" horiz-adv-x="764" 
d="M154 49q-87 59 -96 168h90q7 -92 66.5 -135.5t175.5 -43.5q103 0 157.5 36t54.5 103q0 40 -21 67t-71.5 48t-141.5 39q-145 28 -218.5 72.5t-73.5 125.5q0 90 84 135.5t221 45.5q139 0 216.5 -49.5t89.5 -137.5h-89q-15 73 -70.5 106t-153.5 33q-95 0 -144.5 -31
t-49.5 -86q0 -33 19 -56t66.5 -42t135.5 -37q108 -22 173.5 -48t98.5 -67.5t33 -105.5q0 -94 -84.5 -146.5t-229.5 -52.5q-151 0 -238 59zM345.5 -132.5q-14.5 14.5 -14.5 36.5t14.5 36t37.5 14t37.5 -14t14.5 -36t-14.5 -36.5t-37.5 -14.5t-37.5 14.5z" />
    <glyph glyph-name="uni1E63" unicode="&#x1e63;" horiz-adv-x="590" 
d="M126.5 30q-63.5 40 -76.5 112h76q8 -52 52.5 -81.5t117.5 -29.5q69 0 110.5 28t41.5 74q0 37 -36 58.5t-120 35.5t-133.5 31.5t-71.5 43t-22 63.5q0 62 59.5 98.5t166.5 36.5q104 0 168.5 -39.5t74.5 -110.5h-76q-9 51 -52 80t-109 29q-63 0 -101.5 -22.5t-38.5 -60.5
q0 -23 13 -37t47.5 -25t102.5 -23q116 -20 168 -55.5t52 -96.5q0 -70 -65.5 -109.5t-181.5 -39.5q-103 0 -166.5 40zM256.5 -132.5q-14.5 14.5 -14.5 36.5t14.5 36t37.5 14t37.5 -14t14.5 -36t-14.5 -36.5t-37.5 -14.5t-37.5 14.5z" />
    <glyph glyph-name="uni1E6C" unicode="&#x1e6c;" horiz-adv-x="713" 
d="M305 652h-296v48h695v-48h-295v-652h-104v652zM319.5 -132.5q-14.5 14.5 -14.5 36.5t14.5 36t37.5 14t37.5 -14t14.5 -36t-14.5 -36.5t-37.5 -14.5t-37.5 14.5z" />
    <glyph glyph-name="uni1E6D" unicode="&#x1e6d;" horiz-adv-x="357" 
d="M133 26q-32 36 -32 111v312h-88l14 41h75l36 138h55v-138h137l-13 -41h-124v-326q0 -91 68 -91q36 0 70 19v-43q-42 -18 -101 -18q-65 0 -97 36zM199.5 -132.5q-14.5 14.5 -14.5 36.5t14.5 36t37.5 14t37.5 -14t14.5 -36t-14.5 -36.5t-37.5 -14.5t-37.5 14.5z" />
    <glyph glyph-name="uni1E6E" unicode="&#x1e6e;" horiz-adv-x="713" 
d="M305 652h-296v48h695v-48h-295v-652h-104v652zM203 -80h308v-44h-308v44z" />
    <glyph glyph-name="uni1E6F" unicode="&#x1e6f;" horiz-adv-x="357" 
d="M133 26q-32 36 -32 111v312h-88l14 41h75l36 138h55v-138h137l-13 -41h-124v-326q0 -91 68 -91q36 0 70 19v-43q-42 -18 -101 -18q-65 0 -97 36zM83 -80h308v-44h-308v44z" />
    <glyph glyph-name="Wgrave" unicode="&#x1e80;" horiz-adv-x="994" 
d="M6 700h108l179 -530l190 530h61l193 -551l191 551h61l-244 -710h-54l-198 564l-197 -564h-45zM326 877q-38 26 -38 47q0 11 8.5 18.5t23.5 7.5q30 0 53 -26l141 -154h-35z" />
    <glyph glyph-name="wgrave" unicode="&#x1e81;" horiz-adv-x="837" 
d="M11 490h97l156 -363l142 373h45l158 -382l161 372h56l-215 -500h-43l-156 373l-142 -373h-41zM247 667q-38 26 -38 47q0 11 8.5 18.5t23.5 7.5q30 0 53 -26l141 -154h-35z" />
    <glyph glyph-name="Wacute" unicode="&#x1e82;" horiz-adv-x="994" 
d="M6 700h108l179 -530l190 530h61l193 -551l191 551h61l-244 -710h-54l-198 564l-197 -564h-45zM623 924q23 26 53 26q15 0 23.5 -7.5t8.5 -18.5q0 -21 -38 -47l-153 -107h-35z" />
    <glyph glyph-name="wacute" unicode="&#x1e83;" horiz-adv-x="837" 
d="M11 490h97l156 -363l142 373h45l158 -382l161 372h56l-215 -500h-43l-156 373l-142 -373h-41zM544 714q23 26 53 26q15 0 23.5 -7.5t8.5 -18.5q0 -21 -38 -47l-153 -107h-35z" />
    <glyph glyph-name="Wdieresis" unicode="&#x1e84;" horiz-adv-x="994" 
d="M6 700h108l179 -530l190 530h61l193 -551l191 551h61l-244 -710h-54l-198 564l-197 -564h-45zM348.5 784q-14.5 14 -14.5 36t15 36.5t37 14.5t37 -14.5t15 -36.5t-14.5 -36t-37.5 -14t-37.5 14zM572.5 784q-14.5 14 -14.5 36t15 36.5t37 14.5t37 -14.5t15 -36.5
t-14.5 -36t-37.5 -14t-37.5 14z" />
    <glyph glyph-name="wdieresis" unicode="&#x1e85;" horiz-adv-x="837" 
d="M11 490h97l156 -363l142 373h45l158 -382l161 372h56l-215 -500h-43l-156 373l-142 -373h-41zM269.5 574q-14.5 14 -14.5 36t15 36.5t37 14.5t37 -14.5t15 -36.5t-14.5 -36t-37.5 -14t-37.5 14zM493.5 574q-14.5 14 -14.5 36t15 36.5t37 14.5t37 -14.5t15 -36.5
t-14.5 -36t-37.5 -14t-37.5 14z" />
    <glyph glyph-name="uni1E8E" unicode="&#x1e8e;" horiz-adv-x="724" 
d="M304 304l-300 396h113l255 -335l275 335h73l-312 -381v-319h-104v304zM324.5 784q-14.5 14 -14.5 36t15 36.5t37 14.5t37 -14.5t15 -36.5t-14.5 -36t-37.5 -14t-37.5 14z" />
    <glyph glyph-name="uni1E8F" unicode="&#x1e8f;" horiz-adv-x="571" 
d="M57.5 -185q-27.5 8 -45.5 22l28 49q11 -15 31.5 -24t39.5 -9q33 0 66.5 21.5t54.5 55.5t21 69q0 34 -16 63l-229 428h102l202 -395l192 395h58l-245 -505q-87 -178 -201 -178q-31 0 -58.5 8zM247.5 574q-14.5 14 -14.5 36t15 36.5t37 14.5t37 -14.5t15 -36.5t-14.5 -36
t-37.5 -14t-37.5 14z" />
    <glyph glyph-name="uni1E92" unicode="&#x1e92;" horiz-adv-x="655" 
d="M18 9l486 643h-451v48h584v-9l-486 -643h466v-48h-599v9zM290.5 -132.5q-14.5 14.5 -14.5 36.5t14.5 36t37.5 14t37.5 -14t14.5 -36t-14.5 -36.5t-37.5 -14.5t-37.5 14.5z" />
    <glyph glyph-name="uni1E93" unicode="&#x1e93;" horiz-adv-x="544" 
d="M393 449h-330l14 41h439l-364 -449h357l-15 -41h-466zM234.5 -132.5q-14.5 14.5 -14.5 36.5t14.5 36t37.5 14t37.5 -14t14.5 -36t-14.5 -36.5t-37.5 -14.5t-37.5 14.5z" />
    <glyph glyph-name="uni1E97" unicode="&#x1e97;" horiz-adv-x="357" 
d="M133 26q-32 36 -32 111v312h-88l14 41h75l36 138h55v-138h137l-13 -41h-124v-326q0 -91 68 -91q36 0 70 19v-43q-42 -18 -101 -18q-65 0 -97 36zM13.5 712q-14.5 14 -14.5 36t15 36.5t37 14.5t37 -14.5t15 -36.5t-14.5 -36t-37.5 -14t-37.5 14zM237.5 712
q-14.5 14 -14.5 36t15 36.5t37 14.5t37 -14.5t15 -36.5t-14.5 -36t-37.5 -14t-37.5 14z" />
    <glyph glyph-name="uni1E9E" unicode="&#x1e9e;" horiz-adv-x="734" 
d="M335 32.5q-58 42.5 -63 117.5h87q9 -115 130 -115q59 0 92.5 26t33.5 73q0 24 -8.5 40.5t-31.5 34t-69 40.5q-66 34 -97 73t-31 88q0 52 31.5 91.5t100.5 69.5q-10 46 -52 70.5t-114 24.5q-77 0 -122 -34t-45 -93v-539h-104v514q0 59 33.5 103.5t96 68.5t145.5 24
q73 0 129 -19.5t87 -54.5t31 -80q-62 -20 -91.5 -51.5t-29.5 -81.5q0 -29 10 -50.5t36.5 -42.5t75.5 -46q67 -34 92.5 -66.5t25.5 -77.5q0 -71 -60.5 -110.5t-161.5 -39.5q-99 0 -157 42.5z" />
    <glyph glyph-name="uni1EA0" unicode="&#x1ea0;" horiz-adv-x="779" 
d="M573 182h-403l-91 -182h-70l364 710h54l343 -710h-112zM550 230l-172 368l-184 -368h356zM352.5 -132.5q-14.5 14.5 -14.5 36.5t14.5 36t37.5 14t37.5 -14t14.5 -36t-14.5 -36.5t-37.5 -14.5t-37.5 14.5z" />
    <glyph glyph-name="uni1EA1" unicode="&#x1ea1;" horiz-adv-x="611" 
d="M107.5 29q-50.5 39 -50.5 111q0 77 61 117.5t178 40.5h146v36q0 61 -37 93t-107 32q-66 0 -106 -30.5t-47 -86.5h-72q10 76 70 117t160 41q112 0 171 -45.5t59 -131.5v-162q0 -86 15 -161h-86q-11 45 -14 86q-60 -96 -193 -96q-97 0 -147.5 39zM361.5 50.5
q37.5 21.5 59 57.5t21.5 80v69h-121q-88 0 -130.5 -28.5t-42.5 -87.5q0 -55 33 -83.5t97 -28.5q46 0 83.5 21.5zM262.5 -132.5q-14.5 14.5 -14.5 36.5t14.5 36t37.5 14t37.5 -14t14.5 -36t-14.5 -36.5t-37.5 -14.5t-37.5 14.5z" />
    <glyph glyph-name="uni1EA2" unicode="&#x1ea2;" horiz-adv-x="779" 
d="M573 182h-403l-91 -182h-70l364 710h54l343 -710h-112zM550 230l-172 368l-184 -368h356zM361 788q0 21 12.5 34.5t35.5 28.5t35 28t12 34q0 19 -13.5 29.5t-37.5 10.5t-38.5 -11.5t-18.5 -32.5h-50q2 37 31.5 60t76.5 23q46 0 75 -22t29 -58q0 -29 -14.5 -45.5
t-40.5 -32.5q-19 -13 -28.5 -22.5t-9.5 -23.5q0 -10 4 -18h-56q-4 12 -4 18z" />
    <glyph glyph-name="uni1EA3" unicode="&#x1ea3;" horiz-adv-x="611" 
d="M107.5 29q-50.5 39 -50.5 111q0 77 61 117.5t178 40.5h146v36q0 61 -37 93t-107 32q-66 0 -106 -30.5t-47 -86.5h-72q10 76 70 117t160 41q112 0 171 -45.5t59 -131.5v-162q0 -86 15 -161h-86q-11 45 -14 86q-60 -96 -193 -96q-97 0 -147.5 39zM361.5 50.5
q37.5 21.5 59 57.5t21.5 80v69h-121q-88 0 -130.5 -28.5t-42.5 -87.5q0 -55 33 -83.5t97 -28.5q46 0 83.5 21.5zM272 578q0 21 12.5 34.5t35.5 28.5t35 28t12 34q0 19 -13.5 29.5t-37.5 10.5t-38.5 -11.5t-18.5 -32.5h-50q2 37 31.5 60t76.5 23q46 0 75 -22t29 -58
q0 -29 -14.5 -45.5t-40.5 -32.5q-19 -13 -28.5 -22.5t-9.5 -23.5q0 -10 4 -18h-56q-4 12 -4 18z" />
    <glyph glyph-name="uni1EA4" unicode="&#x1ea4;" horiz-adv-x="779" 
d="M573 182h-403l-91 -182h-70l364 710h54l343 -710h-112zM550 230l-172 368l-184 -368h356zM588 1002q21 24 40 24q13 0 21 -6.5t8 -17.5q0 -10 -10 -20t-36 -30l-88 -64h-33zM359 923h70l124 -153h-49l-110 106l-110 -106h-49z" />
    <glyph glyph-name="uni1EA5" unicode="&#x1ea5;" horiz-adv-x="611" 
d="M107.5 29q-50.5 39 -50.5 111q0 77 61 117.5t178 40.5h146v36q0 61 -37 93t-107 32q-66 0 -106 -30.5t-47 -86.5h-72q10 76 70 117t160 41q112 0 171 -45.5t59 -131.5v-162q0 -86 15 -161h-86q-11 45 -14 86q-60 -96 -193 -96q-97 0 -147.5 39zM361.5 50.5
q37.5 21.5 59 57.5t21.5 80v69h-121q-88 0 -130.5 -28.5t-42.5 -87.5q0 -55 33 -83.5t97 -28.5q46 0 83.5 21.5zM499 792q21 24 40 24q13 0 21 -6.5t8 -17.5q0 -10 -10 -20t-36 -30l-88 -64h-33zM270 713h70l124 -153h-49l-110 106l-110 -106h-49z" />
    <glyph glyph-name="uni1EA6" unicode="&#x1ea6;" horiz-adv-x="779" 
d="M573 182h-403l-91 -182h-70l364 710h54l343 -710h-112zM550 230l-172 368l-184 -368h356zM478 952q-25 19 -35.5 29.5t-10.5 20.5q0 11 8 17.5t21 6.5q20 0 39 -24l99 -114h-34zM359 923h70l124 -153h-49l-110 106l-110 -106h-49z" />
    <glyph glyph-name="uni1EA7" unicode="&#x1ea7;" horiz-adv-x="611" 
d="M107.5 29q-50.5 39 -50.5 111q0 77 61 117.5t178 40.5h146v36q0 61 -37 93t-107 32q-66 0 -106 -30.5t-47 -86.5h-72q10 76 70 117t160 41q112 0 171 -45.5t59 -131.5v-162q0 -86 15 -161h-86q-11 45 -14 86q-60 -96 -193 -96q-97 0 -147.5 39zM361.5 50.5
q37.5 21.5 59 57.5t21.5 80v69h-121q-88 0 -130.5 -28.5t-42.5 -87.5q0 -55 33 -83.5t97 -28.5q46 0 83.5 21.5zM389 742q-25 19 -35.5 29.5t-10.5 20.5q0 11 8 17.5t21 6.5q20 0 39 -24l99 -114h-34zM270 713h70l124 -153h-49l-110 106l-110 -106h-49z" />
    <glyph glyph-name="uni1EA8" unicode="&#x1ea8;" horiz-adv-x="779" 
d="M573 182h-403l-91 -182h-70l364 710h54l343 -710h-112zM550 230l-172 368l-184 -368h356zM488 928q0 15 7.5 24t23.5 20q15 10 23 20t8 24q0 12 -8 20t-25 8q-18 0 -26.5 -9t-9.5 -21h-39q0 26 22 41t56 15t54 -15t20 -41q0 -19 -9 -29.5t-27 -23.5q-13 -8 -19.5 -15.5
t-6.5 -17.5q0 -7 3 -13h-45q-2 8 -2 13zM359 923h70l124 -153h-49l-110 106l-110 -106h-49z" />
    <glyph glyph-name="uni1EA9" unicode="&#x1ea9;" horiz-adv-x="611" 
d="M107.5 29q-50.5 39 -50.5 111q0 77 61 117.5t178 40.5h146v36q0 61 -37 93t-107 32q-66 0 -106 -30.5t-47 -86.5h-72q10 76 70 117t160 41q112 0 171 -45.5t59 -131.5v-162q0 -86 15 -161h-86q-11 45 -14 86q-60 -96 -193 -96q-97 0 -147.5 39zM361.5 50.5
q37.5 21.5 59 57.5t21.5 80v69h-121q-88 0 -130.5 -28.5t-42.5 -87.5q0 -55 33 -83.5t97 -28.5q46 0 83.5 21.5zM399 718q0 15 7.5 24t23.5 20q15 10 23 20t8 24q0 12 -8 20t-25 8q-18 0 -26.5 -9t-9.5 -21h-39q0 26 22 41t56 15t54 -15t20 -41q0 -19 -9 -29.5t-27 -23.5
q-13 -8 -19.5 -15.5t-6.5 -17.5q0 -7 3 -13h-45q-2 8 -2 13zM270 713h70l124 -153h-49l-110 106l-110 -106h-49z" />
    <glyph glyph-name="uni1EAA" unicode="&#x1eaa;" horiz-adv-x="779" 
d="M573 182h-403l-91 -182h-70l364 710h54l343 -710h-112zM550 230l-172 368l-184 -368h356zM246 964q4 36 26.5 56t54.5 20q17 0 34 -6t43 -19q21 -10 35 -15.5t26 -5.5q19 0 34 13t23 36l20 -10q-18 -82 -83 -82q-16 0 -32 6t-41 19q-23 12 -37 17.5t-27 5.5
q-20 0 -35 -12t-21 -33zM359 923h70l124 -153h-49l-110 106l-110 -106h-49z" />
    <glyph glyph-name="uni1EAB" unicode="&#x1eab;" horiz-adv-x="611" 
d="M107.5 29q-50.5 39 -50.5 111q0 77 61 117.5t178 40.5h146v36q0 61 -37 93t-107 32q-66 0 -106 -30.5t-47 -86.5h-72q10 76 70 117t160 41q112 0 171 -45.5t59 -131.5v-162q0 -86 15 -161h-86q-11 45 -14 86q-60 -96 -193 -96q-97 0 -147.5 39zM361.5 50.5
q37.5 21.5 59 57.5t21.5 80v69h-121q-88 0 -130.5 -28.5t-42.5 -87.5q0 -55 33 -83.5t97 -28.5q46 0 83.5 21.5zM157 754q4 36 26.5 56t54.5 20q17 0 34 -6t43 -19q21 -10 35 -15.5t26 -5.5q19 0 34 13t23 36l20 -10q-18 -82 -83 -82q-16 0 -32 6t-41 19q-23 12 -37 17.5
t-27 5.5q-20 0 -35 -12t-21 -33zM270 713h70l124 -153h-49l-110 106l-110 -106h-49z" />
    <glyph glyph-name="uni1EAC" unicode="&#x1eac;" horiz-adv-x="779" 
d="M573 182h-403l-91 -182h-70l364 710h54l343 -710h-112zM550 230l-172 368l-184 -368h356zM352.5 -132.5q-14.5 14.5 -14.5 36.5t14.5 36t37.5 14t37.5 -14t14.5 -36t-14.5 -36.5t-37.5 -14.5t-37.5 14.5zM359 923h70l124 -153h-49l-110 106l-110 -106h-49z" />
    <glyph glyph-name="uni1EAD" unicode="&#x1ead;" horiz-adv-x="611" 
d="M107.5 29q-50.5 39 -50.5 111q0 77 61 117.5t178 40.5h146v36q0 61 -37 93t-107 32q-66 0 -106 -30.5t-47 -86.5h-72q10 76 70 117t160 41q112 0 171 -45.5t59 -131.5v-162q0 -86 15 -161h-86q-11 45 -14 86q-60 -96 -193 -96q-97 0 -147.5 39zM361.5 50.5
q37.5 21.5 59 57.5t21.5 80v69h-121q-88 0 -130.5 -28.5t-42.5 -87.5q0 -55 33 -83.5t97 -28.5q46 0 83.5 21.5zM262.5 -132.5q-14.5 14.5 -14.5 36.5t14.5 36t37.5 14t37.5 -14t14.5 -36t-14.5 -36.5t-37.5 -14.5t-37.5 14.5zM270 713h70l124 -153h-49l-110 106l-110 -106
h-49z" />
    <glyph glyph-name="uni1EAE" unicode="&#x1eae;" horiz-adv-x="779" 
d="M573 182h-403l-91 -182h-70l364 710h54l343 -710h-112zM550 230l-172 368l-184 -368h356zM467 1026q10 12 19 17.5t20 5.5q13 0 21 -6t8 -17q0 -10 -10.5 -20.5t-35.5 -29.5l-87 -64h-34zM278.5 803.5q-42.5 37.5 -45.5 102.5h35q5 -44 38.5 -70t87.5 -26t87.5 26
t38.5 70h35q-3 -65 -45.5 -102.5t-115.5 -37.5t-115.5 37.5z" />
    <glyph glyph-name="uni1EAF" unicode="&#x1eaf;" horiz-adv-x="611" 
d="M107.5 29q-50.5 39 -50.5 111q0 77 61 117.5t178 40.5h146v36q0 61 -37 93t-107 32q-66 0 -106 -30.5t-47 -86.5h-72q10 76 70 117t160 41q112 0 171 -45.5t59 -131.5v-162q0 -86 15 -161h-86q-11 45 -14 86q-60 -96 -193 -96q-97 0 -147.5 39zM361.5 50.5
q37.5 21.5 59 57.5t21.5 80v69h-121q-88 0 -130.5 -28.5t-42.5 -87.5q0 -55 33 -83.5t97 -28.5q46 0 83.5 21.5zM378 816q10 12 19 17.5t20 5.5q13 0 21 -6t8 -17q0 -10 -10.5 -20.5t-35.5 -29.5l-87 -64h-34zM189.5 593.5q-42.5 37.5 -45.5 102.5h35q5 -44 38.5 -70
t87.5 -26t87.5 26t38.5 70h35q-3 -65 -45.5 -102.5t-115.5 -37.5t-115.5 37.5z" />
    <glyph glyph-name="uni1EB0" unicode="&#x1eb0;" horiz-adv-x="779" 
d="M573 182h-403l-91 -182h-70l364 710h54l343 -710h-112zM550 230l-172 368l-184 -368h356zM299 976q-25 19 -35.5 29.5t-10.5 20.5q0 11 8 17t21 6q11 0 20 -5.5t19 -17.5l99 -114h-34zM278.5 803.5q-42.5 37.5 -45.5 102.5h35q5 -44 38.5 -70t87.5 -26t87.5 26t38.5 70
h35q-3 -65 -45.5 -102.5t-115.5 -37.5t-115.5 37.5z" />
    <glyph glyph-name="uni1EB1" unicode="&#x1eb1;" horiz-adv-x="611" 
d="M107.5 29q-50.5 39 -50.5 111q0 77 61 117.5t178 40.5h146v36q0 61 -37 93t-107 32q-66 0 -106 -30.5t-47 -86.5h-72q10 76 70 117t160 41q112 0 171 -45.5t59 -131.5v-162q0 -86 15 -161h-86q-11 45 -14 86q-60 -96 -193 -96q-97 0 -147.5 39zM361.5 50.5
q37.5 21.5 59 57.5t21.5 80v69h-121q-88 0 -130.5 -28.5t-42.5 -87.5q0 -55 33 -83.5t97 -28.5q46 0 83.5 21.5zM210 766q-25 19 -35.5 29.5t-10.5 20.5q0 11 8 17t21 6q11 0 20 -5.5t19 -17.5l99 -114h-34zM189.5 593.5q-42.5 37.5 -45.5 102.5h35q5 -44 38.5 -70t87.5 -26
t87.5 26t38.5 70h35q-3 -65 -45.5 -102.5t-115.5 -37.5t-115.5 37.5z" />
    <glyph glyph-name="uni1EB2" unicode="&#x1eb2;" horiz-adv-x="779" 
d="M573 182h-403l-91 -182h-70l364 710h54l343 -710h-112zM550 230l-172 368l-184 -368h356zM365 918q0 15 7.5 24t23.5 20t24 20.5t8 24.5q0 13 -8 21t-26 8t-26.5 -9.5t-9.5 -21.5h-40q0 27 22 42t58 15q34 0 54 -15t20 -42q0 -19 -9.5 -30.5t-26.5 -23.5
q-14 -10 -20 -16.5t-6 -16.5q0 -7 3 -13h-46q-2 8 -2 13zM278.5 803.5q-42.5 37.5 -45.5 102.5h35q5 -44 38.5 -70t87.5 -26t87.5 26t38.5 70h35q-3 -65 -45.5 -102.5t-115.5 -37.5t-115.5 37.5z" />
    <glyph glyph-name="uni1EB3" unicode="&#x1eb3;" horiz-adv-x="611" 
d="M107.5 29q-50.5 39 -50.5 111q0 77 61 117.5t178 40.5h146v36q0 61 -37 93t-107 32q-66 0 -106 -30.5t-47 -86.5h-72q10 76 70 117t160 41q112 0 171 -45.5t59 -131.5v-162q0 -86 15 -161h-86q-11 45 -14 86q-60 -96 -193 -96q-97 0 -147.5 39zM361.5 50.5
q37.5 21.5 59 57.5t21.5 80v69h-121q-88 0 -130.5 -28.5t-42.5 -87.5q0 -55 33 -83.5t97 -28.5q46 0 83.5 21.5zM276 708q0 15 7.5 24t23.5 20t24 20.5t8 24.5q0 13 -8 21t-26 8t-26.5 -9.5t-9.5 -21.5h-40q0 27 22 42t58 15q34 0 54 -15t20 -42q0 -19 -9.5 -30.5
t-26.5 -23.5q-14 -10 -20 -16.5t-6 -16.5q0 -7 3 -13h-46q-2 8 -2 13zM189.5 593.5q-42.5 37.5 -45.5 102.5h35q5 -44 38.5 -70t87.5 -26t87.5 26t38.5 70h35q-3 -65 -45.5 -102.5t-115.5 -37.5t-115.5 37.5z" />
    <glyph glyph-name="uni1EB4" unicode="&#x1eb4;" horiz-adv-x="779" 
d="M573 182h-403l-91 -182h-70l364 710h54l343 -710h-112zM550 230l-172 368l-184 -368h356zM244 958q5 36 27.5 56t54.5 20q17 0 33 -6t43 -19q21 -10 35 -15.5t27 -5.5q19 0 33.5 13t22.5 36l21 -10q-9 -40 -30 -61t-53 -21q-16 0 -32 6t-41 19q-22 11 -37 17t-28 6
q-19 0 -34 -12t-21 -33zM278.5 803.5q-42.5 37.5 -45.5 102.5h35q5 -44 38.5 -70t87.5 -26t87.5 26t38.5 70h35q-3 -65 -45.5 -102.5t-115.5 -37.5t-115.5 37.5z" />
    <glyph glyph-name="uni1EB5" unicode="&#x1eb5;" horiz-adv-x="611" 
d="M107.5 29q-50.5 39 -50.5 111q0 77 61 117.5t178 40.5h146v36q0 61 -37 93t-107 32q-66 0 -106 -30.5t-47 -86.5h-72q10 76 70 117t160 41q112 0 171 -45.5t59 -131.5v-162q0 -86 15 -161h-86q-11 45 -14 86q-60 -96 -193 -96q-97 0 -147.5 39zM361.5 50.5
q37.5 21.5 59 57.5t21.5 80v69h-121q-88 0 -130.5 -28.5t-42.5 -87.5q0 -55 33 -83.5t97 -28.5q46 0 83.5 21.5zM155 748q5 36 27.5 56t54.5 20q17 0 33 -6t43 -19q21 -10 35 -15.5t27 -5.5q19 0 33.5 13t22.5 36l21 -10q-9 -40 -30 -61t-53 -21q-16 0 -32 6t-41 19
q-22 11 -37 17t-28 6q-19 0 -34 -12t-21 -33zM189.5 593.5q-42.5 37.5 -45.5 102.5h35q5 -44 38.5 -70t87.5 -26t87.5 26t38.5 70h35q-3 -65 -45.5 -102.5t-115.5 -37.5t-115.5 37.5z" />
    <glyph glyph-name="uni1EB6" unicode="&#x1eb6;" horiz-adv-x="779" 
d="M573 182h-403l-91 -182h-70l364 710h54l343 -710h-112zM550 230l-172 368l-184 -368h356zM352.5 -132.5q-14.5 14.5 -14.5 36.5t14.5 36t37.5 14t37.5 -14t14.5 -36t-14.5 -36.5t-37.5 -14.5t-37.5 14.5zM278.5 803.5q-42.5 37.5 -45.5 102.5h35q5 -44 38.5 -70t87.5 -26
t87.5 26t38.5 70h35q-3 -65 -45.5 -102.5t-115.5 -37.5t-115.5 37.5z" />
    <glyph glyph-name="uni1EB7" unicode="&#x1eb7;" horiz-adv-x="611" 
d="M107.5 29q-50.5 39 -50.5 111q0 77 61 117.5t178 40.5h146v36q0 61 -37 93t-107 32q-66 0 -106 -30.5t-47 -86.5h-72q10 76 70 117t160 41q112 0 171 -45.5t59 -131.5v-162q0 -86 15 -161h-86q-11 45 -14 86q-60 -96 -193 -96q-97 0 -147.5 39zM361.5 50.5
q37.5 21.5 59 57.5t21.5 80v69h-121q-88 0 -130.5 -28.5t-42.5 -87.5q0 -55 33 -83.5t97 -28.5q46 0 83.5 21.5zM262.5 -132.5q-14.5 14.5 -14.5 36.5t14.5 36t37.5 14t37.5 -14t14.5 -36t-14.5 -36.5t-37.5 -14.5t-37.5 14.5zM189.5 593.5q-42.5 37.5 -45.5 102.5h35
q5 -44 38.5 -70t87.5 -26t87.5 26t38.5 70h35q-3 -65 -45.5 -102.5t-115.5 -37.5t-115.5 37.5z" />
    <glyph glyph-name="uni1EB8" unicode="&#x1eb8;" horiz-adv-x="695" 
d="M74 700h593v-48h-489v-253h432v-47h-432v-304h489v-48h-593v700zM341.5 -132.5q-14.5 14.5 -14.5 36.5t14.5 36t37.5 14t37.5 -14t14.5 -36t-14.5 -36.5t-37.5 -14.5t-37.5 14.5z" />
    <glyph glyph-name="uni1EB9" unicode="&#x1eb9;" horiz-adv-x="629" 
d="M439.5 64q46.5 33 59.5 90h75q-19 -77 -87 -120.5t-166 -43.5q-82 0 -143.5 31t-95 88.5t-33.5 133.5q0 78 33 136t94.5 89.5t142.5 31.5q122 0 190.5 -66t71.5 -186h-440v-5q0 -99 48 -155.5t136 -56.5q68 0 114.5 33zM200 414.5q-46 -44.5 -56 -125.5h350
q-11 82 -55.5 126t-117.5 44q-75 0 -121 -44.5zM277.5 -132.5q-14.5 14.5 -14.5 36.5t14.5 36t37.5 14t37.5 -14t14.5 -36t-14.5 -36.5t-37.5 -14.5t-37.5 14.5z" />
    <glyph glyph-name="uni1EBA" unicode="&#x1eba;" horiz-adv-x="695" 
d="M74 700h593v-48h-489v-253h432v-47h-432v-304h489v-48h-593v700zM346 788q0 21 12.5 34.5t35.5 28.5t35 28t12 34q0 19 -13.5 29.5t-37.5 10.5t-38.5 -11.5t-18.5 -32.5h-50q2 37 31.5 60t76.5 23q46 0 75 -22t29 -58q0 -29 -14.5 -45.5t-40.5 -32.5q-19 -13 -28.5 -22.5
t-9.5 -23.5q0 -10 4 -18h-56q-4 12 -4 18z" />
    <glyph glyph-name="uni1EBB" unicode="&#x1ebb;" horiz-adv-x="629" 
d="M439.5 64q46.5 33 59.5 90h75q-19 -77 -87 -120.5t-166 -43.5q-82 0 -143.5 31t-95 88.5t-33.5 133.5q0 78 33 136t94.5 89.5t142.5 31.5q122 0 190.5 -66t71.5 -186h-440v-5q0 -99 48 -155.5t136 -56.5q68 0 114.5 33zM200 414.5q-46 -44.5 -56 -125.5h350
q-11 82 -55.5 126t-117.5 44q-75 0 -121 -44.5zM282 578q0 21 12.5 34.5t35.5 28.5t35 28t12 34q0 19 -13.5 29.5t-37.5 10.5t-38.5 -11.5t-18.5 -32.5h-50q2 37 31.5 60t76.5 23q46 0 75 -22t29 -58q0 -29 -14.5 -45.5t-40.5 -32.5q-19 -13 -28.5 -22.5t-9.5 -23.5
q0 -10 4 -18h-56q-4 12 -4 18z" />
    <glyph glyph-name="uni1EBC" unicode="&#x1ebc;" horiz-adv-x="695" 
d="M74 700h593v-48h-489v-253h432v-47h-432v-304h489v-48h-593v700zM233.5 851q28.5 31 74.5 31q28 0 49.5 -10.5t45.5 -29.5q17 -14 31 -22t28 -8q26 0 44.5 19.5t20.5 50.5h26q0 -49 -28.5 -80.5t-73.5 -31.5q-29 0 -48.5 9.5t-42.5 27.5q-16 13 -28 19.5t-28 6.5
q-31 0 -51 -17.5t-21 -45.5h-27q0 50 28.5 81z" />
    <glyph glyph-name="uni1EBD" unicode="&#x1ebd;" horiz-adv-x="629" 
d="M439.5 64q46.5 33 59.5 90h75q-19 -77 -87 -120.5t-166 -43.5q-82 0 -143.5 31t-95 88.5t-33.5 133.5q0 78 33 136t94.5 89.5t142.5 31.5q122 0 190.5 -66t71.5 -186h-440v-5q0 -99 48 -155.5t136 -56.5q68 0 114.5 33zM200 414.5q-46 -44.5 -56 -125.5h350
q-11 82 -55.5 126t-117.5 44q-75 0 -121 -44.5zM169.5 641q28.5 31 74.5 31q28 0 49.5 -10.5t45.5 -29.5q17 -14 31 -22t28 -8q26 0 44.5 19.5t20.5 50.5h26q0 -49 -28.5 -80.5t-73.5 -31.5q-29 0 -48.5 9.5t-42.5 27.5q-16 13 -28 19.5t-28 6.5q-31 0 -51 -17.5t-21 -45.5
h-27q0 50 28.5 81z" />
    <glyph glyph-name="uni1EBE" unicode="&#x1ebe;" horiz-adv-x="695" 
d="M74 700h593v-48h-489v-253h432v-47h-432v-304h489v-48h-593v700zM573 1002q21 24 40 24q13 0 21 -6.5t8 -17.5q0 -10 -10 -20t-36 -30l-88 -64h-33zM344 923h70l124 -153h-49l-110 106l-110 -106h-49z" />
    <glyph glyph-name="uni1EBF" unicode="&#x1ebf;" horiz-adv-x="629" 
d="M439.5 64q46.5 33 59.5 90h75q-19 -77 -87 -120.5t-166 -43.5q-82 0 -143.5 31t-95 88.5t-33.5 133.5q0 78 33 136t94.5 89.5t142.5 31.5q122 0 190.5 -66t71.5 -186h-440v-5q0 -99 48 -155.5t136 -56.5q68 0 114.5 33zM200 414.5q-46 -44.5 -56 -125.5h350
q-11 82 -55.5 126t-117.5 44q-75 0 -121 -44.5zM509 792q21 24 40 24q13 0 21 -6.5t8 -17.5q0 -10 -10 -20t-36 -30l-88 -64h-33zM280 713h70l124 -153h-49l-110 106l-110 -106h-49z" />
    <glyph glyph-name="uni1EC0" unicode="&#x1ec0;" horiz-adv-x="695" 
d="M74 700h593v-48h-489v-253h432v-47h-432v-304h489v-48h-593v700zM463 952q-25 19 -35.5 29.5t-10.5 20.5q0 11 8 17.5t21 6.5q20 0 39 -24l99 -114h-34zM344 923h70l124 -153h-49l-110 106l-110 -106h-49z" />
    <glyph glyph-name="uni1EC1" unicode="&#x1ec1;" horiz-adv-x="629" 
d="M439.5 64q46.5 33 59.5 90h75q-19 -77 -87 -120.5t-166 -43.5q-82 0 -143.5 31t-95 88.5t-33.5 133.5q0 78 33 136t94.5 89.5t142.5 31.5q122 0 190.5 -66t71.5 -186h-440v-5q0 -99 48 -155.5t136 -56.5q68 0 114.5 33zM200 414.5q-46 -44.5 -56 -125.5h350
q-11 82 -55.5 126t-117.5 44q-75 0 -121 -44.5zM399 742q-25 19 -35.5 29.5t-10.5 20.5q0 11 8 17.5t21 6.5q20 0 39 -24l99 -114h-34zM280 713h70l124 -153h-49l-110 106l-110 -106h-49z" />
    <glyph glyph-name="uni1EC2" unicode="&#x1ec2;" horiz-adv-x="695" 
d="M74 700h593v-48h-489v-253h432v-47h-432v-304h489v-48h-593v700zM473 928q0 15 7.5 24t23.5 20q15 10 23 20t8 24q0 12 -8 20t-25 8q-18 0 -26.5 -9t-9.5 -21h-39q0 26 22 41t56 15t54 -15t20 -41q0 -19 -9 -29.5t-27 -23.5q-13 -8 -19.5 -15.5t-6.5 -17.5q0 -7 3 -13
h-45q-2 8 -2 13zM344 923h70l124 -153h-49l-110 106l-110 -106h-49z" />
    <glyph glyph-name="uni1EC3" unicode="&#x1ec3;" horiz-adv-x="629" 
d="M439.5 64q46.5 33 59.5 90h75q-19 -77 -87 -120.5t-166 -43.5q-82 0 -143.5 31t-95 88.5t-33.5 133.5q0 78 33 136t94.5 89.5t142.5 31.5q122 0 190.5 -66t71.5 -186h-440v-5q0 -99 48 -155.5t136 -56.5q68 0 114.5 33zM200 414.5q-46 -44.5 -56 -125.5h350
q-11 82 -55.5 126t-117.5 44q-75 0 -121 -44.5zM409 718q0 15 7.5 24t23.5 20q15 10 23 20t8 24q0 12 -8 20t-25 8q-18 0 -26.5 -9t-9.5 -21h-39q0 26 22 41t56 15t54 -15t20 -41q0 -19 -9 -29.5t-27 -23.5q-13 -8 -19.5 -15.5t-6.5 -17.5q0 -7 3 -13h-45q-2 8 -2 13z
M280 713h70l124 -153h-49l-110 106l-110 -106h-49z" />
    </font>
</defs>
</svg>
